{
DisplayStrings = (
"/knDA/knDA/knKAc2/knDA/knmvR/knDA/knKHAc2/knDA/knDA/knGAc2/knDA/knDA/knGHAc2/knDA/knDA \012/knDA/knDA/knNGAc2/knDA/knDA/knCAc2/knDA/knDA/knCHAc2/knDA/knDA/knJAc2/knDA/knDA \012/knDA/knDA/knJHAc2/knDA/knDA/knNYAc2/knDA/knDA/knTTAc2/knDA/knDA/knTTHAc2/knDA/knDA \012/knDA/knDA/knDDAc2/knDA/knDA/knDDHAc2/knDA/knDA/knNNAc2/knDA/knDA/knTAc2/knDA/knDA \012/knDA/knDA/knTHAc2/knDA/knDA/knDAc2/knDA/knDA/knDHAc2/knDA/knDA/knNAc2/knDA/knDA \012/knDA/knDA/knPAc2/knDA/knDA/knPHAc2/knDA/knDA/knBAc2/knDA/knDA/knBHAc2/knDA/knDA \012/knDA/knMAc2/knDA/knDA/knYAc2/knDA/knDA/knRAc2/knDA/knDA/knLAc2/knDA/knDA \012/knDA/knDA/knVAc2/knDA/knDA/knSHAc2/knDA/knDA/knSSAc2/knDA/knDA/knSAc2/knDA/knDA \012/knDA/knDA/knHAc2/knDA/knDA/knRRAc2/knDA/knDA/knLLAc2/knDA/knDA/knLLLAc2/knDA/knDA \012/knDA/knDA/knKSSAc2/knDA/knDA/knTAc2_RAc2/knDA/knDA \012\012/knKA/knKHA/knGA/knGHA \012/knNGA/knCA/knCHA/knJA \012/knJHA/knNYA/knTTA \012/knTTHA/knDDA/knDDHA/knNNA \012/knTA/knTHA/knDA/knDHA/knNA \012\012\012/knDA/knKAc2/knDA/knmvR/knDA/knKHAc2/knDA/knGHAc2/knDA/knNAc2/knDA/knCHAc2/knDA \012/knDA/knPAc2/knDA/knPHAc2/knDA/knBAc2/knDA/knBHAc2/knDA/knMAc2/knDA/knYAc2/knDA \012/knDA/knRAc2/knDA/knVAc2/knDA/knSHAc2/knDA/knSSAc2/knDA/knSAc2/knDA/knLLAc2/knDA/knCHAc2/knDA \012\012/knDA/knNGAc2/knDA/knCAc2/knDA/knJAc2/knDA/knBAc2/knDA/knBHAc2/knDA/knGAc2/knDA \012/knDA/knTTHAc2/knDA/knJHAc2/knDA/knNYAc2/knDA/knNNAc2/knDA/knHAc2/knDA/knRRAc2/knDA/knLLLAc2/knDA/knDA/knTTAc2 \012/knDA/knDDAc2/knDA/knDDHAc2/knDA/knTHAc2/knDA/knDAc2/knDA/knDHAc2/knDA \012/knDA/knKSSAc2/knDA/knTAc2_RAc2/knDA/knLAc2/knDA \012",

glyphs = (
{
color = 4;
glyphname = knA;
lastChange = "2016-01-17 18:56:06 +0000";
layers = (
{
layerId = "034236B8-3FA8-43DA-9EDA-EFF269A687EC";
name = Regular;
paths = (
{
closed = 1;
nodes = (
"602 -14 OFFCURVE",
"722 104 OFFCURVE",
"722 283 CURVE SMOOTH",
"722 414 OFFCURVE",
"650 520 OFFCURVE",
"550 520 CURVE SMOOTH",
"482 520 OFFCURVE",
"455 471 OFFCURVE",
"455 416 CURVE SMOOTH",
"455 392 OFFCURVE",
"470 364 OFFCURVE",
"479 354 CURVE",
"384 354 LINE",
"384 283 LINE",
"614 283 LINE",
"614 354 LINE",
"561 354 LINE SMOOTH",
"516 354 OFFCURVE",
"495 379 OFFCURVE",
"495 405 CURVE SMOOTH",
"495 437 OFFCURVE",
"519 454 OFFCURVE",
"561 454 CURVE SMOOTH",
"639 454 OFFCURVE",
"683 389 OFFCURVE",
"683 300 CURVE SMOOTH",
"683 171 OFFCURVE",
"581 71 OFFCURVE",
"391 71 CURVE SMOOTH",
"200 71 OFFCURVE",
"100 171 OFFCURVE",
"100 299 CURVE SMOOTH",
"100 387 OFFCURVE",
"142 454 OFFCURVE",
"235 454 CURVE SMOOTH",
"273 454 OFFCURVE",
"307 440 OFFCURVE",
"307 401 CURVE SMOOTH",
"307 365 OFFCURVE",
"279 344 OFFCURVE",
"232 344 CURVE SMOOTH",
"190 344 OFFCURVE",
"159 365 OFFCURVE",
"159 408 CURVE SMOOTH",
"159 419 OFFCURVE",
"163 440 OFFCURVE",
"166 450 CURVE",
"135 429 LINE",
"132 407 OFFCURVE",
"131 394 OFFCURVE",
"131 381 CURVE SMOOTH",
"131 308 OFFCURVE",
"174 273 OFFCURVE",
"229 273 CURVE SMOOTH",
"295 273 OFFCURVE",
"337 325 OFFCURVE",
"337 393 CURVE SMOOTH",
"337 457 OFFCURVE",
"301 519 OFFCURVE",
"226 519 CURVE SMOOTH",
"128 519 OFFCURVE",
"60 414 OFFCURVE",
"60 283 CURVE SMOOTH",
"60 104 OFFCURVE",
"180 -14 OFFCURVE",
"391 -14 CURVE SMOOTH"
);
}
);
width = 782;
}
);
unicode = 0C85;
userData = {
public.markColor = "0.97,1,0,1";
};
},
{
color = 4;
glyphname = knAA;
lastChange = "2016-01-17 18:56:06 +0000";
layers = (
{
layerId = "034236B8-3FA8-43DA-9EDA-EFF269A687EC";
name = Regular;
paths = (
{
closed = 1;
nodes = (
"574 355 LINE",
"562 370 OFFCURVE",
"554 386 OFFCURVE",
"554 405 CURVE SMOOTH",
"554 432 OFFCURVE",
"576 454 OFFCURVE",
"615 454 CURVE SMOOTH",
"654 454 OFFCURVE",
"678 431 OFFCURVE",
"678 402 CURVE SMOOTH",
"678 373 OFFCURVE",
"652 355 OFFCURVE",
"601 355 CURVE SMOOTH"
);
},
{
closed = 1;
nodes = (
"200 71 OFFCURVE",
"100 171 OFFCURVE",
"100 299 CURVE SMOOTH",
"100 387 OFFCURVE",
"142 454 OFFCURVE",
"235 454 CURVE SMOOTH",
"273 454 OFFCURVE",
"307 440 OFFCURVE",
"307 401 CURVE SMOOTH",
"307 365 OFFCURVE",
"279 344 OFFCURVE",
"232 344 CURVE SMOOTH",
"190 344 OFFCURVE",
"159 365 OFFCURVE",
"159 408 CURVE SMOOTH",
"159 419 OFFCURVE",
"163 440 OFFCURVE",
"166 450 CURVE",
"135 429 LINE",
"132 407 OFFCURVE",
"131 394 OFFCURVE",
"131 381 CURVE SMOOTH",
"131 308 OFFCURVE",
"174 273 OFFCURVE",
"229 273 CURVE SMOOTH",
"295 273 OFFCURVE",
"337 325 OFFCURVE",
"337 393 CURVE SMOOTH",
"337 457 OFFCURVE",
"301 519 OFFCURVE",
"226 519 CURVE SMOOTH",
"128 519 OFFCURVE",
"60 414 OFFCURVE",
"60 283 CURVE SMOOTH",
"60 104 OFFCURVE",
"180 -14 OFFCURVE",
"381 -14 CURVE SMOOTH",
"575 -14 OFFCURVE",
"665 90 OFFCURVE",
"665 193 CURVE SMOOTH",
"665 236 OFFCURVE",
"649 268 OFFCURVE",
"630 293 CURVE",
"680 310 OFFCURVE",
"709 351 OFFCURVE",
"709 402 CURVE SMOOTH",
"709 463 OFFCURVE",
"668 519 OFFCURVE",
"603 519 CURVE SMOOTH",
"552 519 OFFCURVE",
"515 485 OFFCURVE",
"515 422 CURVE SMOOTH",
"515 395 OFFCURVE",
"522 373 OFFCURVE",
"532 355 CURVE",
"396 355 LINE",
"396 283 LINE",
"568 283 LINE SMOOTH",
"575 283 OFFCURVE",
"582 283 OFFCURVE",
"589 284 CURVE",
"607 262 OFFCURVE",
"621 241 OFFCURVE",
"621 210 CURVE SMOOTH",
"621 136 OFFCURVE",
"535 71 OFFCURVE",
"381 71 CURVE SMOOTH"
);
}
);
width = 754;
}
);
unicode = 0C86;
userData = {
public.markColor = "0.97,1,0,1";
};
},
{
color = 4;
glyphname = knI;
lastChange = "2016-01-17 18:56:06 +0000";
layers = (
{
layerId = "034236B8-3FA8-43DA-9EDA-EFF269A687EC";
name = Regular;
paths = (
{
closed = 1;
nodes = (
"82 519 OFFCURVE",
"33 467 OFFCURVE",
"33 388 CURVE SMOOTH",
"33 356 OFFCURVE",
"41 323 OFFCURVE",
"62 296 CURVE",
"93 317 LINE",
"85 325 OFFCURVE",
"80 340 OFFCURVE",
"80 358 CURVE SMOOTH",
"80 402 OFFCURVE",
"111 442 OFFCURVE",
"169 442 CURVE SMOOTH",
"259 442 OFFCURVE",
"309 358 OFFCURVE",
"323 283 CURVE",
"333 283 LINE",
"345 357 OFFCURVE",
"401 441 OFFCURVE",
"485 441 CURVE SMOOTH",
"546 441 OFFCURVE",
"598 390 OFFCURVE",
"598 300 CURVE SMOOTH",
"598 164 OFFCURVE",
"485 71 OFFCURVE",
"354 71 CURVE SMOOTH",
"294 71 OFFCURVE",
"243 89 OFFCURVE",
"243 124 CURVE SMOOTH",
"243 155 OFFCURVE",
"281 184 OFFCURVE",
"346 184 CURVE SMOOTH",
"499 184 OFFCURVE",
"582 46 OFFCURVE",
"582 -45 CURVE SMOOTH",
"582 -76 OFFCURVE",
"592 -97 OFFCURVE",
"613 -97 CURVE SMOOTH",
"629 -97 OFFCURVE",
"641 -84 OFFCURVE",
"641 -53 CURVE SMOOTH",
"641 39 OFFCURVE",
"534 216 OFFCURVE",
"341 216 CURVE SMOOTH",
"247 216 OFFCURVE",
"190 168 OFFCURVE",
"190 105 CURVE SMOOTH",
"190 38 OFFCURVE",
"253 -14 OFFCURVE",
"344 -14 CURVE SMOOTH",
"500 -14 OFFCURVE",
"634 148 OFFCURVE",
"634 315 CURVE SMOOTH",
"634 442 OFFCURVE",
"581 519 OFFCURVE",
"490 519 CURVE SMOOTH",
"417 519 OFFCURVE",
"352 461 OFFCURVE",
"329 377 CURVE",
"327 377 LINE",
"304 461 OFFCURVE",
"238 519 OFFCURVE",
"156 519 CURVE SMOOTH"
);
}
);
width = 691;
}
);
unicode = 0C87;
userData = {
public.markColor = "0.97,1,0,1";
};
},
{
color = 4;
glyphname = knII;
lastChange = "2016-01-17 18:56:06 +0000";
layers = (
{
layerId = "034236B8-3FA8-43DA-9EDA-EFF269A687EC";
name = Regular;
paths = (
{
closed = 1;
nodes = (
"762 -14 OFFCURVE",
"816 30 OFFCURVE",
"816 104 CURVE SMOOTH",
"816 223 OFFCURVE",
"682 279 OFFCURVE",
"682 361 CURVE SMOOTH",
"682 397 OFFCURVE",
"708 418 OFFCURVE",
"741 418 CURVE SMOOTH",
"772 418 OFFCURVE",
"798 400 OFFCURVE",
"798 364 CURVE SMOOTH",
"798 325 OFFCURVE",
"768 298 OFFCURVE",
"692 298 CURVE SMOOTH",
"45 298 LINE",
"45 239 LINE",
"659 239 LINE SMOOTH",
"764 239 OFFCURVE",
"836 286 OFFCURVE",
"836 369 CURVE SMOOTH",
"836 434 OFFCURVE",
"792 479 OFFCURVE",
"734 479 CURVE SMOOTH",
"681 479 OFFCURVE",
"642 441 OFFCURVE",
"642 382 CURVE SMOOTH",
"642 277 OFFCURVE",
"765 228 OFFCURVE",
"765 142 CURVE SMOOTH",
"765 106 OFFCURVE",
"743 88 OFFCURVE",
"721 79 CURVE SMOOTH",
"697 70 OFFCURVE",
"678 73 OFFCURVE",
"661 67 CURVE SMOOTH",
"644 61 OFFCURVE",
"633 48 OFFCURVE",
"633 30 CURVE SMOOTH",
"633 5 OFFCURVE",
"654 -14 OFFCURVE",
"698 -14 CURVE SMOOTH"
);
},
{
closed = 1;
nodes = (
"480 -14 OFFCURVE",
"574 88 OFFCURVE",
"574 228 CURVE SMOOTH",
"574 317 OFFCURVE",
"528 401 OFFCURVE",
"454 439 CURVE SMOOTH",
"422 456 OFFCURVE",
"385 464 OFFCURVE",
"344 464 CURVE SMOOTH",
"303 464 OFFCURVE",
"266 456 OFFCURVE",
"234 439 CURVE SMOOTH",
"160 401 OFFCURVE",
"114 317 OFFCURVE",
"114 228 CURVE SMOOTH",
"114 88 OFFCURVE",
"208 -14 OFFCURVE",
"344 -14 CURVE SMOOTH"
);
},
{
closed = 1;
nodes = (
"234 71 OFFCURVE",
"159 146 OFFCURVE",
"159 249 CURVE SMOOTH",
"159 350 OFFCURVE",
"243 436 OFFCURVE",
"344 436 CURVE SMOOTH",
"445 436 OFFCURVE",
"529 351 OFFCURVE",
"529 250 CURVE SMOOTH",
"529 147 OFFCURVE",
"453 71 OFFCURVE",
"344 71 CURVE SMOOTH"
);
},
{
closed = 1;
nodes = (
"235 434 LINE",
"345 444 LINE",
"444 434 LINE",
"525 434 OFFCURVE",
"579 479 OFFCURVE",
"579 552 CURVE SMOOTH",
"579 607 OFFCURVE",
"548 648 OFFCURVE",
"505 664 CURVE",
"490 644 LINE",
"514 635 OFFCURVE",
"536 610 OFFCURVE",
"536 576 CURVE SMOOTH",
"536 536 OFFCURVE",
"505 509 OFFCURVE",
"444 509 CURVE SMOOTH",
"115 509 LINE",
"115 434 LINE"
);
}
);
width = 896;
}
);
unicode = 0C88;
userData = {
public.markColor = "0.97,1,0,1";
};
},
{
color = 4;
glyphname = knU;
lastChange = "2016-01-17 18:56:06 +0000";
layers = (
{
layerId = "034236B8-3FA8-43DA-9EDA-EFF269A687EC";
name = Regular;
paths = (
{
closed = 1;
nodes = (
"407 -14 OFFCURVE",
"473 42 OFFCURVE",
"473 150 CURVE SMOOTH",
"473 229 OFFCURVE",
"461 284 OFFCURVE",
"461 339 CURVE SMOOTH",
"461 396 OFFCURVE",
"492 441 OFFCURVE",
"552 441 CURVE SMOOTH",
"605 441 OFFCURVE",
"639 406 OFFCURVE",
"639 339 CURVE SMOOTH",
"639 276 OFFCURVE",
"634 220 OFFCURVE",
"634 150 CURVE SMOOTH",
"634 65 OFFCURVE",
"679 -14 OFFCURVE",
"780 -14 CURVE SMOOTH",
"899 -14 OFFCURVE",
"979 95 OFFCURVE",
"979 246 CURVE SMOOTH",
"979 415 OFFCURVE",
"883 513 OFFCURVE",
"813 513 CURVE SMOOTH",
"781 513 OFFCURVE",
"764 492 OFFCURVE",
"764 470 CURVE SMOOTH",
"764 451 OFFCURVE",
"776 435 OFFCURVE",
"792 430 CURVE SMOOTH",
"815 423 OFFCURVE",
"837 428 OFFCURVE",
"858 421 CURVE SMOOTH",
"897 407 OFFCURVE",
"944 344 OFFCURVE",
"944 251 CURVE SMOOTH",
"944 137 OFFCURVE",
"874 71 OFFCURVE",
"794 71 CURVE SMOOTH",
"713 71 OFFCURVE",
"673 138 OFFCURVE",
"673 207 CURVE SMOOTH",
"673 256 OFFCURVE",
"681 312 OFFCURVE",
"681 375 CURVE SMOOTH",
"681 453 OFFCURVE",
"637 519 OFFCURVE",
"553 519 CURVE SMOOTH",
"469 519 OFFCURVE",
"419 453 OFFCURVE",
"419 364 CURVE SMOOTH",
"419 312 OFFCURVE",
"436 256 OFFCURVE",
"436 189 CURVE SMOOTH",
"436 118 OFFCURVE",
"379 71 OFFCURVE",
"302 71 CURVE SMOOTH",
"190 71 OFFCURVE",
"100 171 OFFCURVE",
"100 301 CURVE SMOOTH",
"100 387 OFFCURVE",
"142 454 OFFCURVE",
"232 454 CURVE SMOOTH",
"273 454 OFFCURVE",
"307 440 OFFCURVE",
"307 401 CURVE SMOOTH",
"307 365 OFFCURVE",
"279 344 OFFCURVE",
"234 344 CURVE SMOOTH",
"190 344 OFFCURVE",
"158 357 OFFCURVE",
"159 407 CURVE SMOOTH",
"159 424 OFFCURVE",
"162 440 OFFCURVE",
"166 450 CURVE",
"135 429 LINE",
"132 407 OFFCURVE",
"131 394 OFFCURVE",
"131 381 CURVE SMOOTH",
"131 308 OFFCURVE",
"174 273 OFFCURVE",
"229 273 CURVE SMOOTH",
"295 273 OFFCURVE",
"337 325 OFFCURVE",
"337 394 CURVE SMOOTH",
"337 457 OFFCURVE",
"301 519 OFFCURVE",
"225 519 CURVE SMOOTH",
"128 519 OFFCURVE",
"60 414 OFFCURVE",
"60 276 CURVE SMOOTH",
"60 104 OFFCURVE",
"168 -14 OFFCURVE",
"305 -14 CURVE SMOOTH"
);
}
);
width = 1034;
}
);
unicode = 0C89;
userData = {
public.markColor = "0.97,1,0,1";
};
},
{
color = 4;
glyphname = knUU;
lastChange = "2016-01-17 18:56:06 +0000";
layers = (
{
background = {
paths = (
{
closed = 0;
nodes = (
"776 71 LINE",
"706 71 OFFCURVE",
"672 138 OFFCURVE",
"672 206 CURVE SMOOTH",
"672 256 OFFCURVE",
"681 312 OFFCURVE",
"681 375 CURVE SMOOTH",
"681 453 OFFCURVE",
"637 519 OFFCURVE",
"556 519 CURVE SMOOTH",
"469 519 OFFCURVE",
"419 453 OFFCURVE",
"419 368 CURVE SMOOTH",
"419 312 OFFCURVE",
"436 256 OFFCURVE",
"436 189 CURVE SMOOTH",
"436 118 OFFCURVE",
"379 71 OFFCURVE",
"321 71 CURVE SMOOTH",
"190 71 OFFCURVE",
"100 171 OFFCURVE",
"100 294 CURVE SMOOTH",
"100 387 OFFCURVE",
"142 454 OFFCURVE",
"235 454 CURVE SMOOTH",
"273 454 OFFCURVE",
"307 440 OFFCURVE",
"307 401 CURVE SMOOTH",
"307 365 OFFCURVE",
"279 344 OFFCURVE",
"232 344 CURVE SMOOTH",
"190 344 OFFCURVE",
"159 365 OFFCURVE",
"159 408 CURVE SMOOTH",
"159 419 OFFCURVE",
"163 440 OFFCURVE",
"166 450 CURVE",
"177 475 OFFCURVE",
"172 501 OFFCURVE",
"157 497 CURVE",
"135 429 LINE",
"132 407 OFFCURVE",
"131 394 OFFCURVE",
"131 381 CURVE SMOOTH",
"131 308 OFFCURVE",
"174 273 OFFCURVE",
"232 273 CURVE SMOOTH",
"295 273 OFFCURVE",
"337 325 OFFCURVE",
"337 391 CURVE SMOOTH",
"337 457 OFFCURVE",
"301 519 OFFCURVE",
"230 519 CURVE SMOOTH",
"128 519 OFFCURVE",
"60 414 OFFCURVE",
"60 283 CURVE SMOOTH",
"60 104 OFFCURVE",
"168 -14 OFFCURVE",
"319 -14 CURVE SMOOTH",
"387 -14 OFFCURVE",
"473 42 OFFCURVE",
"473 150 CURVE SMOOTH",
"473 229 OFFCURVE",
"461 284 OFFCURVE",
"461 339 CURVE SMOOTH",
"461 396 OFFCURVE",
"492 441 OFFCURVE",
"551 441 CURVE SMOOTH",
"605 441 OFFCURVE",
"639 406 OFFCURVE",
"639 339 CURVE SMOOTH",
"639 276 OFFCURVE",
"634 220 OFFCURVE",
"634 150 CURVE SMOOTH",
"634 65 OFFCURVE",
"674 -14 OFFCURVE",
"779 -14 CURVE"
);
}
);
};
layerId = "034236B8-3FA8-43DA-9EDA-EFF269A687EC";
name = Regular;
paths = (
{
closed = 1;
nodes = (
"879 -14 OFFCURVE",
"922 73 OFFCURVE",
"922 231 CURVE SMOOTH",
"922 371 OFFCURVE",
"998 441 OFFCURVE",
"1105 441 CURVE SMOOTH",
"1220 441 OFFCURVE",
"1319 363 OFFCURVE",
"1319 235 CURVE SMOOTH",
"1319 129 OFFCURVE",
"1257 68 OFFCURVE",
"1167 68 CURVE SMOOTH",
"1094 68 OFFCURVE",
"1050 111 OFFCURVE",
"1049 169 CURVE SMOOTH",
"1048 211 OFFCURVE",
"1070 237 OFFCURVE",
"1082 237 CURVE SMOOTH",
"1087 237 OFFCURVE",
"1088 233 OFFCURVE",
"1088 227 CURVE",
"1089 191 OFFCURVE",
"1110 165 OFFCURVE",
"1143 165 CURVE SMOOTH",
"1178 165 OFFCURVE",
"1204 194 OFFCURVE",
"1203 230 CURVE",
"1204 262 OFFCURVE",
"1179 299 OFFCURVE",
"1124 299 CURVE SMOOTH",
"1052 299 OFFCURVE",
"1012 235 OFFCURVE",
"1011 157 CURVE SMOOTH",
"1012 58 OFFCURVE",
"1072 -14 OFFCURVE",
"1168 -14 CURVE SMOOTH",
"1280 -14 OFFCURVE",
"1354 92 OFFCURVE",
"1354 238 CURVE SMOOTH",
"1354 402 OFFCURVE",
"1244 519 OFFCURVE",
"1096 519 CURVE SMOOTH",
"974 519 OFFCURVE",
"885 423 OFFCURVE",
"885 248 CURVE SMOOTH",
"885 116 OFFCURVE",
"849 71 OFFCURVE",
"776 71 CURVE",
"707 71 OFFCURVE",
"673 138 OFFCURVE",
"673 207 CURVE SMOOTH",
"673 256 OFFCURVE",
"681 312 OFFCURVE",
"681 375 CURVE SMOOTH",
"681 453 OFFCURVE",
"637 519 OFFCURVE",
"553 519 CURVE SMOOTH",
"469 519 OFFCURVE",
"419 453 OFFCURVE",
"419 364 CURVE SMOOTH",
"419 312 OFFCURVE",
"436 256 OFFCURVE",
"436 189 CURVE SMOOTH",
"436 118 OFFCURVE",
"379 71 OFFCURVE",
"302 71 CURVE SMOOTH",
"190 71 OFFCURVE",
"100 171 OFFCURVE",
"100 301 CURVE SMOOTH",
"100 387 OFFCURVE",
"142 454 OFFCURVE",
"232 454 CURVE SMOOTH",
"273 454 OFFCURVE",
"307 440 OFFCURVE",
"307 401 CURVE SMOOTH",
"307 365 OFFCURVE",
"279 344 OFFCURVE",
"234 344 CURVE SMOOTH",
"190 344 OFFCURVE",
"158 357 OFFCURVE",
"159 407 CURVE SMOOTH",
"159 424 OFFCURVE",
"162 440 OFFCURVE",
"166 450 CURVE",
"135 429 LINE",
"132 407 OFFCURVE",
"131 394 OFFCURVE",
"131 381 CURVE SMOOTH",
"131 308 OFFCURVE",
"174 273 OFFCURVE",
"229 273 CURVE SMOOTH",
"295 273 OFFCURVE",
"337 325 OFFCURVE",
"337 394 CURVE SMOOTH",
"337 457 OFFCURVE",
"301 519 OFFCURVE",
"225 519 CURVE SMOOTH",
"128 519 OFFCURVE",
"60 414 OFFCURVE",
"60 276 CURVE SMOOTH",
"60 104 OFFCURVE",
"168 -14 OFFCURVE",
"305 -14 CURVE SMOOTH",
"407 -14 OFFCURVE",
"473 42 OFFCURVE",
"473 150 CURVE SMOOTH",
"473 229 OFFCURVE",
"461 284 OFFCURVE",
"461 339 CURVE SMOOTH",
"461 396 OFFCURVE",
"492 441 OFFCURVE",
"551 441 CURVE SMOOTH",
"605 441 OFFCURVE",
"639 406 OFFCURVE",
"639 339 CURVE SMOOTH",
"639 276 OFFCURVE",
"634 220 OFFCURVE",
"634 150 CURVE SMOOTH",
"634 65 OFFCURVE",
"675 -14 OFFCURVE",
"779 -14 CURVE"
);
}
);
width = 1414;
}
);
unicode = 0C8A;
userData = {
public.markColor = "0.97,1,0,1";
};
},
{
color = 4;
glyphname = knvR;
lastChange = "2016-01-17 18:56:06 +0000";
layers = (
{
layerId = "034236B8-3FA8-43DA-9EDA-EFF269A687EC";
name = Regular;
paths = (
{
closed = 1;
nodes = (
"972 -14 OFFCURVE",
"1052 95 OFFCURVE",
"1052 242 CURVE SMOOTH",
"1052 415 OFFCURVE",
"956 513 OFFCURVE",
"886 513 CURVE SMOOTH",
"854 513 OFFCURVE",
"837 493 OFFCURVE",
"837 470 CURVE SMOOTH",
"837 451 OFFCURVE",
"849 435 OFFCURVE",
"865 430 CURVE SMOOTH",
"888 423 OFFCURVE",
"909 428 OFFCURVE",
"930 421 CURVE SMOOTH",
"970 407 OFFCURVE",
"1017 344 OFFCURVE",
"1017 255 CURVE SMOOTH",
"1017 137 OFFCURVE",
"947 71 OFFCURVE",
"856 71 CURVE SMOOTH",
"790 71 OFFCURVE",
"737 105 OFFCURVE",
"700 207 CURVE",
"680 188 LINE",
"698 61 OFFCURVE",
"773 -14 OFFCURVE",
"863 -14 CURVE SMOOTH"
);
},
{
closed = 1;
nodes = (
"308 -15 OFFCURVE",
"388 120 OFFCURVE",
"388 251 CURVE SMOOTH",
"388 382 OFFCURVE",
"310 519 OFFCURVE",
"176 519 CURVE SMOOTH",
"96 519 OFFCURVE",
"43 471 OFFCURVE",
"43 407 CURVE SMOOTH",
"43 339 OFFCURVE",
"102 289 OFFCURVE",
"159 289 CURVE SMOOTH",
"213 289 OFFCURVE",
"257 332 OFFCURVE",
"257 405 CURVE SMOOTH",
"257 418 OFFCURVE",
"256 431 OFFCURVE",
"253 453 CURVE",
"222 470 LINE",
"225 460 OFFCURVE",
"229 439 OFFCURVE",
"229 428 CURVE SMOOTH",
"229 382 OFFCURVE",
"199 355 OFFCURVE",
"153 355 CURVE SMOOTH",
"111 355 OFFCURVE",
"80 377 OFFCURVE",
"80 405 CURVE SMOOTH",
"80 432 OFFCURVE",
"109 449 OFFCURVE",
"158 449 CURVE SMOOTH",
"266 449 OFFCURVE",
"348 365 OFFCURVE",
"348 249 CURVE SMOOTH",
"348 149 OFFCURVE",
"281 57 OFFCURVE",
"168 57 CURVE SMOOTH",
"108 57 OFFCURVE",
"78 83 OFFCURVE",
"78 112 CURVE SMOOTH",
"78 140 OFFCURVE",
"107 161 OFFCURVE",
"145 161 CURVE SMOOTH",
"196 161 OFFCURVE",
"226 122 OFFCURVE",
"226 76 CURVE SMOOTH",
"226 65 OFFCURVE",
"224 45 OFFCURVE",
"222 34 CURVE",
"250 54 LINE",
"253 72 OFFCURVE",
"254 87 OFFCURVE",
"254 99 CURVE SMOOTH",
"254 175 OFFCURVE",
"210 227 OFFCURVE",
"149 227 CURVE SMOOTH",
"89 227 OFFCURVE",
"40 176 OFFCURVE",
"40 111 CURVE SMOOTH",
"40 42 OFFCURVE",
"96 -15 OFFCURVE",
"179 -15 CURVE SMOOTH"
);
},
{
closed = 1;
nodes = (
"636 -14 OFFCURVE",
"716 95 OFFCURVE",
"716 242 CURVE SMOOTH",
"716 415 OFFCURVE",
"620 509 OFFCURVE",
"549 509 CURVE",
"569 434 LINE",
"616 411 OFFCURVE",
"681 344 OFFCURVE",
"681 244 CURVE SMOOTH",
"681 137 OFFCURVE",
"606 71 OFFCURVE",
"518 71 CURVE SMOOTH",
"454 71 OFFCURVE",
"401 105 OFFCURVE",
"364 207 CURVE",
"344 188 LINE",
"362 61 OFFCURVE",
"437 -14 OFFCURVE",
"527 -14 CURVE SMOOTH"
);
},
{
closed = 1;
nodes = (
"613 434 LINE SMOOTH",
"694 434 OFFCURVE",
"748 480 OFFCURVE",
"748 552 CURVE SMOOTH",
"748 607 OFFCURVE",
"717 648 OFFCURVE",
"674 664 CURVE",
"659 644 LINE",
"683 635 OFFCURVE",
"705 610 OFFCURVE",
"705 576 CURVE SMOOTH",
"705 536 OFFCURVE",
"674 509 OFFCURVE",
"613 509 CURVE SMOOTH",
"421 509 LINE",
"421 434 LINE"
);
}
);
width = 1112;
}
);
unicode = 0C8B;
userData = {
public.markColor = "0.97,1,0,1";
};
},
{
color = 4;
glyphname = knvRR;
lastChange = "2016-01-17 18:56:06 +0000";
layers = (
{
layerId = "034236B8-3FA8-43DA-9EDA-EFF269A687EC";
name = Regular;
paths = (
{
closed = 1;
nodes = (
"308 -15 OFFCURVE",
"388 120 OFFCURVE",
"388 251 CURVE SMOOTH",
"388 382 OFFCURVE",
"310 519 OFFCURVE",
"176 519 CURVE SMOOTH",
"96 519 OFFCURVE",
"43 471 OFFCURVE",
"43 407 CURVE SMOOTH",
"43 339 OFFCURVE",
"102 289 OFFCURVE",
"159 289 CURVE SMOOTH",
"213 289 OFFCURVE",
"257 332 OFFCURVE",
"257 405 CURVE SMOOTH",
"257 418 OFFCURVE",
"256 431 OFFCURVE",
"253 453 CURVE",
"222 470 LINE",
"225 460 OFFCURVE",
"229 439 OFFCURVE",
"229 428 CURVE SMOOTH",
"229 382 OFFCURVE",
"199 355 OFFCURVE",
"153 355 CURVE SMOOTH",
"111 355 OFFCURVE",
"80 377 OFFCURVE",
"80 405 CURVE SMOOTH",
"80 432 OFFCURVE",
"109 449 OFFCURVE",
"158 449 CURVE SMOOTH",
"266 449 OFFCURVE",
"348 365 OFFCURVE",
"348 249 CURVE SMOOTH",
"348 149 OFFCURVE",
"281 57 OFFCURVE",
"168 57 CURVE SMOOTH",
"108 57 OFFCURVE",
"78 83 OFFCURVE",
"78 112 CURVE SMOOTH",
"78 140 OFFCURVE",
"107 161 OFFCURVE",
"145 161 CURVE SMOOTH",
"196 161 OFFCURVE",
"226 122 OFFCURVE",
"226 76 CURVE SMOOTH",
"226 65 OFFCURVE",
"224 45 OFFCURVE",
"222 34 CURVE",
"250 54 LINE",
"253 72 OFFCURVE",
"254 87 OFFCURVE",
"254 99 CURVE SMOOTH",
"254 175 OFFCURVE",
"210 227 OFFCURVE",
"149 227 CURVE SMOOTH",
"89 227 OFFCURVE",
"40 176 OFFCURVE",
"40 111 CURVE SMOOTH",
"40 42 OFFCURVE",
"96 -15 OFFCURVE",
"179 -15 CURVE SMOOTH"
);
},
{
closed = 1;
nodes = (
"636 -14 OFFCURVE",
"716 95 OFFCURVE",
"716 242 CURVE SMOOTH",
"716 415 OFFCURVE",
"620 509 OFFCURVE",
"549 509 CURVE",
"569 434 LINE",
"616 411 OFFCURVE",
"681 344 OFFCURVE",
"681 244 CURVE SMOOTH",
"681 137 OFFCURVE",
"606 71 OFFCURVE",
"518 71 CURVE SMOOTH",
"454 71 OFFCURVE",
"401 105 OFFCURVE",
"364 207 CURVE",
"344 188 LINE",
"362 61 OFFCURVE",
"437 -14 OFFCURVE",
"527 -14 CURVE SMOOTH"
);
},
{
closed = 1;
nodes = (
"613 434 LINE SMOOTH",
"694 434 OFFCURVE",
"748 480 OFFCURVE",
"748 552 CURVE SMOOTH",
"748 607 OFFCURVE",
"717 648 OFFCURVE",
"674 664 CURVE",
"659 644 LINE",
"683 635 OFFCURVE",
"705 610 OFFCURVE",
"705 576 CURVE SMOOTH",
"705 536 OFFCURVE",
"674 509 OFFCURVE",
"613 509 CURVE SMOOTH",
"421 509 LINE",
"421 434 LINE"
);
},
{
closed = 1;
nodes = (
"963 -14 OFFCURVE",
"996 73 OFFCURVE",
"996 231 CURVE SMOOTH",
"996 371 OFFCURVE",
"1072 441 OFFCURVE",
"1179 441 CURVE SMOOTH",
"1294 441 OFFCURVE",
"1393 363 OFFCURVE",
"1393 235 CURVE SMOOTH",
"1393 129 OFFCURVE",
"1331 68 OFFCURVE",
"1241 68 CURVE SMOOTH",
"1168 68 OFFCURVE",
"1124 111 OFFCURVE",
"1123 169 CURVE SMOOTH",
"1122 211 OFFCURVE",
"1144 237 OFFCURVE",
"1156 237 CURVE SMOOTH",
"1161 237 OFFCURVE",
"1163 233 OFFCURVE",
"1163 227 CURVE SMOOTH",
"1163 191 OFFCURVE",
"1184 165 OFFCURVE",
"1217 165 CURVE SMOOTH",
"1252 165 OFFCURVE",
"1278 194 OFFCURVE",
"1278 229 CURVE SMOOTH",
"1278 262 OFFCURVE",
"1253 299 OFFCURVE",
"1198 299 CURVE SMOOTH",
"1126 299 OFFCURVE",
"1086 235 OFFCURVE",
"1085 157 CURVE SMOOTH",
"1086 58 OFFCURVE",
"1146 -14 OFFCURVE",
"1242 -14 CURVE SMOOTH",
"1354 -14 OFFCURVE",
"1428 92 OFFCURVE",
"1428 238 CURVE SMOOTH",
"1428 402 OFFCURVE",
"1318 519 OFFCURVE",
"1170 519 CURVE SMOOTH",
"1048 519 OFFCURVE",
"959 423 OFFCURVE",
"959 248 CURVE SMOOTH",
"959 116 OFFCURVE",
"923 71 OFFCURVE",
"855 71 CURVE SMOOTH",
"769 71 OFFCURVE",
"719 145 OFFCURVE",
"690 222 CURVE",
"686 145 LINE",
"719 62 OFFCURVE",
"786 -14 OFFCURVE",
"873 -14 CURVE SMOOTH"
);
}
);
width = 1483;
}
);
unicode = 0CE0;
userData = {
public.markColor = "0.97,1,0,1";
};
},
{
color = 4;
glyphname = knvL;
lastChange = "2016-01-17 18:56:06 +0000";
layers = (
{
layerId = "034236B8-3FA8-43DA-9EDA-EFF269A687EC";
name = Regular;
paths = (
{
closed = 1;
nodes = (
"823 -14 OFFCURVE",
"916 120 OFFCURVE",
"916 264 CURVE SMOOTH",
"916 419 OFFCURVE",
"818 509 OFFCURVE",
"733 509 CURVE SMOOTH",
"701 509 OFFCURVE",
"681 495 OFFCURVE",
"681 473 CURVE SMOOTH",
"681 456 OFFCURVE",
"692 444 OFFCURVE",
"705 437 CURVE SMOOTH",
"720 429 OFFCURVE",
"743 438 OFFCURVE",
"776 427 CURVE SMOOTH",
"826 410 OFFCURVE",
"882 353 OFFCURVE",
"882 262 CURVE SMOOTH",
"882 137 OFFCURVE",
"776 71 OFFCURVE",
"624 71 CURVE SMOOTH",
"519 71 OFFCURVE",
"464 100 OFFCURVE",
"464 152 CURVE SMOOTH",
"464 236 OFFCURVE",
"607 275 OFFCURVE",
"607 394 CURVE SMOOTH",
"607 464 OFFCURVE",
"558 519 OFFCURVE",
"486 519 CURVE SMOOTH",
"413 519 OFFCURVE",
"341 461 OFFCURVE",
"318 377 CURVE",
"316 377 LINE",
"293 461 OFFCURVE",
"228 519 OFFCURVE",
"151 519 CURVE SMOOTH",
"79 519 OFFCURVE",
"30 467 OFFCURVE",
"30 393 CURVE SMOOTH",
"30 346 OFFCURVE",
"49 308 OFFCURVE",
"87 269 CURVE",
"109 286 LINE",
"86 312 OFFCURVE",
"77 329 OFFCURVE",
"77 359 CURVE SMOOTH",
"77 402 OFFCURVE",
"108 442 OFFCURVE",
"166 442 CURVE SMOOTH",
"249 442 OFFCURVE",
"298 358 OFFCURVE",
"312 283 CURVE",
"321 283 LINE",
"334 358 OFFCURVE",
"396 442 OFFCURVE",
"484 442 CURVE SMOOTH",
"533 442 OFFCURVE",
"561 415 OFFCURVE",
"561 373 CURVE SMOOTH",
"561 278 OFFCURVE",
"417 245 OFFCURVE",
"417 126 CURVE SMOOTH",
"417 56 OFFCURVE",
"465 -14 OFFCURVE",
"619 -14 CURVE SMOOTH"
);
}
);
width = 971;
}
);
unicode = 0C8C;
userData = {
public.markColor = "0.97,1,0,1";
};
},
{
color = 4;
glyphname = knvLL;
lastChange = "2016-01-17 18:56:06 +0000";
layers = (
{
background = {
paths = (
{
closed = 1;
nodes = (
"823 -14 OFFCURVE",
"916 120 OFFCURVE",
"916 264 CURVE SMOOTH",
"916 419 OFFCURVE",
"818 509 OFFCURVE",
"733 509 CURVE SMOOTH",
"701 509 OFFCURVE",
"681 495 OFFCURVE",
"681 473 CURVE SMOOTH",
"681 456 OFFCURVE",
"692 444 OFFCURVE",
"705 437 CURVE SMOOTH",
"720 429 OFFCURVE",
"743 438 OFFCURVE",
"776 427 CURVE SMOOTH",
"826 410 OFFCURVE",
"882 353 OFFCURVE",
"882 262 CURVE SMOOTH",
"882 137 OFFCURVE",
"776 71 OFFCURVE",
"624 71 CURVE SMOOTH",
"519 71 OFFCURVE",
"464 100 OFFCURVE",
"464 152 CURVE SMOOTH",
"464 236 OFFCURVE",
"607 275 OFFCURVE",
"607 394 CURVE SMOOTH",
"607 464 OFFCURVE",
"558 519 OFFCURVE",
"486 519 CURVE SMOOTH",
"413 519 OFFCURVE",
"341 461 OFFCURVE",
"318 377 CURVE",
"316 377 LINE",
"293 461 OFFCURVE",
"228 519 OFFCURVE",
"151 519 CURVE SMOOTH",
"79 519 OFFCURVE",
"30 467 OFFCURVE",
"30 393 CURVE SMOOTH",
"30 346 OFFCURVE",
"49 308 OFFCURVE",
"87 269 CURVE",
"109 286 LINE",
"86 312 OFFCURVE",
"77 329 OFFCURVE",
"77 359 CURVE SMOOTH",
"77 402 OFFCURVE",
"108 442 OFFCURVE",
"166 442 CURVE SMOOTH",
"249 442 OFFCURVE",
"298 358 OFFCURVE",
"312 283 CURVE",
"321 283 LINE",
"334 358 OFFCURVE",
"396 442 OFFCURVE",
"484 442 CURVE SMOOTH",
"533 442 OFFCURVE",
"561 415 OFFCURVE",
"561 373 CURVE SMOOTH",
"561 278 OFFCURVE",
"417 245 OFFCURVE",
"417 126 CURVE SMOOTH",
"417 56 OFFCURVE",
"465 -14 OFFCURVE",
"619 -14 CURVE SMOOTH"
);
}
);
};
layerId = "034236B8-3FA8-43DA-9EDA-EFF269A687EC";
name = Regular;
paths = (
{
closed = 1;
nodes = (
"1241 -13 OFFCURVE",
"1315 93 OFFCURVE",
"1315 239 CURVE SMOOTH",
"1315 390 OFFCURVE",
"1245 509 OFFCURVE",
"1007 509 CURVE SMOOTH",
"730 509 LINE",
"730 434 LINE",
"1016 434 LINE SMOOTH",
"1210 434 OFFCURVE",
"1280 346 OFFCURVE",
"1280 236 CURVE SMOOTH",
"1280 130 OFFCURVE",
"1218 69 OFFCURVE",
"1128 69 CURVE SMOOTH",
"1055 69 OFFCURVE",
"1011 112 OFFCURVE",
"1010 170 CURVE SMOOTH",
"1009 212 OFFCURVE",
"1031 238 OFFCURVE",
"1043 238 CURVE SMOOTH",
"1047 238 OFFCURVE",
"1049 234 OFFCURVE",
"1049 228 CURVE SMOOTH",
"1049 192 OFFCURVE",
"1071 166 OFFCURVE",
"1104 166 CURVE SMOOTH",
"1139 166 OFFCURVE",
"1165 195 OFFCURVE",
"1165 229 CURVE SMOOTH",
"1165 263 OFFCURVE",
"1140 300 OFFCURVE",
"1085 300 CURVE SMOOTH",
"1013 300 OFFCURVE",
"973 236 OFFCURVE",
"972 158 CURVE SMOOTH",
"973 59 OFFCURVE",
"1033 -13 OFFCURVE",
"1129 -13 CURVE SMOOTH"
);
},
{
closed = 1;
nodes = (
"518 71 OFFCURVE",
"464 100 OFFCURVE",
"464 152 CURVE SMOOTH",
"464 236 OFFCURVE",
"607 275 OFFCURVE",
"607 394 CURVE SMOOTH",
"607 464 OFFCURVE",
"558 519 OFFCURVE",
"486 519 CURVE SMOOTH",
"413 519 OFFCURVE",
"341 461 OFFCURVE",
"318 377 CURVE",
"316 377 LINE",
"293 461 OFFCURVE",
"228 519 OFFCURVE",
"151 519 CURVE SMOOTH",
"79 519 OFFCURVE",
"30 467 OFFCURVE",
"30 393 CURVE SMOOTH",
"30 346 OFFCURVE",
"49 308 OFFCURVE",
"87 269 CURVE",
"109 286 LINE",
"86 312 OFFCURVE",
"77 329 OFFCURVE",
"77 359 CURVE SMOOTH",
"77 402 OFFCURVE",
"108 442 OFFCURVE",
"166 442 CURVE SMOOTH",
"249 442 OFFCURVE",
"298 358 OFFCURVE",
"312 283 CURVE",
"321 283 LINE",
"334 358 OFFCURVE",
"396 442 OFFCURVE",
"484 442 CURVE SMOOTH",
"533 442 OFFCURVE",
"561 415 OFFCURVE",
"561 373 CURVE SMOOTH",
"561 278 OFFCURVE",
"417 245 OFFCURVE",
"417 126 CURVE SMOOTH",
"417 56 OFFCURVE",
"465 -14 OFFCURVE",
"633 -14 CURVE SMOOTH",
"803 -14 OFFCURVE",
"896 105 OFFCURVE",
"896 233 CURVE SMOOTH",
"896 325 OFFCURVE",
"856 399 OFFCURVE",
"794 444 CURVE",
"733 435 LINE",
"790 418 OFFCURVE",
"861 344 OFFCURVE",
"861 244 CURVE SMOOTH",
"861 129 OFFCURVE",
"766 71 OFFCURVE",
"634 71 CURVE SMOOTH"
);
}
);
width = 1370;
}
);
unicode = 0CE1;
userData = {
public.markColor = "0.97,1,0,1";
};
},
{
color = 4;
glyphname = knE;
lastChange = "2016-01-17 18:56:06 +0000";
layers = (
{
layerId = "034236B8-3FA8-43DA-9EDA-EFF269A687EC";
name = Regular;
paths = (
{
closed = 1;
nodes = (
"243 -14 OFFCURVE",
"311 43 OFFCURVE",
"334 126 CURVE",
"336 126 LINE",
"359 43 OFFCURVE",
"427 -14 OFFCURVE",
"505 -14 CURVE SMOOTH",
"608 -14 OFFCURVE",
"670 88 OFFCURVE",
"670 211 CURVE SMOOTH",
"670 426 OFFCURVE",
"476 519 OFFCURVE",
"343 519 CURVE SMOOTH",
"308 519 OFFCURVE",
"288 496 OFFCURVE",
"288 472 CURVE SMOOTH",
"288 456 OFFCURVE",
"297 443 OFFCURVE",
"312 438 CURVE SMOOTH",
"334 431 OFFCURVE",
"354 439 OFFCURVE",
"383 439 CURVE SMOOTH",
"522 439 OFFCURVE",
"635 352 OFFCURVE",
"635 227 CURVE SMOOTH",
"635 138 OFFCURVE",
"579 71 OFFCURVE",
"501 71 CURVE SMOOTH",
"418 71 OFFCURVE",
"352 146 OFFCURVE",
"339 221 CURVE",
"330 221 LINE",
"316 145 OFFCURVE",
"251 71 OFFCURVE",
"177 71 CURVE SMOOTH",
"127 71 OFFCURVE",
"91 104 OFFCURVE",
"91 156 CURVE SMOOTH",
"91 204 OFFCURVE",
"123 227 OFFCURVE",
"164 227 CURVE SMOOTH",
"190 227 OFFCURVE",
"213 217 OFFCURVE",
"222 193 CURVE",
"238 208 LINE",
"227 250 OFFCURVE",
"203 287 OFFCURVE",
"154 287 CURVE SMOOTH",
"95 287 OFFCURVE",
"51 232 OFFCURVE",
"51 146 CURVE SMOOTH",
"51 56 OFFCURVE",
"101 -14 OFFCURVE",
"176 -14 CURVE SMOOTH"
);
}
);
width = 725;
}
);
unicode = 0C8E;
userData = {
public.markColor = "0.97,1,0,1";
};
},
{
color = 4;
glyphname = knEE;
lastChange = "2016-01-17 18:56:06 +0000";
layers = (
{
background = {
paths = (
{
closed = 0;
nodes = (
"670 311 LINE",
"670 478 OFFCURVE",
"547 622 OFFCURVE",
"373 632 CURVE",
"349 580 OFFCURVE",
"318 557 OFFCURVE",
"276 557 CURVE SMOOTH",
"225 557 OFFCURVE",
"186 592 OFFCURVE",
"186 645 CURVE SMOOTH",
"186 657 OFFCURVE",
"188 670 OFFCURVE",
"190 681 CURVE",
"169 692 LINE",
"160 666 OFFCURVE",
"153 637 OFFCURVE",
"153 609 CURVE SMOOTH",
"153 541 OFFCURVE",
"195 484 OFFCURVE",
"264 484 CURVE SMOOTH",
"320 484 OFFCURVE",
"356 521 OFFCURVE",
"383 576 CURVE",
"511 559 OFFCURVE",
"635 460 OFFCURVE",
"635 327 CURVE"
);
},
{
closed = 0;
nodes = (
"635 227 LINE",
"635 138 OFFCURVE",
"579 71 OFFCURVE",
"501 71 CURVE SMOOTH",
"418 71 OFFCURVE",
"352 146 OFFCURVE",
"339 221 CURVE",
"330 221 LINE",
"316 145 OFFCURVE",
"251 71 OFFCURVE",
"177 71 CURVE SMOOTH",
"127 71 OFFCURVE",
"91 104 OFFCURVE",
"91 156 CURVE SMOOTH",
"91 204 OFFCURVE",
"123 227 OFFCURVE",
"164 227 CURVE SMOOTH",
"190 227 OFFCURVE",
"213 217 OFFCURVE",
"222 193 CURVE",
"238 208 LINE",
"227 250 OFFCURVE",
"203 287 OFFCURVE",
"154 287 CURVE SMOOTH",
"95 287 OFFCURVE",
"51 232 OFFCURVE",
"51 146 CURVE SMOOTH",
"51 56 OFFCURVE",
"101 -14 OFFCURVE",
"176 -14 CURVE SMOOTH",
"243 -14 OFFCURVE",
"311 43 OFFCURVE",
"334 126 CURVE",
"336 126 LINE",
"359 43 OFFCURVE",
"427 -14 OFFCURVE",
"505 -14 CURVE SMOOTH",
"608 -14 OFFCURVE",
"670 88 OFFCURVE",
"670 211 CURVE"
);
}
);
};
layerId = "034236B8-3FA8-43DA-9EDA-EFF269A687EC";
name = Regular;
paths = (
{
closed = 1;
nodes = (
"635 128 OFFCURVE",
"579 71 OFFCURVE",
"501 71 CURVE SMOOTH",
"418 71 OFFCURVE",
"352 146 OFFCURVE",
"339 221 CURVE",
"330 221 LINE",
"316 145 OFFCURVE",
"251 71 OFFCURVE",
"177 71 CURVE SMOOTH",
"127 71 OFFCURVE",
"91 104 OFFCURVE",
"91 156 CURVE SMOOTH",
"91 204 OFFCURVE",
"123 227 OFFCURVE",
"164 227 CURVE SMOOTH",
"190 227 OFFCURVE",
"213 217 OFFCURVE",
"222 193 CURVE",
"238 208 LINE",
"227 250 OFFCURVE",
"203 287 OFFCURVE",
"154 287 CURVE SMOOTH",
"95 287 OFFCURVE",
"51 232 OFFCURVE",
"51 146 CURVE SMOOTH",
"51 56 OFFCURVE",
"101 -14 OFFCURVE",
"176 -14 CURVE SMOOTH",
"243 -14 OFFCURVE",
"311 43 OFFCURVE",
"334 126 CURVE",
"336 126 LINE",
"359 43 OFFCURVE",
"427 -14 OFFCURVE",
"505 -14 CURVE SMOOTH",
"608 -14 OFFCURVE",
"670 78 OFFCURVE",
"670 231 CURVE",
"670 498 OFFCURVE",
"547 622 OFFCURVE",
"373 632 CURVE",
"349 580 OFFCURVE",
"318 557 OFFCURVE",
"276 557 CURVE SMOOTH",
"225 557 OFFCURVE",
"186 592 OFFCURVE",
"186 645 CURVE SMOOTH",
"186 657 OFFCURVE",
"188 670 OFFCURVE",
"190 681 CURVE",
"169 692 LINE",
"160 666 OFFCURVE",
"153 637 OFFCURVE",
"153 609 CURVE SMOOTH",
"153 541 OFFCURVE",
"195 484 OFFCURVE",
"264 484 CURVE SMOOTH",
"320 484 OFFCURVE",
"356 521 OFFCURVE",
"383 576 CURVE",
"511 559 OFFCURVE",
"635 470 OFFCURVE",
"635 247 CURVE"
);
}
);
width = 725;
}
);
unicode = 0C8F;
userData = {
public.markColor = "0.97,1,0,1";
};
},
{
color = 4;
glyphname = knAI;
lastChange = "2016-01-17 18:56:06 +0000";
layers = (
{
layerId = "034236B8-3FA8-43DA-9EDA-EFF269A687EC";
name = Regular;
paths = (
{
closed = 1;
nodes = (
"263 -14 OFFCURVE",
"331 43 OFFCURVE",
"354 126 CURVE",
"356 126 LINE",
"379 43 OFFCURVE",
"447 -14 OFFCURVE",
"523 -14 CURVE SMOOTH",
"628 -14 OFFCURVE",
"690 88 OFFCURVE",
"690 241 CURVE SMOOTH",
"690 388 OFFCURVE",
"628 519 OFFCURVE",
"519 519 CURVE SMOOTH",
"445 519 OFFCURVE",
"378 461 OFFCURVE",
"355 377 CURVE",
"353 377 LINE",
"330 461 OFFCURVE",
"260 519 OFFCURVE",
"191 519 CURVE SMOOTH",
"103 519 OFFCURVE",
"50 428 OFFCURVE",
"50 343 CURVE",
"73 332 LINE",
"88 399 OFFCURVE",
"125 444 OFFCURVE",
"190 444 CURVE SMOOTH",
"280 444 OFFCURVE",
"336 358 OFFCURVE",
"350 283 CURVE",
"359 283 LINE",
"371 357 OFFCURVE",
"427 444 OFFCURVE",
"515 444 CURVE SMOOTH",
"600 444 OFFCURVE",
"655 363 OFFCURVE",
"655 247 CURVE SMOOTH",
"655 138 OFFCURVE",
"599 71 OFFCURVE",
"522 71 CURVE SMOOTH",
"438 71 OFFCURVE",
"372 146 OFFCURVE",
"359 221 CURVE",
"350 221 LINE",
"336 145 OFFCURVE",
"271 71 OFFCURVE",
"198 71 CURVE SMOOTH",
"147 71 OFFCURVE",
"112 104 OFFCURVE",
"110 156 CURVE",
"112 201 OFFCURVE",
"141 227 OFFCURVE",
"182 227 CURVE SMOOTH",
"208 227 OFFCURVE",
"233 217 OFFCURVE",
"242 193 CURVE",
"258 208 LINE",
"247 250 OFFCURVE",
"223 287 OFFCURVE",
"173 287 CURVE SMOOTH",
"115 287 OFFCURVE",
"72 232 OFFCURVE",
"70 143 CURVE",
"72 56 OFFCURVE",
"121 -14 OFFCURVE",
"196 -14 CURVE SMOOTH"
);
}
);
width = 745;
}
);
unicode = 0C90;
userData = {
public.markColor = "0.97,1,0,1";
};
},
{
color = 4;
glyphname = knO;
lastChange = "2016-01-17 19:30:24 +0000";
layers = (
{
layerId = "034236B8-3FA8-43DA-9EDA-EFF269A687EC";
name = Regular;
paths = (
{
closed = 1;
nodes = (
"276 -14 OFFCURVE",
"344 43 OFFCURVE",
"367 126 CURVE",
"369 126 LINE",
"392 43 OFFCURVE",
"460 -14 OFFCURVE",
"528 -14 CURVE SMOOTH",
"594 -14 OFFCURVE",
"655 38 OFFCURVE",
"655 117 CURVE SMOOTH",
"655 172 OFFCURVE",
"626 222 OFFCURVE",
"592 251 CURVE",
"571 236 LINE",
"595 212 OFFCURVE",
"607 183 OFFCURVE",
"607 156 CURVE SMOOTH",
"607 116 OFFCURVE",
"582 71 OFFCURVE",
"525 71 CURVE SMOOTH",
"451 71 OFFCURVE",
"385 146 OFFCURVE",
"372 221 CURVE",
"363 221 LINE",
"349 145 OFFCURVE",
"284 71 OFFCURVE",
"212 71 CURVE SMOOTH",
"158 71 OFFCURVE",
"131 114 OFFCURVE",
"131 151 CURVE SMOOTH",
"131 187 OFFCURVE",
"155 223 OFFCURVE",
"189 257 CURVE SMOOTH",
"230 298 OFFCURVE",
"278 349 OFFCURVE",
"278 407 CURVE SMOOTH",
"278 465 OFFCURVE",
"230 519 OFFCURVE",
"154 519 CURVE SMOOTH",
"79 519 OFFCURVE",
"40 465 OFFCURVE",
"40 407 CURVE SMOOTH",
"40 381 OFFCURVE",
"48 352 OFFCURVE",
"69 330 CURVE",
"89 345 LINE",
"81 359 OFFCURVE",
"79 370 OFFCURVE",
"79 384 CURVE SMOOTH",
"79 421 OFFCURVE",
"102 452 OFFCURVE",
"149 452 CURVE SMOOTH",
"191 452 OFFCURVE",
"225 427 OFFCURVE",
"225 384 CURVE SMOOTH",
"225 344 OFFCURVE",
"194 311 OFFCURVE",
"162 278 CURVE SMOOTH",
"123 238 OFFCURVE",
"80 193 OFFCURVE",
"80 123 CURVE SMOOTH",
"80 38 OFFCURVE",
"141 -14 OFFCURVE",
"207 -14 CURVE SMOOTH"
);
}
);
width = 685;
}
);
unicode = 0C92;
userData = {
public.markColor = "0.97,1,0,1";
};
},
{
color = 4;
glyphname = knOO;
lastChange = "2016-01-17 18:56:06 +0000";
layers = (
{
layerId = "034236B8-3FA8-43DA-9EDA-EFF269A687EC";
name = Regular;
paths = (
{
closed = 1;
nodes = (
"200 508 LINE",
"158 537 OFFCURVE",
"140 564 OFFCURVE",
"140 601 CURVE SMOOTH",
"140 646 OFFCURVE",
"163 677 OFFCURVE",
"215 689 CURVE",
"206 711 LINE",
"122 706 OFFCURVE",
"76 660 OFFCURVE",
"76 606 CURVE SMOOTH",
"76 551 OFFCURVE",
"125 511 OFFCURVE",
"179 492 CURVE"
);
},
{
closed = 1;
nodes = (
"276 -14 OFFCURVE",
"344 43 OFFCURVE",
"367 126 CURVE",
"369 126 LINE",
"392 43 OFFCURVE",
"460 -14 OFFCURVE",
"528 -14 CURVE SMOOTH",
"594 -14 OFFCURVE",
"655 38 OFFCURVE",
"655 117 CURVE SMOOTH",
"655 172 OFFCURVE",
"626 222 OFFCURVE",
"592 251 CURVE",
"571 236 LINE",
"595 212 OFFCURVE",
"607 183 OFFCURVE",
"607 156 CURVE SMOOTH",
"607 116 OFFCURVE",
"582 71 OFFCURVE",
"525 71 CURVE SMOOTH",
"451 71 OFFCURVE",
"385 146 OFFCURVE",
"372 221 CURVE",
"363 221 LINE",
"349 145 OFFCURVE",
"284 71 OFFCURVE",
"212 71 CURVE SMOOTH",
"158 71 OFFCURVE",
"131 114 OFFCURVE",
"131 151 CURVE SMOOTH",
"131 187 OFFCURVE",
"155 223 OFFCURVE",
"189 257 CURVE SMOOTH",
"230 298 OFFCURVE",
"278 349 OFFCURVE",
"278 407 CURVE SMOOTH",
"278 465 OFFCURVE",
"230 519 OFFCURVE",
"154 519 CURVE SMOOTH",
"79 519 OFFCURVE",
"40 465 OFFCURVE",
"40 407 CURVE SMOOTH",
"40 381 OFFCURVE",
"48 352 OFFCURVE",
"69 330 CURVE",
"89 345 LINE",
"81 359 OFFCURVE",
"79 370 OFFCURVE",
"79 384 CURVE SMOOTH",
"79 421 OFFCURVE",
"102 452 OFFCURVE",
"149 452 CURVE SMOOTH",
"191 452 OFFCURVE",
"225 427 OFFCURVE",
"225 384 CURVE SMOOTH",
"225 344 OFFCURVE",
"194 311 OFFCURVE",
"162 278 CURVE SMOOTH",
"123 238 OFFCURVE",
"80 193 OFFCURVE",
"80 123 CURVE SMOOTH",
"80 38 OFFCURVE",
"141 -14 OFFCURVE",
"207 -14 CURVE SMOOTH"
);
}
);
width = 685;
}
);
unicode = 0C93;
userData = {
public.markColor = "0.97,1,0,1";
};
},
{
color = 4;
glyphname = knAU;
lastChange = "2016-01-17 18:56:06 +0000";
layers = (
{
layerId = "034236B8-3FA8-43DA-9EDA-EFF269A687EC";
name = Regular;
paths = (
{
closed = 1;
nodes = (
"585 287 OFFCURVE",
"647 364 OFFCURVE",
"647 471 CURVE SMOOTH",
"647 602 OFFCURVE",
"555 698 OFFCURVE",
"406 698 CURVE SMOOTH",
"56 698 LINE",
"56 626 LINE",
"283 626 LINE",
"284 623 OFFCURVE",
"285 618 OFFCURVE",
"285 614 CURVE SMOOTH",
"285 596 OFFCURVE",
"277 578 OFFCURVE",
"249 578 CURVE SMOOTH",
"56 578 LINE",
"56 508 LINE",
"210 508 LINE",
"231 508 LINE SMOOTH",
"285 508 OFFCURVE",
"325 541 OFFCURVE",
"325 587 CURVE SMOOTH",
"325 599 OFFCURVE",
"322 613 OFFCURVE",
"315 626 CURVE",
"406 626 LINE SMOOTH",
"533 626 OFFCURVE",
"613 561 OFFCURVE",
"613 469 CURVE SMOOTH",
"613 399 OFFCURVE",
"565 351 OFFCURVE",
"499 351 CURVE SMOOTH",
"442 351 OFFCURVE",
"405 386 OFFCURVE",
"405 434 CURVE SMOOTH",
"405 470 OFFCURVE",
"425 490 OFFCURVE",
"443 490 CURVE SMOOTH",
"447 490 OFFCURVE",
"448 488 OFFCURVE",
"448 483 CURVE SMOOTH",
"448 452 OFFCURVE",
"466 432 OFFCURVE",
"492 432 CURVE SMOOTH",
"521 432 OFFCURVE",
"542 455 OFFCURVE",
"542 482 CURVE SMOOTH",
"542 511 OFFCURVE",
"517 541 OFFCURVE",
"471 541 CURVE SMOOTH",
"416 541 OFFCURVE",
"369 495 OFFCURVE",
"369 424 CURVE SMOOTH",
"369 348 OFFCURVE",
"423 287 OFFCURVE",
"499 287 CURVE SMOOTH"
);
},
{
closed = 1;
nodes = (
"276 -14 OFFCURVE",
"344 43 OFFCURVE",
"367 126 CURVE",
"369 126 LINE",
"392 43 OFFCURVE",
"460 -14 OFFCURVE",
"528 -14 CURVE SMOOTH",
"594 -14 OFFCURVE",
"655 38 OFFCURVE",
"655 117 CURVE SMOOTH",
"655 172 OFFCURVE",
"626 222 OFFCURVE",
"592 251 CURVE",
"571 236 LINE",
"595 212 OFFCURVE",
"607 183 OFFCURVE",
"607 156 CURVE SMOOTH",
"607 116 OFFCURVE",
"582 71 OFFCURVE",
"525 71 CURVE SMOOTH",
"451 71 OFFCURVE",
"385 146 OFFCURVE",
"372 221 CURVE",
"363 221 LINE",
"349 145 OFFCURVE",
"284 71 OFFCURVE",
"212 71 CURVE SMOOTH",
"158 71 OFFCURVE",
"131 114 OFFCURVE",
"131 151 CURVE SMOOTH",
"131 187 OFFCURVE",
"155 223 OFFCURVE",
"189 257 CURVE SMOOTH",
"230 298 OFFCURVE",
"278 349 OFFCURVE",
"278 407 CURVE SMOOTH",
"278 465 OFFCURVE",
"230 519 OFFCURVE",
"154 519 CURVE SMOOTH",
"79 519 OFFCURVE",
"40 465 OFFCURVE",
"40 407 CURVE SMOOTH",
"40 381 OFFCURVE",
"48 352 OFFCURVE",
"69 330 CURVE",
"89 345 LINE",
"81 359 OFFCURVE",
"79 370 OFFCURVE",
"79 382 CURVE SMOOTH",
"79 421 OFFCURVE",
"102 452 OFFCURVE",
"149 452 CURVE SMOOTH",
"191 452 OFFCURVE",
"225 427 OFFCURVE",
"225 384 CURVE SMOOTH",
"225 344 OFFCURVE",
"194 311 OFFCURVE",
"162 278 CURVE SMOOTH",
"123 238 OFFCURVE",
"80 193 OFFCURVE",
"80 123 CURVE SMOOTH",
"80 38 OFFCURVE",
"141 -14 OFFCURVE",
"207 -14 CURVE SMOOTH"
);
}
);
width = 700;
}
);
unicode = 0C94;
userData = {
public.markColor = "0.97,1,0,1";
};
},
{
color = 4;
glyphname = knmAA;
lastChange = "2016-01-17 18:56:06 +0000";
layers = (
{
layerId = "034236B8-3FA8-43DA-9EDA-EFF269A687EC";
name = Regular;
paths = (
{
closed = 1;
nodes = (
"311 -13 OFFCURVE",
"385 93 OFFCURVE",
"385 239 CURVE SMOOTH",
"385 390 OFFCURVE",
"315 509 OFFCURVE",
"77 509 CURVE SMOOTH",
"-200 509 LINE",
"-200 434 LINE",
"86 434 LINE SMOOTH",
"280 434 OFFCURVE",
"350 346 OFFCURVE",
"350 236 CURVE SMOOTH",
"350 130 OFFCURVE",
"288 69 OFFCURVE",
"199 69 CURVE SMOOTH",
"125 69 OFFCURVE",
"81 112 OFFCURVE",
"80 170 CURVE SMOOTH",
"79 212 OFFCURVE",
"101 238 OFFCURVE",
"113 238 CURVE SMOOTH",
"118 238 OFFCURVE",
"120 234 OFFCURVE",
"120 228 CURVE SMOOTH",
"120 192 OFFCURVE",
"141 166 OFFCURVE",
"174 166 CURVE SMOOTH",
"209 166 OFFCURVE",
"235 195 OFFCURVE",
"235 229 CURVE SMOOTH",
"235 263 OFFCURVE",
"210 300 OFFCURVE",
"155 300 CURVE SMOOTH",
"83 300 OFFCURVE",
"43 236 OFFCURVE",
"42 158 CURVE SMOOTH",
"43 59 OFFCURVE",
"103 -13 OFFCURVE",
"197 -13 CURVE SMOOTH"
);
}
);
width = 445;
}
);
unicode = 0CBE;
userData = {
public.markColor = "0.97,1,0,1";
};
},
{
color = 4;
glyphname = knmI;
lastChange = "2016-01-17 18:56:06 +0000";
layers = (
{
layerId = "034236B8-3FA8-43DA-9EDA-EFF269A687EC";
name = Regular;
paths = (
{
closed = 1;
nodes = (
"181 334 OFFCURVE",
"233 400 OFFCURVE",
"233 487 CURVE SMOOTH",
"233 581 OFFCURVE",
"172 674 OFFCURVE",
"88 674 CURVE SMOOTH",
"29 674 OFFCURVE",
"-7 629 OFFCURVE",
"-7 566 CURVE SMOOTH",
"-7 499 OFFCURVE",
"33 450 OFFCURVE",
"89 451 CURVE SMOOTH",
"147 452 OFFCURVE",
"177 505 OFFCURVE",
"177 565 CURVE SMOOTH",
"177 594 OFFCURVE",
"170 612 OFFCURVE",
"159 627 CURVE",
"131 631 LINE",
"141 620 OFFCURVE",
"149 603 OFFCURVE",
"149 582 CURVE SMOOTH",
"149 550 OFFCURVE",
"130 511 OFFCURVE",
"82 511 CURVE SMOOTH",
"47 511 OFFCURVE",
"26 530 OFFCURVE",
"26 557 CURVE SMOOTH",
"26 583 OFFCURVE",
"46 608 OFFCURVE",
"89 608 CURVE SMOOTH",
"156 608 OFFCURVE",
"201 549 OFFCURVE",
"201 492 CURVE SMOOTH",
"201 431 OFFCURVE",
"151 389 OFFCURVE",
"30 375 CURVE",
"59 314 LINE"
);
}
);
width = 243;
}
);
unicode = 0CBF;
userData = {
public.markColor = "0.97,1,0,1";
};
},
{
color = 4;
glyphname = knmII;
lastChange = "2016-01-17 18:56:06 +0000";
layers = (
{
layerId = "034236B8-3FA8-43DA-9EDA-EFF269A687EC";
name = Regular;
paths = (
{
closed = 1;
nodes = (
"468 -13 LINE",
"364 72 OFFCURVE",
"305 164 OFFCURVE",
"305 263 CURVE SMOOTH",
"305 349 OFFCURVE",
"349 411 OFFCURVE",
"423 411 CURVE SMOOTH",
"468 411 OFFCURVE",
"490 389 OFFCURVE",
"490 355 CURVE SMOOTH",
"490 320 OFFCURVE",
"467 296 OFFCURVE",
"430 296 CURVE SMOOTH",
"393 296 OFFCURVE",
"366 319 OFFCURVE",
"366 367 CURVE SMOOTH",
"366 394 OFFCURVE",
"373 418 OFFCURVE",
"385 441 CURVE",
"344 419 LINE",
"338 391 OFFCURVE",
"336 374 OFFCURVE",
"336 338 CURVE SMOOTH",
"336 280 OFFCURVE",
"372 234 OFFCURVE",
"425 234 CURVE SMOOTH",
"477 234 OFFCURVE",
"520 279 OFFCURVE",
"520 356 CURVE SMOOTH",
"520 425 OFFCURVE",
"485 484 OFFCURVE",
"417 484 CURVE SMOOTH",
"324 484 OFFCURVE",
"270 373 OFFCURVE",
"270 247 CURVE SMOOTH",
"270 150 OFFCURVE",
"303 61 OFFCURVE",
"365 -13 CURVE"
);
},
{
closed = 1;
nodes = (
"181 334 OFFCURVE",
"233 400 OFFCURVE",
"233 487 CURVE SMOOTH",
"233 581 OFFCURVE",
"172 674 OFFCURVE",
"88 674 CURVE SMOOTH",
"29 674 OFFCURVE",
"-7 629 OFFCURVE",
"-7 566 CURVE SMOOTH",
"-7 499 OFFCURVE",
"33 450 OFFCURVE",
"89 451 CURVE SMOOTH",
"147 452 OFFCURVE",
"177 505 OFFCURVE",
"177 565 CURVE SMOOTH",
"177 594 OFFCURVE",
"170 612 OFFCURVE",
"159 627 CURVE",
"131 631 LINE",
"141 620 OFFCURVE",
"149 603 OFFCURVE",
"149 582 CURVE SMOOTH",
"149 550 OFFCURVE",
"130 511 OFFCURVE",
"82 511 CURVE SMOOTH",
"47 511 OFFCURVE",
"26 530 OFFCURVE",
"26 557 CURVE SMOOTH",
"26 583 OFFCURVE",
"46 608 OFFCURVE",
"89 608 CURVE SMOOTH",
"156 608 OFFCURVE",
"201 549 OFFCURVE",
"201 492 CURVE SMOOTH",
"201 431 OFFCURVE",
"151 389 OFFCURVE",
"30 375 CURVE",
"59 314 LINE"
);
}
);
width = 535;
}
);
unicode = 0CC0;
userData = {
public.markColor = "0.97,1,0,1";
};
},
{
color = 4;
glyphname = knmU;
lastChange = "2016-01-17 18:56:06 +0000";
layers = (
{
layerId = "034236B8-3FA8-43DA-9EDA-EFF269A687EC";
name = Regular;
paths = (
{
closed = 1;
nodes = (
"207 -14 OFFCURVE",
"287 95 OFFCURVE",
"287 242 CURVE SMOOTH",
"287 415 OFFCURVE",
"191 513 OFFCURVE",
"121 513 CURVE SMOOTH",
"89 513 OFFCURVE",
"72 493 OFFCURVE",
"72 470 CURVE SMOOTH",
"72 451 OFFCURVE",
"84 435 OFFCURVE",
"100 430 CURVE SMOOTH",
"123 423 OFFCURVE",
"144 428 OFFCURVE",
"165 421 CURVE SMOOTH",
"205 407 OFFCURVE",
"252 344 OFFCURVE",
"252 255 CURVE SMOOTH",
"252 137 OFFCURVE",
"182 71 OFFCURVE",
"91 71 CURVE SMOOTH",
"25 71 OFFCURVE",
"-28 105 OFFCURVE",
"-65 207 CURVE",
"-85 188 LINE",
"-67 61 OFFCURVE",
"8 -14 OFFCURVE",
"98 -14 CURVE SMOOTH"
);
}
);
width = 347;
}
);
unicode = 0CC1;
userData = {
public.markColor = "0.97,1,0,1";
};
},
{
color = 4;
glyphname = knmUU;
lastChange = "2016-01-17 18:56:06 +0000";
layers = (
{
layerId = "034236B8-3FA8-43DA-9EDA-EFF269A687EC";
name = Regular;
paths = (
{
closed = 1;
nodes = (
"193 -14 OFFCURVE",
"226 73 OFFCURVE",
"226 231 CURVE SMOOTH",
"226 371 OFFCURVE",
"302 441 OFFCURVE",
"409 441 CURVE SMOOTH",
"524 441 OFFCURVE",
"623 363 OFFCURVE",
"623 235 CURVE SMOOTH",
"623 129 OFFCURVE",
"561 68 OFFCURVE",
"471 68 CURVE SMOOTH",
"398 68 OFFCURVE",
"354 111 OFFCURVE",
"353 169 CURVE SMOOTH",
"352 211 OFFCURVE",
"374 237 OFFCURVE",
"386 237 CURVE SMOOTH",
"391 237 OFFCURVE",
"393 233 OFFCURVE",
"393 227 CURVE SMOOTH",
"393 191 OFFCURVE",
"414 165 OFFCURVE",
"447 165 CURVE SMOOTH",
"482 165 OFFCURVE",
"508 194 OFFCURVE",
"508 229 CURVE SMOOTH",
"508 262 OFFCURVE",
"483 299 OFFCURVE",
"428 299 CURVE SMOOTH",
"356 299 OFFCURVE",
"316 235 OFFCURVE",
"315 157 CURVE SMOOTH",
"316 58 OFFCURVE",
"376 -14 OFFCURVE",
"472 -14 CURVE SMOOTH",
"584 -14 OFFCURVE",
"658 92 OFFCURVE",
"658 238 CURVE SMOOTH",
"658 402 OFFCURVE",
"548 519 OFFCURVE",
"400 519 CURVE SMOOTH",
"278 519 OFFCURVE",
"189 423 OFFCURVE",
"189 248 CURVE SMOOTH",
"189 116 OFFCURVE",
"153 71 OFFCURVE",
"85 71 CURVE SMOOTH",
"-1 71 OFFCURVE",
"-51 145 OFFCURVE",
"-80 222 CURVE",
"-84 145 LINE",
"-51 62 OFFCURVE",
"16 -14 OFFCURVE",
"103 -14 CURVE SMOOTH"
);
}
);
width = 715;
}
);
unicode = 0CC2;
userData = {
public.markColor = "0.97,1,0,1";
};
},
{
color = 4;
glyphname = knmvR;
lastChange = "2016-01-17 18:56:06 +0000";
layers = (
{
background = {
paths = (
{
closed = 0;
nodes = (
"-202 -260 LINE",
"-202 -349 OFFCURVE",
"-136 -412 OFFCURVE",
"-49 -412 CURVE",
"57 -412 OFFCURVE",
"118 -314 OFFCURVE",
"118 -192 CURVE",
"118 -109 OFFCURVE",
"83 -24 OFFCURVE",
"50 23 CURVE SMOOTH",
"36 43 OFFCURVE",
"25 54 OFFCURVE",
"10 54 CURVE SMOOTH",
"-3 54 OFFCURVE",
"-13 44 OFFCURVE",
"-13 29 CURVE SMOOTH",
"-13 13 OFFCURVE",
"-4 -1 OFFCURVE",
"14 -14 CURVE SMOOTH",
"54 -44 OFFCURVE",
"93 -114 OFFCURVE",
"93 -196 CURVE",
"93 -280 OFFCURVE",
"51 -359 OFFCURVE",
"-55 -359 CURVE",
"-130 -359 OFFCURVE",
"-177 -311 OFFCURVE",
"-177 -245 CURVE"
);
},
{
closed = 0;
nodes = (
"-175 -280 LINE",
"-175 -203 OFFCURVE",
"-151 -147 OFFCURVE",
"-92 -147 CURVE SMOOTH",
"-64 -147 OFFCURVE",
"-49 -156 OFFCURVE",
"-49 -181 CURVE SMOOTH",
"-49 -203 OFFCURVE",
"-60 -217 OFFCURVE",
"-93 -217 CURVE SMOOTH",
"-125 -217 OFFCURVE",
"-140 -203 OFFCURVE",
"-140 -177 CURVE SMOOTH",
"-140 -169 OFFCURVE",
"-138 -156 OFFCURVE",
"-135 -150 CURVE",
"-128 -135 OFFCURVE",
"-132 -118 OFFCURVE",
"-141 -121 CURVE",
"-156 -163 LINE",
"-157 -178 OFFCURVE",
"-158 -187 OFFCURVE",
"-158 -193 CURVE SMOOTH",
"-158 -239 OFFCURVE",
"-130 -261 OFFCURVE",
"-88 -261 CURVE SMOOTH",
"-47 -261 OFFCURVE",
"-21 -235 OFFCURVE",
"-21 -183 CURVE SMOOTH",
"-21 -137 OFFCURVE",
"-37 -106 OFFCURVE",
"-95 -106 CURVE SMOOTH",
"-160 -106 OFFCURVE",
"-205 -187 OFFCURVE",
"-205 -287 CURVE SMOOTH"
);
}
);
};
layerId = "034236B8-3FA8-43DA-9EDA-EFF269A687EC";
name = Regular;
paths = (
{
closed = 1;
nodes = (
"-201 -346 OFFCURVE",
"-146 -412 OFFCURVE",
"-52 -412 CURVE SMOOTH",
"57 -412 OFFCURVE",
"118 -314 OFFCURVE",
"118 -194 CURVE SMOOTH",
"118 -109 OFFCURVE",
"83 -24 OFFCURVE",
"50 23 CURVE SMOOTH",
"36 43 OFFCURVE",
"25 54 OFFCURVE",
"10 54 CURVE SMOOTH",
"-3 54 OFFCURVE",
"-13 44 OFFCURVE",
"-13 29 CURVE SMOOTH",
"-13 13 OFFCURVE",
"-4 -1 OFFCURVE",
"14 -14 CURVE SMOOTH",
"54 -44 OFFCURVE",
"93 -114 OFFCURVE",
"93 -196 CURVE SMOOTH",
"93 -280 OFFCURVE",
"51 -359 OFFCURVE",
"-55 -359 CURVE SMOOTH",
"-130 -359 OFFCURVE",
"-175 -321 OFFCURVE",
"-175 -251 CURVE",
"-175 -203 OFFCURVE",
"-151 -147 OFFCURVE",
"-92 -147 CURVE SMOOTH",
"-64 -147 OFFCURVE",
"-49 -156 OFFCURVE",
"-49 -181 CURVE SMOOTH",
"-49 -203 OFFCURVE",
"-60 -217 OFFCURVE",
"-93 -217 CURVE SMOOTH",
"-125 -217 OFFCURVE",
"-140 -203 OFFCURVE",
"-140 -177 CURVE SMOOTH",
"-140 -169 OFFCURVE",
"-138 -156 OFFCURVE",
"-135 -150 CURVE",
"-145 -142 LINE",
"-156 -163 LINE",
"-157 -178 OFFCURVE",
"-158 -187 OFFCURVE",
"-158 -193 CURVE SMOOTH",
"-158 -239 OFFCURVE",
"-130 -261 OFFCURVE",
"-88 -261 CURVE SMOOTH",
"-47 -261 OFFCURVE",
"-21 -235 OFFCURVE",
"-21 -183 CURVE SMOOTH",
"-21 -137 OFFCURVE",
"-37 -106 OFFCURVE",
"-85 -106 CURVE SMOOTH",
"-160 -106 OFFCURVE",
"-201 -187 OFFCURVE",
"-201 -260 CURVE SMOOTH"
);
}
);
width = 47;
},
{
associatedMasterId = "034236B8-3FA8-43DA-9EDA-EFF269A687EC";
layerId = "6600ABAE-3FBD-4DBA-8296-B084349EF80C";
name = "Regular Jan 16 16, 18:10";
paths = (
{
closed = 1;
nodes = (
"118 -109 OFFCURVE",
"83 -24 OFFCURVE",
"50 23 CURVE SMOOTH",
"36 43 OFFCURVE",
"25 54 OFFCURVE",
"10 54 CURVE SMOOTH",
"-3 54 OFFCURVE",
"-13 44 OFFCURVE",
"-13 29 CURVE SMOOTH",
"-13 13 OFFCURVE",
"-4 -1 OFFCURVE",
"14 -14 CURVE SMOOTH",
"54 -44 OFFCURVE",
"93 -114 OFFCURVE",
"93 -196 CURVE",
"93 -280 OFFCURVE",
"51 -359 OFFCURVE",
"-55 -359 CURVE",
"-130 -359 OFFCURVE",
"-177 -311 OFFCURVE",
"-177 -245 CURVE SMOOTH",
"-177 -195 OFFCURVE",
"-142 -170 OFFCURVE",
"-111 -170 CURVE SMOOTH",
"-89 -170 OFFCURVE",
"-76 -183 OFFCURVE",
"-76 -200 CURVE SMOOTH",
"-76 -216 OFFCURVE",
"-92 -229 OFFCURVE",
"-115 -229 CURVE SMOOTH",
"-139 -229 OFFCURVE",
"-160 -212 OFFCURVE",
"-160 -191 CURVE SMOOTH",
"-160 -176 OFFCURVE",
"-159 -169 OFFCURVE",
"-156 -156 CURVE",
"-169 -167 LINE",
"-174 -173 OFFCURVE",
"-176 -183 OFFCURVE",
"-176 -202 CURVE SMOOTH",
"-176 -239 OFFCURVE",
"-148 -267 OFFCURVE",
"-112 -267 CURVE SMOOTH",
"-77 -267 OFFCURVE",
"-48 -240 OFFCURVE",
"-48 -199 CURVE SMOOTH",
"-48 -161 OFFCURVE",
"-74 -132 OFFCURVE",
"-110 -132 CURVE SMOOTH",
"-159 -132 OFFCURVE",
"-202 -185 OFFCURVE",
"-202 -260 CURVE SMOOTH",
"-202 -349 OFFCURVE",
"-136 -412 OFFCURVE",
"-49 -412 CURVE",
"57 -412 OFFCURVE",
"118 -314 OFFCURVE",
"118 -192 CURVE"
);
},
{
closed = 0;
nodes = (
"-180 -280 LINE SMOOTH",
"-180 -203 OFFCURVE",
"-156 -147 OFFCURVE",
"-97 -147 CURVE SMOOTH",
"-69 -147 OFFCURVE",
"-54 -156 OFFCURVE",
"-54 -181 CURVE SMOOTH",
"-54 -203 OFFCURVE",
"-65 -217 OFFCURVE",
"-98 -217 CURVE SMOOTH",
"-130 -217 OFFCURVE",
"-145 -203 OFFCURVE",
"-145 -177 CURVE SMOOTH",
"-145 -169 OFFCURVE",
"-143 -156 OFFCURVE",
"-140 -150 CURVE",
"-133 -135 OFFCURVE",
"-137 -118 OFFCURVE",
"-146 -121 CURVE",
"-161 -163 LINE",
"-162 -178 OFFCURVE",
"-163 -187 OFFCURVE",
"-163 -193 CURVE SMOOTH",
"-163 -239 OFFCURVE",
"-135 -261 OFFCURVE",
"-93 -261 CURVE SMOOTH",
"-52 -261 OFFCURVE",
"-26 -235 OFFCURVE",
"-26 -183 CURVE SMOOTH",
"-26 -137 OFFCURVE",
"-42 -106 OFFCURVE",
"-100 -106 CURVE SMOOTH",
"-165 -106 OFFCURVE",
"-210 -187 OFFCURVE",
"-210 -287 CURVE SMOOTH"
);
}
);
width = 47;
}
);
unicode = 0CC3;
userData = {
com.typemytype.robofont.layerData = {
bkgd = {
anchors = (
);
components = (
);
contours = (
);
lib = {
};
name = knmvR;
unicodes = (
);
width = 107;
};
};
public.markColor = "0.85,0.26,0.06,1";
};
},
{
color = 4;
glyphname = knmvRR;
lastChange = "2016-01-17 18:56:06 +0000";
layers = (
{
layerId = "034236B8-3FA8-43DA-9EDA-EFF269A687EC";
name = Regular;
paths = (
{
closed = 1;
nodes = (
"221 20 LINE SMOOTH",
"294 20 OFFCURVE",
"351 -30 OFFCURVE",
"351 -99 CURVE SMOOTH",
"351 -149 OFFCURVE",
"321 -181 OFFCURVE",
"270 -181 CURVE SMOOTH",
"225 -181 OFFCURVE",
"198 -160 OFFCURVE",
"198 -128 CURVE SMOOTH",
"198 -101 OFFCURVE",
"205 -82 OFFCURVE",
"212 -82 CURVE SMOOTH",
"215 -82 OFFCURVE",
"216 -84 OFFCURVE",
"216 -87 CURVE SMOOTH",
"216 -109 OFFCURVE",
"229 -124 OFFCURVE",
"248 -124 CURVE SMOOTH",
"269 -124 OFFCURVE",
"284 -107 OFFCURVE",
"284 -87 CURVE SMOOTH",
"284 -66 OFFCURVE",
"269 -45 OFFCURVE",
"235 -45 CURVE SMOOTH",
"190 -45 OFFCURVE",
"168 -84 OFFCURVE",
"168 -131 CURVE SMOOTH",
"168 -190 OFFCURVE",
"207 -231 OFFCURVE",
"263 -231 CURVE SMOOTH",
"323 -231 OFFCURVE",
"376 -183 OFFCURVE",
"376 -95 CURVE SMOOTH",
"376 19 OFFCURVE",
"286 60 OFFCURVE",
"204 60 CURVE SMOOTH",
"1 60 LINE",
"-4 46 LINE",
"40 14 OFFCURVE",
"93 -94 OFFCURVE",
"93 -196 CURVE SMOOTH",
"93 -280 OFFCURVE",
"51 -359 OFFCURVE",
"-55 -359 CURVE SMOOTH",
"-130 -359 OFFCURVE",
"-175 -321 OFFCURVE",
"-175 -251 CURVE SMOOTH",
"-175 -203 OFFCURVE",
"-151 -147 OFFCURVE",
"-92 -147 CURVE SMOOTH",
"-64 -147 OFFCURVE",
"-49 -156 OFFCURVE",
"-49 -181 CURVE SMOOTH",
"-49 -203 OFFCURVE",
"-60 -217 OFFCURVE",
"-93 -217 CURVE SMOOTH",
"-125 -217 OFFCURVE",
"-140 -203 OFFCURVE",
"-140 -177 CURVE SMOOTH",
"-140 -169 OFFCURVE",
"-138 -156 OFFCURVE",
"-135 -150 CURVE",
"-145 -142 LINE",
"-156 -163 LINE",
"-157 -178 OFFCURVE",
"-158 -187 OFFCURVE",
"-158 -193 CURVE SMOOTH",
"-158 -239 OFFCURVE",
"-130 -261 OFFCURVE",
"-88 -261 CURVE SMOOTH",
"-47 -261 OFFCURVE",
"-21 -235 OFFCURVE",
"-21 -183 CURVE SMOOTH",
"-21 -137 OFFCURVE",
"-37 -106 OFFCURVE",
"-85 -106 CURVE SMOOTH",
"-160 -106 OFFCURVE",
"-201 -187 OFFCURVE",
"-201 -260 CURVE SMOOTH",
"-201 -346 OFFCURVE",
"-146 -412 OFFCURVE",
"-52 -412 CURVE SMOOTH",
"57 -412 OFFCURVE",
"118 -314 OFFCURVE",
"118 -194 CURVE SMOOTH",
"118 -89 OFFCURVE",
"70 -3 OFFCURVE",
"52 20 CURVE"
);
}
);
width = 331;
}
);
unicode = 0CC4;
userData = {
public.markColor = "0.85,0.26,0.06,1";
};
},
{
color = 4;
glyphname = knmvL;
lastChange = "2016-01-17 18:56:06 +0000";
layers = (
{
anchors = (
{
name = _bottom;
position = "{0, 0}";
}
);
background = {
paths = (
{
closed = 0;
nodes = (
"222 -246 LINE",
"222 -300 OFFCURVE",
"180 -359 OFFCURVE",
"67 -359 CURVE",
"20 -359 OFFCURVE",
"-21 -347 OFFCURVE",
"-21 -308 CURVE SMOOTH",
"-21 -285 OFFCURVE",
"-4 -270 OFFCURVE",
"16 -255 CURVE SMOOTH",
"39 -235 OFFCURVE",
"64 -215 OFFCURVE",
"64 -167 CURVE SMOOTH",
"64 -118 OFFCURVE",
"37 -76 OFFCURVE",
"-16 -76 CURVE SMOOTH",
"-66 -76 OFFCURVE",
"-106 -113 OFFCURVE",
"-122 -166 CURVE",
"-125 -166 LINE",
"-141 -113 OFFCURVE",
"-181 -76 OFFCURVE",
"-232 -76 CURVE SMOOTH",
"-284 -76 OFFCURVE",
"-311 -115 OFFCURVE",
"-311 -165 CURVE SMOOTH",
"-311 -183 OFFCURVE",
"-308 -202 OFFCURVE",
"-294 -220 CURVE",
"-272 -204 LINE",
"-277 -194 OFFCURVE",
"-280 -184 OFFCURVE",
"-280 -173 CURVE SMOOTH",
"-280 -144 OFFCURVE",
"-261 -124 OFFCURVE",
"-229 -124 CURVE SMOOTH",
"-176 -124 OFFCURVE",
"-139 -178 OFFCURVE",
"-130 -225 CURVE",
"-118 -225 LINE",
"-109 -178 OFFCURVE",
"-72 -124 OFFCURVE",
"-21 -124 CURVE SMOOTH",
"15 -124 OFFCURVE",
"33 -151 OFFCURVE",
"33 -178 CURVE SMOOTH",
"33 -205 OFFCURVE",
"16 -220 OFFCURVE",
"-3 -235 CURVE SMOOTH",
"-25 -254 OFFCURVE",
"-49 -275 OFFCURVE",
"-49 -321 CURVE SMOOTH",
"-49 -369 OFFCURVE",
"-21 -412 OFFCURVE",
"67 -412 CURVE",
"186 -412 OFFCURVE",
"247 -334 OFFCURVE",
"247 -251 CURVE"
);
},
{
closed = 0;
nodes = (
"268 -324 LINE",
"268 -239 OFFCURVE",
"233 -154 OFFCURVE",
"200 -107 CURVE SMOOTH",
"186 -87 OFFCURVE",
"175 -76 OFFCURVE",
"160 -76 CURVE SMOOTH",
"147 -76 OFFCURVE",
"137 -86 OFFCURVE",
"137 -101 CURVE SMOOTH",
"137 -117 OFFCURVE",
"146 -131 OFFCURVE",
"164 -144 CURVE SMOOTH",
"204 -174 OFFCURVE",
"243 -244 OFFCURVE",
"243 -326 CURVE"
);
}
);
};
layerId = "034236B8-3FA8-43DA-9EDA-EFF269A687EC";
name = Regular;
paths = (
{
closed = 1;
nodes = (
"247 -216 OFFCURVE",
"240 -163 OFFCURVE",
"200 -107 CURVE SMOOTH",
"186 -87 OFFCURVE",
"175 -76 OFFCURVE",
"160 -76 CURVE SMOOTH",
"146 -76 OFFCURVE",
"137 -86 OFFCURVE",
"137 -101 CURVE SMOOTH",
"137 -117 OFFCURVE",
"146 -131 OFFCURVE",
"164 -144 CURVE SMOOTH",
"200 -170 OFFCURVE",
"222 -214 OFFCURVE",
"222 -254 CURVE SMOOTH",
"222 -310 OFFCURVE",
"180 -359 OFFCURVE",
"75 -359 CURVE SMOOTH",
"20 -359 OFFCURVE",
"-21 -347 OFFCURVE",
"-21 -308 CURVE SMOOTH",
"-21 -285 OFFCURVE",
"-4 -270 OFFCURVE",
"16 -255 CURVE SMOOTH",
"39 -235 OFFCURVE",
"64 -215 OFFCURVE",
"64 -167 CURVE SMOOTH",
"64 -118 OFFCURVE",
"37 -76 OFFCURVE",
"-16 -76 CURVE SMOOTH",
"-66 -76 OFFCURVE",
"-106 -113 OFFCURVE",
"-122 -166 CURVE",
"-125 -166 LINE",
"-141 -113 OFFCURVE",
"-181 -76 OFFCURVE",
"-232 -76 CURVE SMOOTH",
"-284 -76 OFFCURVE",
"-311 -115 OFFCURVE",
"-311 -165 CURVE SMOOTH",
"-311 -183 OFFCURVE",
"-308 -202 OFFCURVE",
"-294 -220 CURVE",
"-272 -204 LINE",
"-277 -194 OFFCURVE",
"-280 -184 OFFCURVE",
"-280 -173 CURVE SMOOTH",
"-280 -144 OFFCURVE",
"-261 -124 OFFCURVE",
"-229 -124 CURVE SMOOTH",
"-176 -124 OFFCURVE",
"-139 -178 OFFCURVE",
"-130 -225 CURVE",
"-118 -225 LINE",
"-109 -178 OFFCURVE",
"-72 -124 OFFCURVE",
"-21 -124 CURVE SMOOTH",
"15 -124 OFFCURVE",
"33 -151 OFFCURVE",
"33 -178 CURVE SMOOTH",
"33 -205 OFFCURVE",
"16 -220 OFFCURVE",
"-3 -235 CURVE SMOOTH",
"-25 -254 OFFCURVE",
"-49 -275 OFFCURVE",
"-49 -321 CURVE SMOOTH",
"-49 -369 OFFCURVE",
"-21 -412 OFFCURVE",
"67 -412 CURVE SMOOTH",
"186 -412 OFFCURVE",
"247 -344 OFFCURVE",
"247 -248 CURVE SMOOTH"
);
}
);
width = 0;
}
);
unicode = 0CE2;
userData = {
public.markColor = "0.97,1,0,1";
};
},
{
color = 4;
glyphname = knmvLL;
lastChange = "2016-01-17 18:56:06 +0000";
layers = (
{
anchors = (
{
name = _bottom;
position = "{51, 0}";
}
);
layerId = "034236B8-3FA8-43DA-9EDA-EFF269A687EC";
name = Regular;
paths = (
{
closed = 1;
nodes = (
"474 -382 OFFCURVE",
"517 -320 OFFCURVE",
"517 -234 CURVE SMOOTH",
"517 -146 OFFCURVE",
"477 -76 OFFCURVE",
"337 -76 CURVE SMOOTH",
"153 -76 LINE",
"195 -120 LINE",
"342 -120 LINE SMOOTH",
"455 -120 OFFCURVE",
"497 -172 OFFCURVE",
"497 -236 CURVE SMOOTH",
"497 -297 OFFCURVE",
"460 -333 OFFCURVE",
"408 -333 CURVE SMOOTH",
"365 -333 OFFCURVE",
"340 -308 OFFCURVE",
"339 -274 CURVE SMOOTH",
"339 -250 OFFCURVE",
"351 -235 OFFCURVE",
"358 -235 CURVE SMOOTH",
"361 -235 OFFCURVE",
"362 -237 OFFCURVE",
"362 -241 CURVE",
"362 -262 OFFCURVE",
"374 -277 OFFCURVE",
"394 -277 CURVE SMOOTH",
"414 -277 OFFCURVE",
"429 -260 OFFCURVE",
"428 -239 CURVE SMOOTH",
"429 -220 OFFCURVE",
"415 -198 OFFCURVE",
"383 -198 CURVE SMOOTH",
"340 -198 OFFCURVE",
"317 -236 OFFCURVE",
"316 -282 CURVE SMOOTH",
"317 -340 OFFCURVE",
"352 -382 OFFCURVE",
"408 -382 CURVE SMOOTH"
);
},
{
closed = 1;
nodes = (
"64 -118 OFFCURVE",
"37 -76 OFFCURVE",
"-16 -76 CURVE SMOOTH",
"-66 -76 OFFCURVE",
"-106 -113 OFFCURVE",
"-122 -166 CURVE",
"-125 -166 LINE",
"-141 -113 OFFCURVE",
"-181 -76 OFFCURVE",
"-232 -76 CURVE SMOOTH",
"-284 -76 OFFCURVE",
"-311 -115 OFFCURVE",
"-311 -165 CURVE SMOOTH",
"-311 -183 OFFCURVE",
"-308 -202 OFFCURVE",
"-294 -220 CURVE",
"-272 -204 LINE",
"-277 -194 OFFCURVE",
"-280 -184 OFFCURVE",
"-280 -173 CURVE SMOOTH",
"-280 -144 OFFCURVE",
"-261 -124 OFFCURVE",
"-229 -124 CURVE SMOOTH",
"-176 -124 OFFCURVE",
"-139 -178 OFFCURVE",
"-130 -225 CURVE",
"-118 -225 LINE",
"-109 -178 OFFCURVE",
"-72 -124 OFFCURVE",
"-21 -124 CURVE SMOOTH",
"15 -124 OFFCURVE",
"33 -151 OFFCURVE",
"33 -178 CURVE SMOOTH",
"33 -205 OFFCURVE",
"16 -220 OFFCURVE",
"-3 -235 CURVE SMOOTH",
"-25 -254 OFFCURVE",
"-49 -275 OFFCURVE",
"-49 -321 CURVE SMOOTH",
"-49 -369 OFFCURVE",
"-21 -412 OFFCURVE",
"67 -412 CURVE SMOOTH",
"186 -412 OFFCURVE",
"247 -334 OFFCURVE",
"247 -241 CURVE SMOOTH",
"247 -164 OFFCURVE",
"207 -109 OFFCURVE",
"168 -83 CURVE",
"153 -76 LINE",
"143 -98 LINE",
"177 -113 OFFCURVE",
"222 -164 OFFCURVE",
"222 -233 CURVE SMOOTH",
"222 -300 OFFCURVE",
"180 -359 OFFCURVE",
"67 -359 CURVE SMOOTH",
"20 -359 OFFCURVE",
"-21 -347 OFFCURVE",
"-21 -308 CURVE SMOOTH",
"-21 -285 OFFCURVE",
"-4 -270 OFFCURVE",
"16 -255 CURVE SMOOTH",
"39 -235 OFFCURVE",
"64 -215 OFFCURVE",
"64 -167 CURVE SMOOTH"
);
}
);
width = 0;
}
);
unicode = 0CE3;
userData = {
public.markColor = "0.97,1,0,1";
};
},
{
color = 4;
glyphname = knmE;
lastChange = "2016-01-18 16:23:21 +0000";
layers = (
{
layerId = "034236B8-3FA8-43DA-9EDA-EFF269A687EC";
name = Regular;
paths = (
{
closed = 1;
nodes = (
"-101 434 OFFCURVE",
"-47 480 OFFCURVE",
"-47 557 CURVE SMOOTH",
"-47 651 OFFCURVE",
"-125 685 OFFCURVE",
"-184 685 CURVE SMOOTH",
"-237 685 OFFCURVE",
"-265 657 OFFCURVE",
"-265 623 CURVE SMOOTH",
"-265 592 OFFCURVE",
"-242 571 OFFCURVE",
"-210 571 CURVE SMOOTH",
"-174 571 OFFCURVE",
"-153 597 OFFCURVE",
"-153 633 CURVE SMOOTH",
"-153 639 OFFCURVE",
"-151 643 OFFCURVE",
"-147 643 CURVE SMOOTH",
"-134 643 OFFCURVE",
"-90 629 OFFCURVE",
"-90 578 CURVE SMOOTH",
"-90 530 OFFCURVE",
"-130 509 OFFCURVE",
"-181 509 CURVE",
"-182 434 LINE"
);
}
);
width = 0;
}
);
unicode = 0CC6;
userData = {
public.markColor = "0.97,1,0,1";
};
},
{
color = 4;
glyphname = knmEE;
lastChange = "2016-01-18 16:24:10 +0000";
layers = (
{
layerId = "034236B8-3FA8-43DA-9EDA-EFF269A687EC";
name = Regular;
paths = (
{
closed = 1;
nodes = (
"237 -15 LINE",
"236 14 LINE",
"157 91 OFFCURVE",
"113 170 OFFCURVE",
"113 259 CURVE SMOOTH",
"113 346 OFFCURVE",
"155 408 OFFCURVE",
"223 408 CURVE SMOOTH",
"263 408 OFFCURVE",
"292 386 OFFCURVE",
"292 350 CURVE SMOOTH",
"292 317 OFFCURVE",
"267 287 OFFCURVE",
"229 287 CURVE SMOOTH",
"193 287 OFFCURVE",
"175 314 OFFCURVE",
"175 350 CURVE SMOOTH",
"175 381 OFFCURVE",
"188 408 OFFCURVE",
"215 438 CURVE",
"171 420 LINE",
"161 392 OFFCURVE",
"151 361 OFFCURVE",
"151 325 CURVE SMOOTH",
"151 267 OFFCURVE",
"178 229 OFFCURVE",
"220 229 CURVE SMOOTH",
"263 229 OFFCURVE",
"320 269 OFFCURVE",
"320 352 CURVE SMOOTH",
"320 421 OFFCURVE",
"283 476 OFFCURVE",
"219 476 CURVE SMOOTH",
"128 476 OFFCURVE",
"77 363 OFFCURVE",
"77 248 CURVE SMOOTH",
"77 151 OFFCURVE",
"115 59 OFFCURVE",
"184 -15 CURVE"
);
},
{
closed = 1;
nodes = (
"-101 434 OFFCURVE",
"-47 480 OFFCURVE",
"-47 557 CURVE SMOOTH",
"-47 651 OFFCURVE",
"-125 685 OFFCURVE",
"-184 685 CURVE SMOOTH",
"-237 685 OFFCURVE",
"-265 657 OFFCURVE",
"-265 623 CURVE SMOOTH",
"-265 592 OFFCURVE",
"-242 571 OFFCURVE",
"-210 571 CURVE SMOOTH",
"-174 571 OFFCURVE",
"-153 597 OFFCURVE",
"-153 633 CURVE SMOOTH",
"-153 639 OFFCURVE",
"-151 643 OFFCURVE",
"-147 643 CURVE SMOOTH",
"-134 643 OFFCURVE",
"-90 629 OFFCURVE",
"-90 578 CURVE",
"-90 530 OFFCURVE",
"-130 509 OFFCURVE",
"-181 509 CURVE",
"-182 434 LINE"
);
}
);
width = 370;
}
);
leftMetricsKey = "=knmE";
unicode = 0CC7;
userData = {
public.markColor = "0.97,1,0,1";
};
},
{
color = 4;
glyphname = knmAI;
lastChange = "2016-01-17 18:56:06 +0000";
layers = (
{
layerId = "034236B8-3FA8-43DA-9EDA-EFF269A687EC";
name = Regular;
paths = (
{
closed = 1;
nodes = (
"60 -95 OFFCURVE",
"98 -57 OFFCURVE",
"98 -9 CURVE SMOOTH",
"98 38 OFFCURVE",
"62 68 OFFCURVE",
"9 73 CURVE",
"7 52 LINE",
"37 43 OFFCURVE",
"58 23 OFFCURVE",
"58 -11 CURVE SMOOTH",
"58 -43 OFFCURVE",
"38 -70 OFFCURVE",
"-3 -94 CURVE",
"18 -106 LINE"
);
},
{
closed = 1;
nodes = (
"78 -302 OFFCURVE",
"31 -359 OFFCURVE",
"-70 -359 CURVE SMOOTH",
"-150 -359 OFFCURVE",
"-205 -321 OFFCURVE",
"-205 -251 CURVE SMOOTH",
"-205 -203 OFFCURVE",
"-181 -147 OFFCURVE",
"-122 -147 CURVE SMOOTH",
"-94 -147 OFFCURVE",
"-79 -156 OFFCURVE",
"-79 -181 CURVE SMOOTH",
"-79 -203 OFFCURVE",
"-90 -217 OFFCURVE",
"-123 -217 CURVE SMOOTH",
"-155 -217 OFFCURVE",
"-170 -203 OFFCURVE",
"-170 -177 CURVE SMOOTH",
"-170 -169 OFFCURVE",
"-168 -156 OFFCURVE",
"-165 -150 CURVE",
"-186 -163 LINE",
"-187 -178 OFFCURVE",
"-188 -187 OFFCURVE",
"-188 -193 CURVE SMOOTH",
"-188 -239 OFFCURVE",
"-160 -261 OFFCURVE",
"-120 -261 CURVE SMOOTH",
"-77 -261 OFFCURVE",
"-51 -235 OFFCURVE",
"-51 -183 CURVE SMOOTH",
"-51 -137 OFFCURVE",
"-70 -106 OFFCURVE",
"-116 -106 CURVE SMOOTH",
"-190 -106 OFFCURVE",
"-231 -187 OFFCURVE",
"-231 -260 CURVE SMOOTH",
"-231 -346 OFFCURVE",
"-166 -412 OFFCURVE",
"-72 -412 CURVE SMOOTH",
"37 -412 OFFCURVE",
"108 -334 OFFCURVE",
"108 -238 CURVE SMOOTH",
"108 -158 OFFCURVE",
"65 -105 OFFCURVE",
"17 -94 CURVE",
"-3 -94 LINE",
"3 -110 LINE",
"43 -119 OFFCURVE",
"78 -173 OFFCURVE",
"78 -233 CURVE SMOOTH"
);
},
{
closed = 1;
nodes = (
"-121 434 OFFCURVE",
"-67 480 OFFCURVE",
"-67 557 CURVE SMOOTH",
"-67 651 OFFCURVE",
"-145 685 OFFCURVE",
"-204 685 CURVE SMOOTH",
"-257 685 OFFCURVE",
"-285 657 OFFCURVE",
"-285 623 CURVE SMOOTH",
"-285 592 OFFCURVE",
"-262 571 OFFCURVE",
"-230 571 CURVE SMOOTH",
"-194 571 OFFCURVE",
"-173 597 OFFCURVE",
"-173 633 CURVE SMOOTH",
"-173 639 OFFCURVE",
"-171 643 OFFCURVE",
"-167 643 CURVE SMOOTH",
"-154 643 OFFCURVE",
"-110 629 OFFCURVE",
"-110 578 CURVE",
"-110 530 OFFCURVE",
"-150 509 OFFCURVE",
"-201 509 CURVE",
"-202 434 LINE"
);
}
);
width = 98;
}
);
unicode = 0CC8;
userData = {
public.markColor = "0.85,0.26,0.06,1";
};
},
{
color = 4;
glyphname = knmO;
lastChange = "2016-01-17 18:56:06 +0000";
layers = (
{
layerId = "034236B8-3FA8-43DA-9EDA-EFF269A687EC";
name = Regular;
paths = (
{
closed = 1;
nodes = (
"208 -14 OFFCURVE",
"238 103 OFFCURVE",
"238 264 CURVE SMOOTH",
"238 416 OFFCURVE",
"327 437 OFFCURVE",
"385 437 CURVE SMOOTH",
"499 437 OFFCURVE",
"621 357 OFFCURVE",
"621 225 CURVE SMOOTH",
"621 140 OFFCURVE",
"571 71 OFFCURVE",
"479 71 CURVE SMOOTH",
"408 71 OFFCURVE",
"366 112 OFFCURVE",
"366 169 CURVE SMOOTH",
"366 211 OFFCURVE",
"375 237 OFFCURVE",
"387 237 CURVE SMOOTH",
"392 237 OFFCURVE",
"393 232 OFFCURVE",
"393 227 CURVE SMOOTH",
"393 191 OFFCURVE",
"415 165 OFFCURVE",
"448 165 CURVE SMOOTH",
"483 165 OFFCURVE",
"508 194 OFFCURVE",
"508 228 CURVE SMOOTH",
"508 262 OFFCURVE",
"483 299 OFFCURVE",
"426 299 CURVE SMOOTH",
"351 299 OFFCURVE",
"314 233 OFFCURVE",
"314 155 CURVE SMOOTH",
"314 56 OFFCURVE",
"377 -14 OFFCURVE",
"468 -14 CURVE SMOOTH",
"574 -14 OFFCURVE",
"660 82 OFFCURVE",
"660 238 CURVE SMOOTH",
"660 424 OFFCURVE",
"522 519 OFFCURVE",
"407 519 CURVE SMOOTH",
"312 519 OFFCURVE",
"191 456 OFFCURVE",
"191 259 CURVE SMOOTH",
"191 177 OFFCURVE",
"175 71 OFFCURVE",
"80 71 CURVE SMOOTH",
"1 71 OFFCURVE",
"-49 145 OFFCURVE",
"-78 222 CURVE",
"-100 182 LINE",
"-91 84 OFFCURVE",
"-4 -14 OFFCURVE",
"97 -14 CURVE SMOOTH"
);
},
{
closed = 1;
nodes = (
"-121 434 OFFCURVE",
"-67 480 OFFCURVE",
"-67 557 CURVE SMOOTH",
"-67 651 OFFCURVE",
"-145 685 OFFCURVE",
"-204 685 CURVE SMOOTH",
"-257 685 OFFCURVE",
"-285 657 OFFCURVE",
"-285 623 CURVE SMOOTH",
"-285 592 OFFCURVE",
"-262 571 OFFCURVE",
"-230 571 CURVE SMOOTH",
"-194 571 OFFCURVE",
"-173 597 OFFCURVE",
"-173 633 CURVE SMOOTH",
"-173 639 OFFCURVE",
"-171 643 OFFCURVE",
"-167 643 CURVE SMOOTH",
"-154 643 OFFCURVE",
"-110 629 OFFCURVE",
"-110 578 CURVE SMOOTH",
"-110 530 OFFCURVE",
"-150 509 OFFCURVE",
"-201 509 CURVE",
"-202 434 LINE"
);
}
);
width = 730;
}
);
unicode = 0CCA;
userData = {
public.markColor = "0.97,1,0,1";
};
},
{
color = 4;
glyphname = knmOO;
lastChange = "2016-01-17 18:56:06 +0000";
layers = (
{
layerId = "034236B8-3FA8-43DA-9EDA-EFF269A687EC";
name = Regular;
paths = (
{
closed = 1;
nodes = (
"208 -14 OFFCURVE",
"238 103 OFFCURVE",
"238 264 CURVE SMOOTH",
"238 416 OFFCURVE",
"327 437 OFFCURVE",
"385 437 CURVE SMOOTH",
"499 437 OFFCURVE",
"621 357 OFFCURVE",
"621 225 CURVE SMOOTH",
"621 140 OFFCURVE",
"571 71 OFFCURVE",
"479 71 CURVE SMOOTH",
"408 71 OFFCURVE",
"366 112 OFFCURVE",
"366 169 CURVE SMOOTH",
"366 211 OFFCURVE",
"375 237 OFFCURVE",
"387 237 CURVE SMOOTH",
"392 237 OFFCURVE",
"393 232 OFFCURVE",
"393 227 CURVE SMOOTH",
"393 191 OFFCURVE",
"415 165 OFFCURVE",
"448 165 CURVE SMOOTH",
"483 165 OFFCURVE",
"508 194 OFFCURVE",
"508 228 CURVE SMOOTH",
"508 262 OFFCURVE",
"483 299 OFFCURVE",
"426 299 CURVE SMOOTH",
"351 299 OFFCURVE",
"314 233 OFFCURVE",
"314 155 CURVE SMOOTH",
"314 56 OFFCURVE",
"377 -14 OFFCURVE",
"468 -14 CURVE SMOOTH",
"574 -14 OFFCURVE",
"660 82 OFFCURVE",
"660 238 CURVE SMOOTH",
"660 424 OFFCURVE",
"522 519 OFFCURVE",
"407 519 CURVE SMOOTH",
"312 519 OFFCURVE",
"191 456 OFFCURVE",
"191 259 CURVE SMOOTH",
"191 177 OFFCURVE",
"175 71 OFFCURVE",
"80 71 CURVE SMOOTH",
"1 71 OFFCURVE",
"-49 145 OFFCURVE",
"-78 222 CURVE",
"-100 182 LINE",
"-91 84 OFFCURVE",
"-4 -14 OFFCURVE",
"97 -14 CURVE SMOOTH"
);
},
{
closed = 1;
nodes = (
"-121 434 OFFCURVE",
"-67 480 OFFCURVE",
"-67 557 CURVE SMOOTH",
"-67 651 OFFCURVE",
"-145 685 OFFCURVE",
"-204 685 CURVE SMOOTH",
"-257 685 OFFCURVE",
"-285 657 OFFCURVE",
"-285 623 CURVE SMOOTH",
"-285 592 OFFCURVE",
"-262 571 OFFCURVE",
"-230 571 CURVE SMOOTH",
"-194 571 OFFCURVE",
"-173 597 OFFCURVE",
"-173 633 CURVE SMOOTH",
"-173 639 OFFCURVE",
"-171 643 OFFCURVE",
"-167 643 CURVE SMOOTH",
"-154 643 OFFCURVE",
"-110 629 OFFCURVE",
"-110 578 CURVE SMOOTH",
"-110 530 OFFCURVE",
"-150 509 OFFCURVE",
"-201 509 CURVE",
"-202 434 LINE"
);
},
{
closed = 1;
nodes = (
"927 -15 LINE",
"926 14 LINE",
"847 91 OFFCURVE",
"803 170 OFFCURVE",
"803 259 CURVE SMOOTH",
"803 346 OFFCURVE",
"845 408 OFFCURVE",
"913 408 CURVE SMOOTH",
"953 408 OFFCURVE",
"982 386 OFFCURVE",
"982 350 CURVE SMOOTH",
"982 317 OFFCURVE",
"957 287 OFFCURVE",
"919 287 CURVE SMOOTH",
"883 287 OFFCURVE",
"865 314 OFFCURVE",
"865 350 CURVE SMOOTH",
"865 381 OFFCURVE",
"878 408 OFFCURVE",
"905 438 CURVE",
"861 420 LINE",
"851 392 OFFCURVE",
"841 361 OFFCURVE",
"841 325 CURVE SMOOTH",
"841 267 OFFCURVE",
"868 229 OFFCURVE",
"910 229 CURVE SMOOTH",
"953 229 OFFCURVE",
"1010 269 OFFCURVE",
"1010 352 CURVE SMOOTH",
"1010 421 OFFCURVE",
"973 476 OFFCURVE",
"909 476 CURVE SMOOTH",
"818 476 OFFCURVE",
"767 363 OFFCURVE",
"767 248 CURVE SMOOTH",
"767 151 OFFCURVE",
"805 59 OFFCURVE",
"874 -15 CURVE"
);
}
);
width = 1060;
}
);
unicode = 0CCB;
userData = {
public.markColor = "0.97,1,0,1";
};
},
{
color = 4;
glyphname = knmAU;
lastChange = "2016-01-17 18:56:06 +0000";
layers = (
{
layerId = "034236B8-3FA8-43DA-9EDA-EFF269A687EC";
name = Regular;
paths = (
{
closed = 1;
nodes = (
"280 186 OFFCURVE",
"354 292 OFFCURVE",
"354 438 CURVE SMOOTH",
"354 601 OFFCURVE",
"265 709 OFFCURVE",
"45 709 CURVE SMOOTH",
"-300 709 LINE",
"-300 634 LINE",
"66 634 LINE SMOOTH",
"221 634 OFFCURVE",
"319 555 OFFCURVE",
"319 435 CURVE SMOOTH",
"319 329 OFFCURVE",
"257 268 OFFCURVE",
"167 268 CURVE SMOOTH",
"94 268 OFFCURVE",
"50 311 OFFCURVE",
"49 369 CURVE SMOOTH",
"48 411 OFFCURVE",
"70 437 OFFCURVE",
"82 437 CURVE SMOOTH",
"87 437 OFFCURVE",
"89 433 OFFCURVE",
"88 427 CURVE",
"89 391 OFFCURVE",
"110 365 OFFCURVE",
"143 365 CURVE SMOOTH",
"178 365 OFFCURVE",
"204 394 OFFCURVE",
"203 430 CURVE SMOOTH",
"204 462 OFFCURVE",
"179 499 OFFCURVE",
"124 499 CURVE SMOOTH",
"52 499 OFFCURVE",
"12 435 OFFCURVE",
"11 357 CURVE SMOOTH",
"12 258 OFFCURVE",
"72 186 OFFCURVE",
"168 186 CURVE SMOOTH"
);
},
{
closed = 1;
nodes = (
"-199 434 LINE SMOOTH",
"-118 434 OFFCURVE",
"-64 480 OFFCURVE",
"-64 552 CURVE SMOOTH",
"-64 607 OFFCURVE",
"-95 648 OFFCURVE",
"-138 664 CURVE",
"-153 644 LINE",
"-129 635 OFFCURVE",
"-107 610 OFFCURVE",
"-107 576 CURVE SMOOTH",
"-107 536 OFFCURVE",
"-138 509 OFFCURVE",
"-199 509 CURVE SMOOTH",
"-220 509 LINE",
"-220 434 LINE"
);
}
);
width = 429;
}
);
unicode = 0CCC;
userData = {
public.markColor = "0.97,1,0,1";
};
},
{
color = 4;
glyphname = knLengthmark;
lastChange = "2016-01-17 18:56:06 +0000";
layers = (
{
layerId = "034236B8-3FA8-43DA-9EDA-EFF269A687EC";
name = Regular;
paths = (
{
closed = 1;
nodes = (
"248 -13 LINE",
"144 72 OFFCURVE",
"85 164 OFFCURVE",
"85 243 CURVE SMOOTH",
"85 349 OFFCURVE",
"129 411 OFFCURVE",
"199 411 CURVE SMOOTH",
"248 411 OFFCURVE",
"270 389 OFFCURVE",
"270 353 CURVE SMOOTH",
"270 320 OFFCURVE",
"247 296 OFFCURVE",
"206 296 CURVE SMOOTH",
"173 296 OFFCURVE",
"146 319 OFFCURVE",
"146 360 CURVE SMOOTH",
"146 394 OFFCURVE",
"149 411 OFFCURVE",
"165 441 CURVE",
"124 419 LINE",
"118 391 OFFCURVE",
"116 374 OFFCURVE",
"116 338 CURVE SMOOTH",
"116 280 OFFCURVE",
"152 234 OFFCURVE",
"206 234 CURVE SMOOTH",
"257 234 OFFCURVE",
"300 279 OFFCURVE",
"300 352 CURVE SMOOTH",
"300 425 OFFCURVE",
"265 484 OFFCURVE",
"195 484 CURVE SMOOTH",
"104 484 OFFCURVE",
"50 373 OFFCURVE",
"50 247 CURVE SMOOTH",
"50 150 OFFCURVE",
"83 61 OFFCURVE",
"145 -13 CURVE"
);
}
);
width = 345;
}
);
unicode = 0CD5;
userData = {
public.markColor = "0.97,1,0,1";
};
},
{
color = 4;
glyphname = knAIlengthmark;
lastChange = "2016-01-17 18:56:06 +0000";
layers = (
{
layerId = "034236B8-3FA8-43DA-9EDA-EFF269A687EC";
name = Regular;
paths = (
{
closed = 1;
nodes = (
"60 -95 OFFCURVE",
"98 -57 OFFCURVE",
"98 -9 CURVE SMOOTH",
"98 38 OFFCURVE",
"62 68 OFFCURVE",
"9 73 CURVE",
"7 52 LINE",
"37 43 OFFCURVE",
"58 23 OFFCURVE",
"58 -11 CURVE SMOOTH",
"58 -43 OFFCURVE",
"38 -70 OFFCURVE",
"-3 -94 CURVE",
"18 -106 LINE"
);
},
{
closed = 1;
nodes = (
"78 -302 OFFCURVE",
"31 -359 OFFCURVE",
"-70 -359 CURVE SMOOTH",
"-150 -359 OFFCURVE",
"-205 -321 OFFCURVE",
"-205 -251 CURVE SMOOTH",
"-205 -203 OFFCURVE",
"-181 -147 OFFCURVE",
"-122 -147 CURVE SMOOTH",
"-94 -147 OFFCURVE",
"-79 -156 OFFCURVE",
"-79 -181 CURVE SMOOTH",
"-79 -203 OFFCURVE",
"-90 -217 OFFCURVE",
"-123 -217 CURVE SMOOTH",
"-155 -217 OFFCURVE",
"-170 -203 OFFCURVE",
"-170 -177 CURVE SMOOTH",
"-170 -169 OFFCURVE",
"-168 -156 OFFCURVE",
"-165 -150 CURVE",
"-175 -142 LINE",
"-186 -163 LINE",
"-187 -178 OFFCURVE",
"-188 -187 OFFCURVE",
"-188 -193 CURVE SMOOTH",
"-188 -239 OFFCURVE",
"-160 -261 OFFCURVE",
"-120 -261 CURVE SMOOTH",
"-77 -261 OFFCURVE",
"-51 -235 OFFCURVE",
"-51 -183 CURVE SMOOTH",
"-51 -137 OFFCURVE",
"-70 -106 OFFCURVE",
"-116 -106 CURVE SMOOTH",
"-190 -106 OFFCURVE",
"-231 -187 OFFCURVE",
"-231 -260 CURVE SMOOTH",
"-231 -346 OFFCURVE",
"-166 -412 OFFCURVE",
"-72 -412 CURVE SMOOTH",
"37 -412 OFFCURVE",
"108 -334 OFFCURVE",
"108 -238 CURVE SMOOTH",
"108 -158 OFFCURVE",
"65 -105 OFFCURVE",
"17 -94 CURVE",
"-3 -94 LINE",
"3 -110 LINE",
"43 -119 OFFCURVE",
"78 -173 OFFCURVE",
"78 -233 CURVE SMOOTH"
);
}
);
width = 98;
}
);
unicode = 0CD6;
userData = {
public.markColor = "0.85,0.26,0.06,1";
};
},
{
color = 4;
glyphname = knKA;
lastChange = "2016-01-18 16:16:35 +0000";
layers = (
{
layerId = "034236B8-3FA8-43DA-9EDA-EFF269A687EC";
name = Regular;
paths = (
{
closed = 1;
nodes = (
"348 -14 OFFCURVE",
"421 64 OFFCURVE",
"421 157 CURVE SMOOTH",
"421 249 OFFCURVE",
"348 327 OFFCURVE",
"254 327 CURVE SMOOTH",
"157 327 OFFCURVE",
"84 249 OFFCURVE",
"84 157 CURVE SMOOTH",
"84 64 OFFCURVE",
"157 -14 OFFCURVE",
"254 -14 CURVE SMOOTH"
);
},
{
closed = 1;
nodes = (
"182 71 OFFCURVE",
"132 117 OFFCURVE",
"132 182 CURVE SMOOTH",
"132 252 OFFCURVE",
"191 297 OFFCURVE",
"254 297 CURVE SMOOTH",
"316 297 OFFCURVE",
"374 252 OFFCURVE",
"374 182 CURVE SMOOTH",
"374 117 OFFCURVE",
"325 71 OFFCURVE",
"254 71 CURVE SMOOTH"
);
},
{
closed = 1;
nodes = (
"198 294 LINE",
"254 306 LINE",
"313 294 LINE",
"465 294 LINE",
"465 360 LINE",
"40 360 LINE",
"40 294 LINE"
);
},
{
closed = 1;
nodes = (
"264 331 OFFCURVE",
"281 367 OFFCURVE",
"281 401 CURVE SMOOTH",
"281 435 OFFCURVE",
"264 471 OFFCURVE",
"224 488 CURVE",
"211 465 LINE",
"235 453 OFFCURVE",
"247 430 OFFCURVE",
"247 403 CURVE SMOOTH",
"247 372 OFFCURVE",
"231 350 OFFCURVE",
"207 337 CURVE",
"224 314 LINE"
);
},
{
closed = 1;
nodes = (
"330 434 LINE SMOOTH",
"412 434 OFFCURVE",
"465 480 OFFCURVE",
"465 552 CURVE SMOOTH",
"465 607 OFFCURVE",
"434 648 OFFCURVE",
"391 664 CURVE",
"376 644 LINE",
"400 635 OFFCURVE",
"422 610 OFFCURVE",
"422 576 CURVE SMOOTH",
"422 537 OFFCURVE",
"391 509 OFFCURVE",
"330 509 CURVE SMOOTH",
"40 509 LINE",
"40 434 LINE"
);
}
);
width = 505;
}
);
unicode = 0C95;
userData = {
public.markColor = "0.97,1,0,1";
};
},
{
color = 4;
glyphname = knKHA;
lastChange = "2016-01-17 18:56:06 +0000";
layers = (
{
layerId = "034236B8-3FA8-43DA-9EDA-EFF269A687EC";
name = Regular;
paths = (
{
closed = 1;
nodes = (
"348 -14 OFFCURVE",
"436 139 OFFCURVE",
"436 290 CURVE SMOOTH",
"436 445 OFFCURVE",
"357 520 OFFCURVE",
"268 520 CURVE SMOOTH",
"197 520 OFFCURVE",
"146 469 OFFCURVE",
"146 404 CURVE SMOOTH",
"146 350 OFFCURVE",
"180 300 OFFCURVE",
"236 300 CURVE SMOOTH",
"280 300 OFFCURVE",
"304 328 OFFCURVE",
"304 357 CURVE SMOOTH",
"304 385 OFFCURVE",
"283 408 OFFCURVE",
"255 408 CURVE SMOOTH",
"228 408 OFFCURVE",
"211 387 OFFCURVE",
"211 357 CURVE SMOOTH",
"211 352 OFFCURVE",
"210 351 OFFCURVE",
"207 351 CURVE SMOOTH",
"194 351 OFFCURVE",
"185 369 OFFCURVE",
"185 389 CURVE SMOOTH",
"185 426 OFFCURVE",
"217 455 OFFCURVE",
"266 455 CURVE SMOOTH",
"336 455 OFFCURVE",
"397 397 OFFCURVE",
"397 285 CURVE SMOOTH",
"397 159 OFFCURVE",
"326 71 OFFCURVE",
"202 71 CURVE SMOOTH",
"125 71 OFFCURVE",
"94 104 OFFCURVE",
"94 138 CURVE SMOOTH",
"94 167 OFFCURVE",
"117 196 OFFCURVE",
"170 196 CURVE SMOOTH",
"311 196 OFFCURVE",
"380 -14 OFFCURVE",
"528 -14 CURVE SMOOTH",
"641 -14 OFFCURVE",
"722 95 OFFCURVE",
"722 242 CURVE SMOOTH",
"722 415 OFFCURVE",
"625 513 OFFCURVE",
"555 513 CURVE SMOOTH",
"523 513 OFFCURVE",
"507 493 OFFCURVE",
"507 470 CURVE SMOOTH",
"507 451 OFFCURVE",
"518 435 OFFCURVE",
"536 430 CURVE SMOOTH",
"558 424 OFFCURVE",
"578 427 OFFCURVE",
"604 420 CURVE SMOOTH",
"640 410 OFFCURVE",
"687 344 OFFCURVE",
"687 252 CURVE SMOOTH",
"687 137 OFFCURVE",
"616 71 OFFCURVE",
"530 71 CURVE SMOOTH",
"381 71 OFFCURVE",
"312 231 OFFCURVE",
"168 231 CURVE SMOOTH",
"92 231 OFFCURVE",
"40 187 OFFCURVE",
"40 119 CURVE SMOOTH",
"40 46 OFFCURVE",
"100 -14 OFFCURVE",
"194 -14 CURVE SMOOTH"
);
}
);
width = 783;
}
);
unicode = 0C96;
userData = {
public.markColor = "0.97,1,0,1";
};
},
{
color = 4;
glyphname = knGA;
lastChange = "2016-01-17 18:56:06 +0000";
layers = (
{
layerId = "034236B8-3FA8-43DA-9EDA-EFF269A687EC";
name = Regular;
paths = (
{
closed = 1;
nodes = (
"133 0 LINE",
"133 78 LINE SMOOTH",
"133 247 OFFCURVE",
"187 438 OFFCURVE",
"292 438 CURVE SMOOTH",
"397 438 OFFCURVE",
"451 247 OFFCURVE",
"451 78 CURVE SMOOTH",
"451 0 LINE",
"529 0 LINE",
"529 51 LINE SMOOTH",
"529 186 OFFCURVE",
"466 388 OFFCURVE",
"363 449 CURVE",
"292 465 LINE",
"221 449 LINE",
"118 388 OFFCURVE",
"55 186 OFFCURVE",
"55 51 CURVE SMOOTH",
"55 0 LINE"
);
},
{
closed = 1;
nodes = (
"227 434 LINE",
"292 444 LINE",
"358 434 LINE",
"388 434 LINE SMOOTH",
"469 434 OFFCURVE",
"523 480 OFFCURVE",
"523 552 CURVE SMOOTH",
"523 607 OFFCURVE",
"492 648 OFFCURVE",
"449 664 CURVE",
"434 644 LINE",
"458 635 OFFCURVE",
"480 610 OFFCURVE",
"480 576 CURVE SMOOTH",
"480 536 OFFCURVE",
"449 509 OFFCURVE",
"388 509 CURVE SMOOTH",
"60 509 LINE",
"60 434 LINE"
);
}
);
width = 584;
}
);
unicode = 0C97;
userData = {
public.markColor = "0.97,1,0,1";
};
},
{
color = 4;
glyphname = knGHA;
lastChange = "2016-01-17 18:56:06 +0000";
layers = (
{
layerId = "034236B8-3FA8-43DA-9EDA-EFF269A687EC";
name = Regular;
paths = (
{
closed = 1;
nodes = (
"251 -14 OFFCURVE",
"321 43 OFFCURVE",
"344 126 CURVE",
"346 126 LINE",
"369 43 OFFCURVE",
"438 -14 OFFCURVE",
"507 -14 CURVE SMOOTH",
"598 -14 OFFCURVE",
"635 84 OFFCURVE",
"635 174 CURVE SMOOTH",
"635 251 OFFCURVE",
"618 335 OFFCURVE",
"585 390 CURVE",
"562 372 LINE",
"582 330 OFFCURVE",
"599 270 OFFCURVE",
"599 202 CURVE SMOOTH",
"599 141 OFFCURVE",
"569 71 OFFCURVE",
"500 71 CURVE SMOOTH",
"428 71 OFFCURVE",
"363 145 OFFCURVE",
"349 221 CURVE",
"340 221 LINE",
"326 145 OFFCURVE",
"261 71 OFFCURVE",
"186 71 CURVE SMOOTH",
"135 71 OFFCURVE",
"100 104 OFFCURVE",
"100 155 CURVE SMOOTH",
"100 201 OFFCURVE",
"129 227 OFFCURVE",
"170 227 CURVE SMOOTH",
"196 227 OFFCURVE",
"221 217 OFFCURVE",
"232 193 CURVE",
"248 208 LINE",
"235 250 OFFCURVE",
"211 287 OFFCURVE",
"162 287 CURVE SMOOTH",
"103 287 OFFCURVE",
"60 232 OFFCURVE",
"60 147 CURVE SMOOTH",
"60 56 OFFCURVE",
"109 -14 OFFCURVE",
"183 -14 CURVE SMOOTH"
);
},
{
closed = 1;
nodes = (
"370 -220 OFFCURVE",
"395 -201 OFFCURVE",
"395 -161 CURVE SMOOTH",
"395 -117 OFFCURVE",
"366 -104 OFFCURVE",
"352 16 CURVE",
"336 16 LINE",
"323 -104 OFFCURVE",
"292 -117 OFFCURVE",
"292 -161 CURVE SMOOTH",
"292 -197 OFFCURVE",
"317 -220 OFFCURVE",
"345 -220 CURVE SMOOTH"
);
},
{
closed = 1;
nodes = (
"376 271 OFFCURVE",
"403 298 OFFCURVE",
"403 331 CURVE SMOOTH",
"403 363 OFFCURVE",
"376 390 OFFCURVE",
"343 390 CURVE SMOOTH",
"309 390 OFFCURVE",
"284 363 OFFCURVE",
"284 331 CURVE SMOOTH",
"284 298 OFFCURVE",
"309 271 OFFCURVE",
"343 271 CURVE SMOOTH"
);
},
{
closed = 1;
nodes = (
"551 434 LINE SMOOTH",
"632 434 OFFCURVE",
"686 480 OFFCURVE",
"686 552 CURVE SMOOTH",
"686 607 OFFCURVE",
"655 648 OFFCURVE",
"612 664 CURVE",
"597 644 LINE",
"621 635 OFFCURVE",
"643 610 OFFCURVE",
"643 576 CURVE SMOOTH",
"643 536 OFFCURVE",
"612 509 OFFCURVE",
"551 509 CURVE SMOOTH",
"60 509 LINE",
"60 434 LINE"
);
},
{
closed = 1;
nodes = (
"766 201 OFFCURVE",
"806 248 OFFCURVE",
"806 310 CURVE SMOOTH",
"806 362 OFFCURVE",
"777 411 OFFCURVE",
"715 449 CURVE",
"696 429 LINE",
"739 399 OFFCURVE",
"757 367 OFFCURVE",
"757 336 CURVE SMOOTH",
"757 301 OFFCURVE",
"734 275 OFFCURVE",
"697 275 CURVE SMOOTH",
"662 275 OFFCURVE",
"629 298 OFFCURVE",
"585 390 CURVE",
"579 372 LINE",
"619 228 OFFCURVE",
"660 201 OFFCURVE",
"706 201 CURVE SMOOTH"
);
}
);
width = 841;
}
);
unicode = 0C98;
userData = {
public.markColor = "0.97,1,0,1";
};
},
{
color = 4;
glyphname = knNGA;
lastChange = "2016-01-17 18:56:06 +0000";
layers = (
{
layerId = "034236B8-3FA8-43DA-9EDA-EFF269A687EC";
name = Regular;
paths = (
{
closed = 1;
nodes = (
"276 -14 OFFCURVE",
"344 43 OFFCURVE",
"367 126 CURVE",
"369 126 LINE",
"392 43 OFFCURVE",
"460 -14 OFFCURVE",
"528 -14 CURVE SMOOTH",
"594 -14 OFFCURVE",
"655 38 OFFCURVE",
"655 117 CURVE SMOOTH",
"655 172 OFFCURVE",
"626 222 OFFCURVE",
"592 251 CURVE",
"571 236 LINE",
"595 212 OFFCURVE",
"607 183 OFFCURVE",
"607 156 CURVE SMOOTH",
"607 116 OFFCURVE",
"582 71 OFFCURVE",
"525 71 CURVE SMOOTH",
"451 71 OFFCURVE",
"385 146 OFFCURVE",
"372 221 CURVE",
"363 221 LINE",
"349 145 OFFCURVE",
"284 71 OFFCURVE",
"212 71 CURVE SMOOTH",
"158 71 OFFCURVE",
"131 114 OFFCURVE",
"131 152 CURVE SMOOTH",
"131 187 OFFCURVE",
"155 223 OFFCURVE",
"189 257 CURVE SMOOTH",
"230 298 OFFCURVE",
"278 349 OFFCURVE",
"278 407 CURVE SMOOTH",
"278 465 OFFCURVE",
"230 519 OFFCURVE",
"154 519 CURVE SMOOTH",
"79 519 OFFCURVE",
"40 464 OFFCURVE",
"40 406 CURVE SMOOTH",
"40 380 OFFCURVE",
"48 352 OFFCURVE",
"69 330 CURVE",
"89 345 LINE",
"82 360 OFFCURVE",
"79 372 OFFCURVE",
"79 385 CURVE SMOOTH",
"79 421 OFFCURVE",
"102 452 OFFCURVE",
"149 452 CURVE SMOOTH",
"191 452 OFFCURVE",
"225 427 OFFCURVE",
"225 385 CURVE SMOOTH",
"225 344 OFFCURVE",
"194 311 OFFCURVE",
"162 278 CURVE SMOOTH",
"123 238 OFFCURVE",
"80 193 OFFCURVE",
"80 122 CURVE SMOOTH",
"80 38 OFFCURVE",
"141 -14 OFFCURVE",
"207 -14 CURVE SMOOTH"
);
},
{
closed = 1;
nodes = (
"429 278 OFFCURVE",
"452 302 OFFCURVE",
"452 331 CURVE SMOOTH",
"452 361 OFFCURVE",
"429 385 OFFCURVE",
"399 385 CURVE SMOOTH",
"369 385 OFFCURVE",
"346 361 OFFCURVE",
"346 331 CURVE SMOOTH",
"346 302 OFFCURVE",
"369 278 OFFCURVE",
"399 278 CURVE SMOOTH"
);
},
{
closed = 1;
nodes = (
"324 423 OFFCURVE",
"395 467 OFFCURVE",
"474 467 CURVE SMOOTH",
"546 467 OFFCURVE",
"587 430 OFFCURVE",
"587 378 CURVE SMOOTH",
"587 355 OFFCURVE",
"579 337 OFFCURVE",
"567 324 CURVE",
"586 308 LINE",
"609 332 OFFCURVE",
"630 360 OFFCURVE",
"630 408 CURVE SMOOTH",
"630 472 OFFCURVE",
"591 536 OFFCURVE",
"500 536 CURVE SMOOTH",
"388 536 OFFCURVE",
"288 438 OFFCURVE",
"236 346 CURVE",
"236 307 LINE"
);
}
);
width = 685;
}
);
unicode = 0C99;
userData = {
public.markColor = "0.97,1,0,1";
};
},
{
color = 4;
glyphname = knCA;
lastChange = "2016-01-17 18:56:06 +0000";
layers = (
{
layerId = "034236B8-3FA8-43DA-9EDA-EFF269A687EC";
name = Regular;
paths = (
{
closed = 1;
nodes = (
"666 294 LINE",
"666 365 LINE",
"390 365 LINE",
"390 294 LINE"
);
},
{
closed = 1;
nodes = (
"566 331 OFFCURVE",
"584 364 OFFCURVE",
"584 394 CURVE SMOOTH",
"584 430 OFFCURVE",
"557 462 OFFCURVE",
"525 479 CURVE",
"510 448 LINE",
"537 437 OFFCURVE",
"550 416 OFFCURVE",
"550 395 CURVE SMOOTH",
"550 374 OFFCURVE",
"537 354 OFFCURVE",
"510 342 CURVE",
"525 313 LINE"
);
},
{
closed = 1;
nodes = (
"542 434 LINE SMOOTH",
"623 434 OFFCURVE",
"677 480 OFFCURVE",
"677 552 CURVE SMOOTH",
"677 607 OFFCURVE",
"646 648 OFFCURVE",
"603 664 CURVE",
"588 644 LINE",
"612 635 OFFCURVE",
"634 610 OFFCURVE",
"634 576 CURVE SMOOTH",
"634 536 OFFCURVE",
"603 509 OFFCURVE",
"542 509 CURVE SMOOTH",
"390 509 LINE",
"390 434 LINE"
);
},
{
closed = 1;
nodes = (
"450 71 OFFCURVE",
"385 146 OFFCURVE",
"372 221 CURVE",
"363 221 LINE",
"349 145 OFFCURVE",
"284 71 OFFCURVE",
"212 71 CURVE SMOOTH",
"158 71 OFFCURVE",
"131 114 OFFCURVE",
"131 152 CURVE SMOOTH",
"131 187 OFFCURVE",
"155 223 OFFCURVE",
"189 257 CURVE SMOOTH",
"230 298 OFFCURVE",
"278 349 OFFCURVE",
"278 407 CURVE SMOOTH",
"278 465 OFFCURVE",
"230 519 OFFCURVE",
"154 519 CURVE SMOOTH",
"79 519 OFFCURVE",
"40 464 OFFCURVE",
"40 406 CURVE SMOOTH",
"40 380 OFFCURVE",
"48 352 OFFCURVE",
"69 330 CURVE",
"89 345 LINE",
"82 360 OFFCURVE",
"79 372 OFFCURVE",
"79 385 CURVE SMOOTH",
"79 421 OFFCURVE",
"102 452 OFFCURVE",
"149 452 CURVE SMOOTH",
"191 452 OFFCURVE",
"225 427 OFFCURVE",
"225 385 CURVE SMOOTH",
"225 344 OFFCURVE",
"194 311 OFFCURVE",
"162 278 CURVE SMOOTH",
"123 238 OFFCURVE",
"80 193 OFFCURVE",
"80 122 CURVE SMOOTH",
"80 38 OFFCURVE",
"141 -14 OFFCURVE",
"207 -14 CURVE SMOOTH",
"276 -14 OFFCURVE",
"344 43 OFFCURVE",
"367 126 CURVE",
"369 126 LINE",
"392 43 OFFCURVE",
"460 -14 OFFCURVE",
"528 -14 CURVE SMOOTH",
"594 -14 OFFCURVE",
"655 38 OFFCURVE",
"655 125 CURVE SMOOTH",
"655 195 OFFCURVE",
"609 311 OFFCURVE",
"525 327 CURVE",
"506 310 LINE",
"566 287 OFFCURVE",
"607 221 OFFCURVE",
"607 163 CURVE SMOOTH",
"607 116 OFFCURVE",
"582 71 OFFCURVE",
"524 71 CURVE SMOOTH"
);
}
);
width = 722;
}
);
unicode = 0C9A;
userData = {
public.markColor = "0.97,1,0,1";
};
},
{
color = 4;
glyphname = knCHA;
lastChange = "2016-01-17 18:56:06 +0000";
layers = (
{
layerId = "034236B8-3FA8-43DA-9EDA-EFF269A687EC";
name = Regular;
paths = (
{
closed = 1;
nodes = (
"318 -14 OFFCURVE",
"386 43 OFFCURVE",
"409 126 CURVE",
"411 126 LINE",
"434 43 OFFCURVE",
"502 -14 OFFCURVE",
"582 -14 CURVE SMOOTH",
"683 -14 OFFCURVE",
"745 78 OFFCURVE",
"745 224 CURVE SMOOTH",
"745 416 OFFCURVE",
"591 509 OFFCURVE",
"458 509 CURVE",
"498 434 LINE",
"627 434 OFFCURVE",
"706 372 OFFCURVE",
"706 237 CURVE SMOOTH",
"706 158 OFFCURVE",
"664 71 OFFCURVE",
"575 71 CURVE SMOOTH",
"493 71 OFFCURVE",
"427 146 OFFCURVE",
"414 221 CURVE",
"405 221 LINE",
"391 145 OFFCURVE",
"323 71 OFFCURVE",
"242 71 CURVE SMOOTH",
"157 71 OFFCURVE",
"100 149 OFFCURVE",
"100 263 CURVE SMOOTH",
"100 365 OFFCURVE",
"142 454 OFFCURVE",
"235 454 CURVE SMOOTH",
"273 454 OFFCURVE",
"307 440 OFFCURVE",
"307 401 CURVE SMOOTH",
"307 365 OFFCURVE",
"279 344 OFFCURVE",
"235 344 CURVE SMOOTH",
"190 344 OFFCURVE",
"159 365 OFFCURVE",
"159 408 CURVE SMOOTH",
"159 419 OFFCURVE",
"163 440 OFFCURVE",
"166 450 CURVE",
"135 429 LINE",
"132 413 OFFCURVE",
"131 398 OFFCURVE",
"131 384 CURVE SMOOTH",
"131 308 OFFCURVE",
"174 273 OFFCURVE",
"229 273 CURVE SMOOTH",
"295 273 OFFCURVE",
"337 325 OFFCURVE",
"337 394 CURVE SMOOTH",
"337 457 OFFCURVE",
"301 519 OFFCURVE",
"230 519 CURVE SMOOTH",
"128 519 OFFCURVE",
"60 392 OFFCURVE",
"60 252 CURVE SMOOTH",
"60 82 OFFCURVE",
"137 -14 OFFCURVE",
"239 -14 CURVE SMOOTH"
);
},
{
closed = 1;
nodes = (
"437 -220 OFFCURVE",
"462 -201 OFFCURVE",
"462 -161 CURVE SMOOTH",
"462 -117 OFFCURVE",
"433 -104 OFFCURVE",
"419 16 CURVE",
"403 16 LINE",
"390 -104 OFFCURVE",
"359 -117 OFFCURVE",
"359 -161 CURVE SMOOTH",
"359 -197 OFFCURVE",
"384 -220 OFFCURVE",
"412 -220 CURVE SMOOTH"
);
},
{
closed = 1;
nodes = (
"611 434 LINE SMOOTH",
"692 434 OFFCURVE",
"746 480 OFFCURVE",
"746 552 CURVE SMOOTH",
"746 607 OFFCURVE",
"715 648 OFFCURVE",
"672 664 CURVE",
"657 644 LINE",
"681 635 OFFCURVE",
"703 610 OFFCURVE",
"703 576 CURVE SMOOTH",
"703 536 OFFCURVE",
"672 509 OFFCURVE",
"611 509 CURVE SMOOTH",
"450 509 LINE",
"450 434 LINE"
);
}
);
width = 801;
}
);
unicode = 0C9B;
userData = {
public.markColor = "0.97,1,0,1";
};
},
{
color = 4;
glyphname = knJA;
lastChange = "2016-01-17 18:56:06 +0000";
layers = (
{
layerId = "034236B8-3FA8-43DA-9EDA-EFF269A687EC";
name = Regular;
paths = (
{
closed = 1;
nodes = (
"544 287 OFFCURVE",
"597 339 OFFCURVE",
"597 414 CURVE SMOOTH",
"597 458 OFFCURVE",
"575 503 OFFCURVE",
"538 536 CURVE",
"519 519 LINE",
"544 494 OFFCURVE",
"555 469 OFFCURVE",
"555 443 CURVE SMOOTH",
"555 387 OFFCURVE",
"515 360 OFFCURVE",
"461 360 CURVE SMOOTH",
"395 360 OFFCURVE",
"325 393 OFFCURVE",
"246 480 CURVE",
"214 477 LINE",
"301 356 OFFCURVE",
"387 287 OFFCURVE",
"469 287 CURVE SMOOTH"
);
},
{
closed = 1;
nodes = (
"276 -14 OFFCURVE",
"344 43 OFFCURVE",
"367 126 CURVE",
"369 126 LINE",
"392 43 OFFCURVE",
"460 -14 OFFCURVE",
"528 -14 CURVE SMOOTH",
"594 -14 OFFCURVE",
"655 38 OFFCURVE",
"655 117 CURVE SMOOTH",
"655 172 OFFCURVE",
"626 222 OFFCURVE",
"592 251 CURVE",
"571 236 LINE",
"595 212 OFFCURVE",
"607 183 OFFCURVE",
"607 156 CURVE SMOOTH",
"607 116 OFFCURVE",
"582 71 OFFCURVE",
"525 71 CURVE SMOOTH",
"451 71 OFFCURVE",
"385 146 OFFCURVE",
"372 221 CURVE",
"363 221 LINE",
"349 145 OFFCURVE",
"284 71 OFFCURVE",
"212 71 CURVE SMOOTH",
"158 71 OFFCURVE",
"131 114 OFFCURVE",
"131 152 CURVE SMOOTH",
"131 187 OFFCURVE",
"155 223 OFFCURVE",
"189 257 CURVE SMOOTH",
"230 298 OFFCURVE",
"278 349 OFFCURVE",
"278 407 CURVE SMOOTH",
"278 465 OFFCURVE",
"230 519 OFFCURVE",
"154 519 CURVE SMOOTH",
"79 519 OFFCURVE",
"40 464 OFFCURVE",
"40 406 CURVE SMOOTH",
"40 380 OFFCURVE",
"48 352 OFFCURVE",
"69 330 CURVE",
"89 345 LINE",
"82 360 OFFCURVE",
"79 372 OFFCURVE",
"79 385 CURVE SMOOTH",
"79 421 OFFCURVE",
"102 452 OFFCURVE",
"149 452 CURVE SMOOTH",
"191 452 OFFCURVE",
"225 427 OFFCURVE",
"225 385 CURVE SMOOTH",
"225 344 OFFCURVE",
"194 311 OFFCURVE",
"162 278 CURVE SMOOTH",
"123 238 OFFCURVE",
"80 193 OFFCURVE",
"80 122 CURVE SMOOTH",
"80 38 OFFCURVE",
"141 -14 OFFCURVE",
"207 -14 CURVE SMOOTH"
);
}
);
width = 695;
}
);
unicode = 0C9C;
userData = {
public.markColor = "0.97,1,0,1";
};
},
{
color = 4;
glyphname = knJHA;
lastChange = "2016-01-18 16:19:13 +0000";
layers = (
{
layerId = "034236B8-3FA8-43DA-9EDA-EFF269A687EC";
name = Regular;
paths = (
{
closed = 1;
nodes = (
"416 -14 OFFCURVE",
"510 86 OFFCURVE",
"510 226 CURVE SMOOTH",
"510 315 OFFCURVE",
"464 398 OFFCURVE",
"390 436 CURVE SMOOTH",
"358 453 OFFCURVE",
"321 461 OFFCURVE",
"280 461 CURVE SMOOTH",
"239 461 OFFCURVE",
"202 453 OFFCURVE",
"170 436 CURVE SMOOTH",
"96 398 OFFCURVE",
"50 315 OFFCURVE",
"50 226 CURVE SMOOTH",
"50 86 OFFCURVE",
"144 -14 OFFCURVE",
"280 -14 CURVE SMOOTH"
);
},
{
closed = 1;
nodes = (
"170 71 OFFCURVE",
"95 144 OFFCURVE",
"95 247 CURVE SMOOTH",
"95 348 OFFCURVE",
"179 433 OFFCURVE",
"280 433 CURVE SMOOTH",
"381 433 OFFCURVE",
"465 349 OFFCURVE",
"465 248 CURVE SMOOTH",
"465 145 OFFCURVE",
"389 71 OFFCURVE",
"280 71 CURVE SMOOTH"
);
},
{
closed = 1;
nodes = (
"831 -220 OFFCURVE",
"856 -201 OFFCURVE",
"856 -161 CURVE SMOOTH",
"856 -117 OFFCURVE",
"827 -104 OFFCURVE",
"813 16 CURVE",
"797 16 LINE",
"784 -104 OFFCURVE",
"753 -117 OFFCURVE",
"753 -161 CURVE SMOOTH",
"753 -197 OFFCURVE",
"778 -220 OFFCURVE",
"805 -220 CURVE SMOOTH"
);
},
{
closed = 1;
nodes = (
"213 434 LINE",
"279 451 LINE",
"343 434 LINE",
"375 434 LINE SMOOTH",
"456 434 OFFCURVE",
"510 480 OFFCURVE",
"510 552 CURVE SMOOTH",
"510 607 OFFCURVE",
"479 648 OFFCURVE",
"436 664 CURVE",
"421 644 LINE",
"445 635 OFFCURVE",
"467 610 OFFCURVE",
"467 576 CURVE SMOOTH",
"467 536 OFFCURVE",
"436 509 OFFCURVE",
"375 509 CURVE SMOOTH",
"50 509 LINE",
"50 434 LINE"
);
},
{
closed = 1;
nodes = (
"750 -14 OFFCURVE",
"830 95 OFFCURVE",
"830 242 CURVE SMOOTH",
"830 415 OFFCURVE",
"734 513 OFFCURVE",
"664 513 CURVE SMOOTH",
"632 513 OFFCURVE",
"615 493 OFFCURVE",
"615 470 CURVE SMOOTH",
"615 451 OFFCURVE",
"627 435 OFFCURVE",
"643 430 CURVE SMOOTH",
"666 423 OFFCURVE",
"687 430 OFFCURVE",
"711 420 CURVE SMOOTH",
"747 405 OFFCURVE",
"795 344 OFFCURVE",
"795 255 CURVE SMOOTH",
"795 137 OFFCURVE",
"725 71 OFFCURVE",
"637 71 CURVE SMOOTH",
"568 71 OFFCURVE",
"515 105 OFFCURVE",
"478 207 CURVE",
"458 188 LINE",
"476 61 OFFCURVE",
"551 -14 OFFCURVE",
"637 -14 CURVE SMOOTH"
);
},
{
closed = 1;
nodes = (
"1086 -14 OFFCURVE",
"1166 95 OFFCURVE",
"1166 242 CURVE SMOOTH",
"1166 415 OFFCURVE",
"1070 513 OFFCURVE",
"999 513 CURVE SMOOTH",
"968 513 OFFCURVE",
"951 493 OFFCURVE",
"951 470 CURVE SMOOTH",
"951 451 OFFCURVE",
"963 435 OFFCURVE",
"979 430 CURVE SMOOTH",
"1002 423 OFFCURVE",
"1023 428 OFFCURVE",
"1047 420 CURVE SMOOTH",
"1084 407 OFFCURVE",
"1131 344 OFFCURVE",
"1131 255 CURVE SMOOTH",
"1131 137 OFFCURVE",
"1061 71 OFFCURVE",
"973 71 CURVE SMOOTH",
"904 71 OFFCURVE",
"851 105 OFFCURVE",
"814 207 CURVE",
"794 188 LINE",
"812 61 OFFCURVE",
"887 -14 OFFCURVE",
"973 -14 CURVE SMOOTH"
);
}
);
width = 1221;
}
);
leftMetricsKey = "=knRA";
unicode = 0C9D;
userData = {
public.markColor = "0.97,1,0,1";
};
},
{
color = 4;
glyphname = knNYA;
lastChange = "2016-01-17 18:56:06 +0000";
layers = (
{
layerId = "034236B8-3FA8-43DA-9EDA-EFF269A687EC";
name = Regular;
paths = (
{
closed = 1;
nodes = (
"915 467 OFFCURVE",
"866 519 OFFCURVE",
"794 519 CURVE SMOOTH",
"717 519 OFFCURVE",
"651 461 OFFCURVE",
"628 377 CURVE",
"622 283 LINE",
"632 283 LINE",
"646 358 OFFCURVE",
"696 442 OFFCURVE",
"779 442 CURVE SMOOTH",
"837 442 OFFCURVE",
"868 402 OFFCURVE",
"868 358 CURVE SMOOTH",
"868 340 OFFCURVE",
"863 325 OFFCURVE",
"855 317 CURVE",
"886 296 LINE",
"907 323 OFFCURVE",
"915 356 OFFCURVE",
"915 388 CURVE SMOOTH"
);
},
{
closed = 1;
nodes = (
"82 519 OFFCURVE",
"33 467 OFFCURVE",
"33 388 CURVE SMOOTH",
"33 356 OFFCURVE",
"41 323 OFFCURVE",
"62 296 CURVE",
"93 317 LINE",
"85 325 OFFCURVE",
"80 340 OFFCURVE",
"80 358 CURVE SMOOTH",
"80 402 OFFCURVE",
"111 442 OFFCURVE",
"169 442 CURVE SMOOTH",
"259 442 OFFCURVE",
"309 358 OFFCURVE",
"323 283 CURVE",
"333 283 LINE",
"345 357 OFFCURVE",
"401 441 OFFCURVE",
"485 441 CURVE SMOOTH",
"546 441 OFFCURVE",
"598 390 OFFCURVE",
"598 300 CURVE SMOOTH",
"598 164 OFFCURVE",
"485 71 OFFCURVE",
"354 71 CURVE SMOOTH",
"294 71 OFFCURVE",
"243 89 OFFCURVE",
"243 124 CURVE SMOOTH",
"243 155 OFFCURVE",
"281 184 OFFCURVE",
"346 184 CURVE SMOOTH",
"499 184 OFFCURVE",
"582 46 OFFCURVE",
"582 -45 CURVE SMOOTH",
"582 -76 OFFCURVE",
"592 -97 OFFCURVE",
"613 -97 CURVE SMOOTH",
"629 -97 OFFCURVE",
"641 -84 OFFCURVE",
"641 -53 CURVE SMOOTH",
"641 39 OFFCURVE",
"534 216 OFFCURVE",
"341 216 CURVE SMOOTH",
"247 216 OFFCURVE",
"190 168 OFFCURVE",
"190 105 CURVE SMOOTH",
"190 38 OFFCURVE",
"253 -14 OFFCURVE",
"344 -14 CURVE SMOOTH",
"500 -14 OFFCURVE",
"634 148 OFFCURVE",
"634 315 CURVE SMOOTH",
"634 442 OFFCURVE",
"581 519 OFFCURVE",
"490 519 CURVE SMOOTH",
"417 519 OFFCURVE",
"352 461 OFFCURVE",
"329 377 CURVE",
"327 377 LINE",
"304 461 OFFCURVE",
"238 519 OFFCURVE",
"156 519 CURVE SMOOTH"
);
}
);
width = 948;
}
);
unicode = 0C9E;
userData = {
public.markColor = "0.97,1,0,1";
};
},
{
color = 4;
glyphname = knTTA;
lastChange = "2016-01-17 18:56:06 +0000";
layers = (
{
layerId = "034236B8-3FA8-43DA-9EDA-EFF269A687EC";
name = Regular;
paths = (
{
closed = 1;
nodes = (
"318 -14 OFFCURVE",
"386 43 OFFCURVE",
"409 126 CURVE",
"411 126 LINE",
"434 43 OFFCURVE",
"502 -14 OFFCURVE",
"572 -14 CURVE SMOOTH",
"683 -14 OFFCURVE",
"745 78 OFFCURVE",
"745 214 CURVE SMOOTH",
"745 329 OFFCURVE",
"683 409 OFFCURVE",
"575 425 CURVE",
"545 425 LINE",
"561 386 LINE",
"659 378 OFFCURVE",
"706 302 OFFCURVE",
"706 227 CURVE SMOOTH",
"706 138 OFFCURVE",
"654 71 OFFCURVE",
"566 71 CURVE SMOOTH",
"493 71 OFFCURVE",
"427 146 OFFCURVE",
"414 221 CURVE",
"405 221 LINE",
"391 145 OFFCURVE",
"323 71 OFFCURVE",
"248 71 CURVE SMOOTH",
"157 71 OFFCURVE",
"100 149 OFFCURVE",
"100 252 CURVE SMOOTH",
"100 345 OFFCURVE",
"142 414 OFFCURVE",
"235 414 CURVE SMOOTH",
"273 414 OFFCURVE",
"307 400 OFFCURVE",
"307 361 CURVE SMOOTH",
"307 325 OFFCURVE",
"279 304 OFFCURVE",
"232 304 CURVE SMOOTH",
"190 304 OFFCURVE",
"159 325 OFFCURVE",
"159 368 CURVE SMOOTH",
"159 379 OFFCURVE",
"163 400 OFFCURVE",
"166 410 CURVE",
"135 389 LINE",
"132 367 OFFCURVE",
"131 354 OFFCURVE",
"131 341 CURVE SMOOTH",
"131 268 OFFCURVE",
"174 233 OFFCURVE",
"232 233 CURVE SMOOTH",
"295 233 OFFCURVE",
"337 285 OFFCURVE",
"337 351 CURVE SMOOTH",
"337 417 OFFCURVE",
"301 479 OFFCURVE",
"230 479 CURVE SMOOTH",
"128 479 OFFCURVE",
"60 372 OFFCURVE",
"60 241 CURVE SMOOTH",
"60 82 OFFCURVE",
"137 -14 OFFCURVE",
"248 -14 CURVE SMOOTH"
);
},
{
closed = 1;
nodes = (
"234 468 LINE",
"192 497 OFFCURVE",
"174 524 OFFCURVE",
"174 561 CURVE SMOOTH",
"174 606 OFFCURVE",
"197 637 OFFCURVE",
"249 649 CURVE",
"240 671 LINE",
"156 666 OFFCURVE",
"110 620 OFFCURVE",
"110 566 CURVE SMOOTH",
"110 511 OFFCURVE",
"159 471 OFFCURVE",
"213 452 CURVE"
);
},
{
closed = 1;
nodes = (
"643 441 OFFCURVE",
"703 488 OFFCURVE",
"703 554 CURVE SMOOTH",
"703 613 OFFCURVE",
"658 663 OFFCURVE",
"572 671 CURVE",
"560 651 LINE",
"613 636 OFFCURVE",
"642 602 OFFCURVE",
"642 557 CURVE SMOOTH",
"642 509 OFFCURVE",
"611 464 OFFCURVE",
"545 425 CURVE",
"577 407 LINE"
);
}
);
width = 805;
}
);
unicode = 0C9F;
userData = {
public.markColor = "0.97,1,0,1";
};
},
{
color = 4;
glyphname = knTTHA;
lastChange = "2016-01-18 16:15:53 +0000";
layers = (
{
layerId = "034236B8-3FA8-43DA-9EDA-EFF269A687EC";
name = Regular;
paths = (
{
closed = 1;
nodes = (
"416 -14 OFFCURVE",
"510 86 OFFCURVE",
"510 226 CURVE SMOOTH",
"510 315 OFFCURVE",
"464 398 OFFCURVE",
"390 436 CURVE SMOOTH",
"358 453 OFFCURVE",
"321 461 OFFCURVE",
"280 461 CURVE SMOOTH",
"239 461 OFFCURVE",
"202 453 OFFCURVE",
"170 436 CURVE SMOOTH",
"96 398 OFFCURVE",
"50 315 OFFCURVE",
"50 226 CURVE SMOOTH",
"50 86 OFFCURVE",
"144 -14 OFFCURVE",
"280 -14 CURVE SMOOTH"
);
},
{
closed = 1;
nodes = (
"170 71 OFFCURVE",
"95 144 OFFCURVE",
"95 247 CURVE SMOOTH",
"95 348 OFFCURVE",
"179 433 OFFCURVE",
"280 433 CURVE SMOOTH",
"381 433 OFFCURVE",
"465 349 OFFCURVE",
"465 248 CURVE SMOOTH",
"465 145 OFFCURVE",
"389 71 OFFCURVE",
"280 71 CURVE SMOOTH"
);
},
{
closed = 1;
nodes = (
"314 203 OFFCURVE",
"339 227 OFFCURVE",
"339 261 CURVE SMOOTH",
"339 295 OFFCURVE",
"314 321 OFFCURVE",
"280 321 CURVE SMOOTH",
"246 321 OFFCURVE",
"220 295 OFFCURVE",
"220 261 CURVE SMOOTH",
"220 227 OFFCURVE",
"246 203 OFFCURVE",
"280 203 CURVE SMOOTH"
);
},
{
closed = 1;
nodes = (
"213 434 LINE",
"279 451 LINE",
"343 434 LINE",
"375 434 LINE SMOOTH",
"456 434 OFFCURVE",
"510 480 OFFCURVE",
"510 552 CURVE SMOOTH",
"510 607 OFFCURVE",
"479 648 OFFCURVE",
"436 664 CURVE",
"421 644 LINE",
"445 635 OFFCURVE",
"467 610 OFFCURVE",
"467 576 CURVE SMOOTH",
"467 536 OFFCURVE",
"436 509 OFFCURVE",
"375 509 CURVE SMOOTH",
"50 509 LINE",
"50 434 LINE"
);
}
);
width = 560;
}
);
leftMetricsKey = "=knRA";
rightMetricsKey = "=knRA";
unicode = 0CA0;
userData = {
public.markColor = "0.97,1,0,1";
};
},
{
color = 4;
glyphname = knDDA;
lastChange = "2016-01-17 18:56:06 +0000";
layers = (
{
layerId = "034236B8-3FA8-43DA-9EDA-EFF269A687EC";
name = Regular;
paths = (
{
closed = 1;
nodes = (
"253 -14 OFFCURVE",
"321 43 OFFCURVE",
"344 126 CURVE",
"346 126 LINE",
"369 43 OFFCURVE",
"437 -14 OFFCURVE",
"508 -14 CURVE SMOOTH",
"572 -14 OFFCURVE",
"635 33 OFFCURVE",
"635 127 CURVE SMOOTH",
"635 218 OFFCURVE",
"575 355 OFFCURVE",
"466 355 CURVE SMOOTH",
"407 355 OFFCURVE",
"378 315 OFFCURVE",
"378 276 CURVE SMOOTH",
"378 229 OFFCURVE",
"420 185 OFFCURVE",
"478 185 CURVE SMOOTH",
"527 185 OFFCURVE",
"576 216 OFFCURVE",
"576 284 CURVE SMOOTH",
"576 397 OFFCURVE",
"450 467 OFFCURVE",
"345 467 CURVE SMOOTH",
"208 467 OFFCURVE",
"55 339 OFFCURVE",
"55 150 CURVE SMOOTH",
"55 33 OFFCURVE",
"117 -14 OFFCURVE",
"182 -14 CURVE SMOOTH"
);
},
{
closed = 1;
nodes = (
"138 71 OFFCURVE",
"104 114 OFFCURVE",
"104 181 CURVE SMOOTH",
"104 300 OFFCURVE",
"213 441 OFFCURVE",
"345 441 CURVE SMOOTH",
"456 441 OFFCURVE",
"544 355 OFFCURVE",
"544 299 CURVE SMOOTH",
"544 272 OFFCURVE",
"526 243 OFFCURVE",
"475 243 CURVE SMOOTH",
"434 243 OFFCURVE",
"417 262 OFFCURVE",
"417 285 CURVE SMOOTH",
"417 307 OFFCURVE",
"435 326 OFFCURVE",
"469 326 CURVE SMOOTH",
"536 326 OFFCURVE",
"589 254 OFFCURVE",
"589 177 CURVE SMOOTH",
"589 113 OFFCURVE",
"554 71 OFFCURVE",
"500 71 CURVE SMOOTH",
"429 71 OFFCURVE",
"364 145 OFFCURVE",
"350 221 CURVE",
"341 221 LINE",
"327 145 OFFCURVE",
"261 71 OFFCURVE",
"191 71 CURVE SMOOTH"
);
},
{
closed = 1;
nodes = (
"241 434 LINE",
"345 444 LINE",
"448 434 LINE",
"499 434 LINE SMOOTH",
"580 434 OFFCURVE",
"634 480 OFFCURVE",
"634 552 CURVE SMOOTH",
"634 607 OFFCURVE",
"603 648 OFFCURVE",
"560 664 CURVE",
"545 644 LINE",
"569 635 OFFCURVE",
"591 610 OFFCURVE",
"591 576 CURVE SMOOTH",
"591 536 OFFCURVE",
"560 509 OFFCURVE",
"499 509 CURVE SMOOTH",
"55 509 LINE",
"55 434 LINE"
);
}
);
width = 690;
}
);
unicode = 0CA1;
userData = {
public.markColor = "0.97,1,0,1";
};
},
{
color = 4;
glyphname = knDDHA;
lastChange = "2016-01-17 18:56:06 +0000";
layers = (
{
layerId = "034236B8-3FA8-43DA-9EDA-EFF269A687EC";
name = Regular;
paths = (
{
closed = 1;
nodes = (
"370 -220 OFFCURVE",
"395 -201 OFFCURVE",
"395 -161 CURVE SMOOTH",
"395 -117 OFFCURVE",
"366 -104 OFFCURVE",
"352 16 CURVE",
"336 16 LINE",
"323 -104 OFFCURVE",
"292 -117 OFFCURVE",
"292 -161 CURVE SMOOTH",
"292 -197 OFFCURVE",
"317 -220 OFFCURVE",
"344 -220 CURVE SMOOTH"
);
},
{
closed = 1;
nodes = (
"241 434 LINE",
"345 444 LINE",
"448 434 LINE",
"499 434 LINE SMOOTH",
"580 434 OFFCURVE",
"634 480 OFFCURVE",
"634 552 CURVE SMOOTH",
"634 607 OFFCURVE",
"603 648 OFFCURVE",
"560 664 CURVE",
"545 644 LINE",
"569 635 OFFCURVE",
"591 610 OFFCURVE",
"591 576 CURVE SMOOTH",
"591 536 OFFCURVE",
"560 509 OFFCURVE",
"499 509 CURVE SMOOTH",
"55 509 LINE",
"55 434 LINE"
);
},
{
closed = 1;
nodes = (
"253 -14 OFFCURVE",
"321 43 OFFCURVE",
"344 126 CURVE",
"346 126 LINE",
"369 43 OFFCURVE",
"437 -14 OFFCURVE",
"508 -14 CURVE SMOOTH",
"572 -14 OFFCURVE",
"635 33 OFFCURVE",
"635 127 CURVE SMOOTH",
"635 218 OFFCURVE",
"575 355 OFFCURVE",
"466 355 CURVE SMOOTH",
"407 355 OFFCURVE",
"378 315 OFFCURVE",
"378 276 CURVE SMOOTH",
"378 229 OFFCURVE",
"420 185 OFFCURVE",
"478 185 CURVE SMOOTH",
"527 185 OFFCURVE",
"576 216 OFFCURVE",
"576 284 CURVE SMOOTH",
"576 397 OFFCURVE",
"450 467 OFFCURVE",
"345 467 CURVE SMOOTH",
"208 467 OFFCURVE",
"55 339 OFFCURVE",
"55 150 CURVE SMOOTH",
"55 33 OFFCURVE",
"117 -14 OFFCURVE",
"182 -14 CURVE SMOOTH"
);
},
{
closed = 1;
nodes = (
"138 71 OFFCURVE",
"104 114 OFFCURVE",
"104 181 CURVE SMOOTH",
"104 300 OFFCURVE",
"213 441 OFFCURVE",
"345 441 CURVE SMOOTH",
"456 441 OFFCURVE",
"544 355 OFFCURVE",
"544 299 CURVE SMOOTH",
"544 272 OFFCURVE",
"526 243 OFFCURVE",
"475 243 CURVE SMOOTH",
"434 243 OFFCURVE",
"417 262 OFFCURVE",
"417 285 CURVE SMOOTH",
"417 307 OFFCURVE",
"435 326 OFFCURVE",
"469 326 CURVE SMOOTH",
"536 326 OFFCURVE",
"589 254 OFFCURVE",
"589 177 CURVE SMOOTH",
"589 113 OFFCURVE",
"554 71 OFFCURVE",
"500 71 CURVE SMOOTH",
"429 71 OFFCURVE",
"364 145 OFFCURVE",
"350 221 CURVE",
"341 221 LINE",
"327 145 OFFCURVE",
"261 71 OFFCURVE",
"191 71 CURVE SMOOTH"
);
}
);
width = 690;
}
);
unicode = 0CA2;
userData = {
public.markColor = "0.97,1,0,1";
};
},
{
color = 4;
glyphname = knNNA;
lastChange = "2016-01-17 18:56:06 +0000";
layers = (
{
layerId = "034236B8-3FA8-43DA-9EDA-EFF269A687EC";
name = Regular;
paths = (
{
closed = 1;
nodes = (
"259 -14 OFFCURVE",
"297 78 OFFCURVE",
"300 139 CURVE",
"277 151 LINE",
"256 88 OFFCURVE",
"223 66 OFFCURVE",
"180 66 CURVE SMOOTH",
"135 66 OFFCURVE",
"112 90 OFFCURVE",
"112 124 CURVE SMOOTH",
"112 172 OFFCURVE",
"156 217 OFFCURVE",
"243 231 CURVE",
"243 240 LINE",
"162 255 OFFCURVE",
"111 302 OFFCURVE",
"111 359 CURVE SMOOTH",
"111 407 OFFCURVE",
"146 441 OFFCURVE",
"201 441 CURVE SMOOTH",
"283 441 OFFCURVE",
"342 366 OFFCURVE",
"356 283 CURVE",
"365 283 LINE",
"378 365 OFFCURVE",
"443 441 OFFCURVE",
"541 441 CURVE SMOOTH",
"640 441 OFFCURVE",
"705 357 OFFCURVE",
"705 245 CURVE SMOOTH",
"705 128 OFFCURVE",
"633 71 OFFCURVE",
"557 71 CURVE SMOOTH",
"498 71 OFFCURVE",
"459 104 OFFCURVE",
"459 156 CURVE SMOOTH",
"459 201 OFFCURVE",
"488 227 OFFCURVE",
"532 227 CURVE SMOOTH",
"559 227 OFFCURVE",
"580 217 OFFCURVE",
"591 193 CURVE",
"607 208 LINE",
"594 250 OFFCURVE",
"570 287 OFFCURVE",
"520 287 CURVE SMOOTH",
"462 287 OFFCURVE",
"419 237 OFFCURVE",
"419 148 CURVE SMOOTH",
"419 51 OFFCURVE",
"481 -14 OFFCURVE",
"562 -14 CURVE SMOOTH",
"666 -14 OFFCURVE",
"740 97 OFFCURVE",
"740 235 CURVE SMOOTH",
"740 392 OFFCURVE",
"661 519 OFFCURVE",
"537 519 CURVE SMOOTH",
"453 519 OFFCURVE",
"385 461 OFFCURVE",
"362 377 CURVE",
"359 377 LINE",
"336 461 OFFCURVE",
"274 519 OFFCURVE",
"198 519 CURVE SMOOTH",
"123 519 OFFCURVE",
"65 464 OFFCURVE",
"65 389 CURVE SMOOTH",
"65 312 OFFCURVE",
"124 246 OFFCURVE",
"171 238 CURVE",
"109 217 OFFCURVE",
"65 164 OFFCURVE",
"65 100 CURVE SMOOTH",
"65 36 OFFCURVE",
"108 -14 OFFCURVE",
"172 -14 CURVE SMOOTH"
);
}
);
width = 800;
}
);
unicode = 0CA3;
userData = {
public.markColor = "0.97,1,0,1";
};
},
{
color = 4;
glyphname = knTA;
lastChange = "2016-01-17 18:56:06 +0000";
layers = (
{
layerId = "034236B8-3FA8-43DA-9EDA-EFF269A687EC";
name = Regular;
paths = (
{
closed = 1;
nodes = (
"444 -14 OFFCURVE",
"539 75 OFFCURVE",
"539 191 CURVE SMOOTH",
"539 307 OFFCURVE",
"440 380 OFFCURVE",
"322 380 CURVE SMOOTH",
"235 380 OFFCURVE",
"178 342 OFFCURVE",
"178 286 CURVE SMOOTH",
"178 230 OFFCURVE",
"234 189 OFFCURVE",
"305 189 CURVE SMOOTH",
"385 189 OFFCURVE",
"452 242 OFFCURVE",
"452 320 CURVE SMOOTH",
"452 385 OFFCURVE",
"405 437 OFFCURVE",
"359 449 CURVE",
"294 440 LINE",
"348 440 OFFCURVE",
"414 394 OFFCURVE",
"414 333 CURVE SMOOTH",
"414 279 OFFCURVE",
"367 247 OFFCURVE",
"308 247 CURVE SMOOTH",
"263 247 OFFCURVE",
"233 265 OFFCURVE",
"233 294 CURVE SMOOTH",
"233 325 OFFCURVE",
"271 344 OFFCURVE",
"327 344 CURVE SMOOTH",
"420 344 OFFCURVE",
"493 293 OFFCURVE",
"493 215 CURVE SMOOTH",
"493 139 OFFCURVE",
"422 71 OFFCURVE",
"293 71 CURVE SMOOTH",
"173 71 OFFCURVE",
"97 129 OFFCURVE",
"97 205 CURVE SMOOTH",
"97 222 OFFCURVE",
"101 240 OFFCURVE",
"108 254 CURVE",
"84 258 LINE",
"72 240 OFFCURVE",
"60 204 OFFCURVE",
"60 169 CURVE SMOOTH",
"60 76 OFFCURVE",
"145 -14 OFFCURVE",
"296 -14 CURVE SMOOTH"
);
},
{
closed = 1;
nodes = (
"394 434 LINE SMOOTH",
"475 434 OFFCURVE",
"529 480 OFFCURVE",
"529 552 CURVE SMOOTH",
"529 607 OFFCURVE",
"498 648 OFFCURVE",
"455 664 CURVE",
"440 644 LINE",
"464 635 OFFCURVE",
"486 610 OFFCURVE",
"486 576 CURVE SMOOTH",
"486 536 OFFCURVE",
"455 509 OFFCURVE",
"394 509 CURVE SMOOTH",
"73 509 LINE",
"73 434 LINE"
);
}
);
width = 594;
}
);
unicode = 0CA4;
userData = {
public.markColor = "0.97,1,0,1";
};
},
{
color = 4;
glyphname = knTHA;
lastChange = "2016-01-17 18:56:06 +0000";
layers = (
{
background = {
paths = (
{
closed = 1;
nodes = (
"253 -14 OFFCURVE",
"321 43 OFFCURVE",
"344 126 CURVE",
"346 126 LINE",
"369 43 OFFCURVE",
"437 -14 OFFCURVE",
"508 -14 CURVE SMOOTH",
"572 -14 OFFCURVE",
"635 33 OFFCURVE",
"635 127 CURVE SMOOTH",
"635 218 OFFCURVE",
"575 355 OFFCURVE",
"466 355 CURVE SMOOTH",
"407 355 OFFCURVE",
"378 315 OFFCURVE",
"378 276 CURVE SMOOTH",
"378 229 OFFCURVE",
"420 185 OFFCURVE",
"478 185 CURVE SMOOTH",
"527 185 OFFCURVE",
"576 216 OFFCURVE",
"576 284 CURVE SMOOTH",
"576 397 OFFCURVE",
"450 467 OFFCURVE",
"345 467 CURVE SMOOTH",
"208 467 OFFCURVE",
"55 339 OFFCURVE",
"55 150 CURVE SMOOTH",
"55 33 OFFCURVE",
"117 -14 OFFCURVE",
"182 -14 CURVE SMOOTH"
);
},
{
closed = 1;
nodes = (
"138 71 OFFCURVE",
"104 114 OFFCURVE",
"104 181 CURVE SMOOTH",
"104 300 OFFCURVE",
"213 441 OFFCURVE",
"345 441 CURVE SMOOTH",
"456 441 OFFCURVE",
"544 355 OFFCURVE",
"544 299 CURVE SMOOTH",
"544 272 OFFCURVE",
"526 243 OFFCURVE",
"475 243 CURVE SMOOTH",
"434 243 OFFCURVE",
"417 262 OFFCURVE",
"417 285 CURVE SMOOTH",
"417 307 OFFCURVE",
"435 326 OFFCURVE",
"469 326 CURVE SMOOTH",
"536 326 OFFCURVE",
"589 254 OFFCURVE",
"589 177 CURVE SMOOTH",
"589 113 OFFCURVE",
"554 71 OFFCURVE",
"500 71 CURVE SMOOTH",
"429 71 OFFCURVE",
"364 145 OFFCURVE",
"350 221 CURVE",
"341 221 LINE",
"327 145 OFFCURVE",
"261 71 OFFCURVE",
"191 71 CURVE SMOOTH"
);
}
);
};
layerId = "034236B8-3FA8-43DA-9EDA-EFF269A687EC";
name = Regular;
paths = (
{
closed = 1;
nodes = (
"253 -14 OFFCURVE",
"321 43 OFFCURVE",
"344 126 CURVE",
"346 126 LINE",
"369 43 OFFCURVE",
"437 -14 OFFCURVE",
"508 -14 CURVE SMOOTH",
"572 -14 OFFCURVE",
"635 33 OFFCURVE",
"635 153 CURVE SMOOTH",
"635 339 OFFCURVE",
"482 467 OFFCURVE",
"345 467 CURVE SMOOTH",
"208 467 OFFCURVE",
"55 339 OFFCURVE",
"55 151 CURVE SMOOTH",
"55 33 OFFCURVE",
"117 -14 OFFCURVE",
"182 -14 CURVE SMOOTH"
);
},
{
closed = 1;
nodes = (
"370 -220 OFFCURVE",
"395 -201 OFFCURVE",
"395 -161 CURVE SMOOTH",
"395 -117 OFFCURVE",
"366 -104 OFFCURVE",
"352 16 CURVE",
"336 16 LINE",
"323 -104 OFFCURVE",
"292 -117 OFFCURVE",
"292 -161 CURVE SMOOTH",
"292 -197 OFFCURVE",
"317 -220 OFFCURVE",
"344 -220 CURVE SMOOTH"
);
},
{
closed = 1;
nodes = (
"138 71 OFFCURVE",
"104 114 OFFCURVE",
"104 181 CURVE SMOOTH",
"104 300 OFFCURVE",
"213 441 OFFCURVE",
"345 441 CURVE SMOOTH",
"477 441 OFFCURVE",
"586 300 OFFCURVE",
"586 180 CURVE SMOOTH",
"586 114 OFFCURVE",
"552 71 OFFCURVE",
"499 71 CURVE SMOOTH",
"429 71 OFFCURVE",
"364 145 OFFCURVE",
"350 221 CURVE",
"341 221 LINE",
"327 145 OFFCURVE",
"261 71 OFFCURVE",
"191 71 CURVE SMOOTH"
);
},
{
closed = 1;
nodes = (
"379 256 OFFCURVE",
"405 282 OFFCURVE",
"405 315 CURVE SMOOTH",
"405 348 OFFCURVE",
"379 375 OFFCURVE",
"346 375 CURVE SMOOTH",
"313 375 OFFCURVE",
"287 348 OFFCURVE",
"287 315 CURVE SMOOTH",
"287 282 OFFCURVE",
"313 256 OFFCURVE",
"346 256 CURVE SMOOTH"
);
},
{
closed = 1;
nodes = (
"241 434 LINE",
"345 444 LINE",
"448 434 LINE",
"499 434 LINE SMOOTH",
"580 434 OFFCURVE",
"634 480 OFFCURVE",
"634 552 CURVE SMOOTH",
"634 607 OFFCURVE",
"603 648 OFFCURVE",
"560 664 CURVE",
"545 644 LINE",
"569 635 OFFCURVE",
"591 610 OFFCURVE",
"591 576 CURVE SMOOTH",
"591 536 OFFCURVE",
"560 509 OFFCURVE",
"499 509 CURVE SMOOTH",
"55 509 LINE",
"55 434 LINE"
);
}
);
width = 690;
}
);
unicode = 0CA5;
userData = {
public.markColor = "0.97,1,0,1";
};
},
{
color = 4;
glyphname = knDA;
lastChange = "2016-01-18 16:17:59 +0000";
layers = (
{
layerId = "034236B8-3FA8-43DA-9EDA-EFF269A687EC";
name = Regular;
paths = (
{
closed = 1;
nodes = (
"241 434 LINE",
"345 444 LINE",
"448 434 LINE",
"499 434 LINE SMOOTH",
"580 434 OFFCURVE",
"634 480 OFFCURVE",
"634 552 CURVE SMOOTH",
"634 607 OFFCURVE",
"603 648 OFFCURVE",
"560 664 CURVE",
"545 644 LINE",
"569 635 OFFCURVE",
"591 610 OFFCURVE",
"591 576 CURVE SMOOTH",
"591 536 OFFCURVE",
"560 509 OFFCURVE",
"499 509 CURVE SMOOTH",
"55 509 LINE",
"55 434 LINE"
);
},
{
closed = 1;
nodes = (
"253 -14 OFFCURVE",
"321 43 OFFCURVE",
"344 126 CURVE",
"346 126 LINE",
"369 43 OFFCURVE",
"437 -14 OFFCURVE",
"508 -14 CURVE SMOOTH",
"572 -14 OFFCURVE",
"635 33 OFFCURVE",
"635 153 CURVE SMOOTH",
"635 339 OFFCURVE",
"482 467 OFFCURVE",
"345 467 CURVE SMOOTH",
"208 467 OFFCURVE",
"55 339 OFFCURVE",
"55 151 CURVE SMOOTH",
"55 33 OFFCURVE",
"117 -14 OFFCURVE",
"182 -14 CURVE SMOOTH"
);
},
{
closed = 1;
nodes = (
"138 71 OFFCURVE",
"104 114 OFFCURVE",
"104 181 CURVE SMOOTH",
"104 300 OFFCURVE",
"213 441 OFFCURVE",
"345 441 CURVE SMOOTH",
"477 441 OFFCURVE",
"586 300 OFFCURVE",
"586 180 CURVE SMOOTH",
"586 114 OFFCURVE",
"552 71 OFFCURVE",
"499 71 CURVE SMOOTH",
"429 71 OFFCURVE",
"364 145 OFFCURVE",
"350 221 CURVE",
"341 221 LINE",
"327 145 OFFCURVE",
"261 71 OFFCURVE",
"191 71 CURVE SMOOTH"
);
}
);
width = 690;
}
);
unicode = 0CA6;
userData = {
public.markColor = "0.97,1,0,1";
};
},
{
color = 4;
glyphname = knDHA;
lastChange = "2016-01-17 18:56:06 +0000";
layers = (
{
layerId = "034236B8-3FA8-43DA-9EDA-EFF269A687EC";
name = Regular;
paths = (
{
closed = 1;
nodes = (
"370 -220 OFFCURVE",
"395 -201 OFFCURVE",
"395 -161 CURVE SMOOTH",
"395 -117 OFFCURVE",
"366 -104 OFFCURVE",
"352 16 CURVE",
"336 16 LINE",
"323 -104 OFFCURVE",
"292 -117 OFFCURVE",
"292 -161 CURVE SMOOTH",
"292 -197 OFFCURVE",
"317 -220 OFFCURVE",
"344 -220 CURVE SMOOTH"
);
},
{
closed = 1;
nodes = (
"241 434 LINE",
"345 444 LINE",
"448 434 LINE",
"499 434 LINE SMOOTH",
"580 434 OFFCURVE",
"634 480 OFFCURVE",
"634 552 CURVE SMOOTH",
"634 607 OFFCURVE",
"603 648 OFFCURVE",
"560 664 CURVE",
"545 644 LINE",
"569 635 OFFCURVE",
"591 610 OFFCURVE",
"591 576 CURVE SMOOTH",
"591 536 OFFCURVE",
"560 509 OFFCURVE",
"499 509 CURVE SMOOTH",
"55 509 LINE",
"55 434 LINE"
);
},
{
closed = 1;
nodes = (
"253 -14 OFFCURVE",
"321 43 OFFCURVE",
"344 126 CURVE",
"346 126 LINE",
"369 43 OFFCURVE",
"437 -14 OFFCURVE",
"508 -14 CURVE SMOOTH",
"572 -14 OFFCURVE",
"635 33 OFFCURVE",
"635 153 CURVE SMOOTH",
"635 339 OFFCURVE",
"482 467 OFFCURVE",
"345 467 CURVE SMOOTH",
"208 467 OFFCURVE",
"55 339 OFFCURVE",
"55 151 CURVE SMOOTH",
"55 33 OFFCURVE",
"117 -14 OFFCURVE",
"182 -14 CURVE SMOOTH"
);
},
{
closed = 1;
nodes = (
"138 71 OFFCURVE",
"104 114 OFFCURVE",
"104 181 CURVE SMOOTH",
"104 300 OFFCURVE",
"213 441 OFFCURVE",
"345 441 CURVE SMOOTH",
"477 441 OFFCURVE",
"586 300 OFFCURVE",
"586 180 CURVE SMOOTH",
"586 114 OFFCURVE",
"552 71 OFFCURVE",
"499 71 CURVE SMOOTH",
"429 71 OFFCURVE",
"364 145 OFFCURVE",
"350 221 CURVE",
"341 221 LINE",
"327 145 OFFCURVE",
"261 71 OFFCURVE",
"191 71 CURVE SMOOTH"
);
}
);
width = 690;
}
);
unicode = 0CA7;
userData = {
public.markColor = "0.97,1,0,1";
};
},
{
color = 4;
glyphname = knNA;
lastChange = "2016-01-17 18:56:06 +0000";
layers = (
{
layerId = "034236B8-3FA8-43DA-9EDA-EFF269A687EC";
name = Regular;
paths = (
{
closed = 1;
nodes = (
"174 -75 OFFCURVE",
"204 -68 OFFCURVE",
"204 -40 CURVE SMOOTH",
"204 -20 OFFCURVE",
"188 1 OFFCURVE",
"157 12 CURVE SMOOTH",
"112 27 OFFCURVE",
"80 73 OFFCURVE",
"80 122 CURVE SMOOTH",
"80 171 OFFCURVE",
"113 212 OFFCURVE",
"179 212 CURVE SMOOTH",
"254 212 OFFCURVE",
"273 155 OFFCURVE",
"292 98 CURVE SMOOTH",
"311 42 OFFCURVE",
"329 -14 OFFCURVE",
"401 -14 CURVE SMOOTH",
"491 -14 OFFCURVE",
"554 72 OFFCURVE",
"554 176 CURVE SMOOTH",
"554 295 OFFCURVE",
"478 399 OFFCURVE",
"343 437 CURVE",
"217 438 LINE",
"259 432 LINE",
"405 398 OFFCURVE",
"506 311 OFFCURVE",
"506 194 CURVE SMOOTH",
"506 116 OFFCURVE",
"463 71 OFFCURVE",
"406 71 CURVE SMOOTH",
"342 71 OFFCURVE",
"320 125 OFFCURVE",
"297 180 CURVE SMOOTH",
"273 237 OFFCURVE",
"250 294 OFFCURVE",
"180 294 CURVE SMOOTH",
"104 294 OFFCURVE",
"45 224 OFFCURVE",
"45 131 CURVE SMOOTH",
"45 54 OFFCURVE",
"85 -23 OFFCURVE",
"138 -54 CURVE SMOOTH"
);
},
{
closed = 1;
nodes = (
"400 434 LINE SMOOTH",
"482 434 OFFCURVE",
"535 480 OFFCURVE",
"535 552 CURVE SMOOTH",
"535 607 OFFCURVE",
"504 648 OFFCURVE",
"461 664 CURVE",
"446 644 LINE",
"470 635 OFFCURVE",
"492 610 OFFCURVE",
"492 577 CURVE SMOOTH",
"492 537 OFFCURVE",
"461 509 OFFCURVE",
"400 509 CURVE SMOOTH",
"45 509 LINE",
"45 434 LINE"
);
}
);
width = 609;
}
);
unicode = 0CA8;
userData = {
public.markColor = "0.97,1,0,1";
};
},
{
color = 4;
glyphname = knPA;
lastChange = "2016-01-17 18:56:06 +0000";
layers = (
{
background = {
paths = (
{
closed = 0;
nodes = (
"602 86 LINE SMOOTH",
"667 229 OFFCURVE",
"634 361 OFFCURVE",
"575 388 CURVE SMOOTH",
"549 401 OFFCURVE",
"529 390 OFFCURVE",
"519 371 CURVE SMOOTH",
"513 355 OFFCURVE",
"515 339 OFFCURVE",
"526 327 CURVE SMOOTH",
"544 313 OFFCURVE",
"563 309 OFFCURVE",
"578 294 CURVE SMOOTH",
"605 268 OFFCURVE",
"611 184 OFFCURVE",
"577 111 CURVE SMOOTH"
);
}
);
};
layerId = "034236B8-3FA8-43DA-9EDA-EFF269A687EC";
name = Regular;
paths = (
{
closed = 1;
nodes = (
"251 -14 OFFCURVE",
"321 43 OFFCURVE",
"344 126 CURVE",
"346 126 LINE",
"369 43 OFFCURVE",
"438 -14 OFFCURVE",
"507 -14 CURVE SMOOTH",
"598 -14 OFFCURVE",
"635 84 OFFCURVE",
"635 209 CURVE SMOOTH",
"635 291 OFFCURVE",
"620 394 OFFCURVE",
"558 394 CURVE SMOOTH",
"533 394 OFFCURVE",
"516 377 OFFCURVE",
"516 353 CURVE SMOOTH",
"516 343 OFFCURVE",
"519 333 OFFCURVE",
"529 325 CURVE SMOOTH",
"544 313 OFFCURVE",
"563 309 OFFCURVE",
"579 293 CURVE SMOOTH",
"595 277 OFFCURVE",
"600 255 OFFCURVE",
"600 221 CURVE SMOOTH",
"600 131 OFFCURVE",
"569 71 OFFCURVE",
"502 71 CURVE SMOOTH",
"428 71 OFFCURVE",
"363 145 OFFCURVE",
"349 221 CURVE",
"340 221 LINE",
"326 145 OFFCURVE",
"261 71 OFFCURVE",
"186 71 CURVE SMOOTH",
"135 71 OFFCURVE",
"100 104 OFFCURVE",
"100 155 CURVE SMOOTH",
"100 201 OFFCURVE",
"129 227 OFFCURVE",
"170 227 CURVE SMOOTH",
"196 227 OFFCURVE",
"219 216 OFFCURVE",
"232 193 CURVE",
"248 208 LINE",
"235 250 OFFCURVE",
"211 287 OFFCURVE",
"162 287 CURVE SMOOTH",
"103 287 OFFCURVE",
"60 232 OFFCURVE",
"60 148 CURVE SMOOTH",
"60 56 OFFCURVE",
"109 -14 OFFCURVE",
"184 -14 CURVE SMOOTH"
);
},
{
closed = 1;
nodes = (
"376 271 OFFCURVE",
"403 298 OFFCURVE",
"403 331 CURVE SMOOTH",
"403 363 OFFCURVE",
"376 390 OFFCURVE",
"343 390 CURVE SMOOTH",
"309 390 OFFCURVE",
"284 363 OFFCURVE",
"284 331 CURVE SMOOTH",
"284 298 OFFCURVE",
"309 271 OFFCURVE",
"343 271 CURVE SMOOTH"
);
},
{
closed = 1;
nodes = (
"521 434 LINE SMOOTH",
"602 434 OFFCURVE",
"656 480 OFFCURVE",
"656 552 CURVE SMOOTH",
"656 607 OFFCURVE",
"625 648 OFFCURVE",
"582 664 CURVE",
"567 644 LINE",
"591 635 OFFCURVE",
"613 610 OFFCURVE",
"613 576 CURVE SMOOTH",
"613 536 OFFCURVE",
"582 509 OFFCURVE",
"521 509 CURVE SMOOTH",
"60 509 LINE",
"60 434 LINE"
);
}
);
width = 711;
}
);
unicode = 0CAA;
userData = {
public.markColor = "0.97,1,0,1";
};
},
{
color = 4;
glyphname = knPHA;
lastChange = "2016-01-17 18:56:06 +0000";
layers = (
{
layerId = "034236B8-3FA8-43DA-9EDA-EFF269A687EC";
name = Regular;
paths = (
{
closed = 1;
nodes = (
"370 -220 OFFCURVE",
"395 -201 OFFCURVE",
"395 -161 CURVE SMOOTH",
"395 -117 OFFCURVE",
"366 -104 OFFCURVE",
"352 16 CURVE",
"336 16 LINE",
"323 -104 OFFCURVE",
"292 -117 OFFCURVE",
"292 -161 CURVE SMOOTH",
"292 -197 OFFCURVE",
"317 -220 OFFCURVE",
"344 -220 CURVE SMOOTH"
);
},
{
closed = 1;
nodes = (
"376 271 OFFCURVE",
"403 298 OFFCURVE",
"403 331 CURVE SMOOTH",
"403 363 OFFCURVE",
"376 390 OFFCURVE",
"343 390 CURVE SMOOTH",
"309 390 OFFCURVE",
"284 363 OFFCURVE",
"284 331 CURVE SMOOTH",
"284 298 OFFCURVE",
"309 271 OFFCURVE",
"343 271 CURVE SMOOTH"
);
},
{
closed = 1;
nodes = (
"521 434 LINE SMOOTH",
"602 434 OFFCURVE",
"656 480 OFFCURVE",
"656 552 CURVE SMOOTH",
"656 607 OFFCURVE",
"625 648 OFFCURVE",
"582 664 CURVE",
"567 644 LINE",
"591 635 OFFCURVE",
"613 610 OFFCURVE",
"613 576 CURVE SMOOTH",
"613 536 OFFCURVE",
"582 509 OFFCURVE",
"521 509 CURVE SMOOTH",
"60 509 LINE",
"60 434 LINE"
);
},
{
closed = 1;
nodes = (
"251 -14 OFFCURVE",
"321 43 OFFCURVE",
"344 126 CURVE",
"346 126 LINE",
"369 43 OFFCURVE",
"438 -14 OFFCURVE",
"507 -14 CURVE SMOOTH",
"598 -14 OFFCURVE",
"635 84 OFFCURVE",
"635 209 CURVE SMOOTH",
"635 291 OFFCURVE",
"620 394 OFFCURVE",
"558 394 CURVE SMOOTH",
"533 394 OFFCURVE",
"516 377 OFFCURVE",
"516 353 CURVE SMOOTH",
"516 343 OFFCURVE",
"519 333 OFFCURVE",
"529 325 CURVE SMOOTH",
"544 313 OFFCURVE",
"563 309 OFFCURVE",
"579 293 CURVE SMOOTH",
"595 277 OFFCURVE",
"600 255 OFFCURVE",
"600 221 CURVE SMOOTH",
"600 131 OFFCURVE",
"569 71 OFFCURVE",
"502 71 CURVE SMOOTH",
"428 71 OFFCURVE",
"363 145 OFFCURVE",
"349 221 CURVE",
"340 221 LINE",
"326 145 OFFCURVE",
"261 71 OFFCURVE",
"186 71 CURVE SMOOTH",
"135 71 OFFCURVE",
"100 104 OFFCURVE",
"100 155 CURVE SMOOTH",
"100 201 OFFCURVE",
"129 227 OFFCURVE",
"170 227 CURVE SMOOTH",
"196 227 OFFCURVE",
"219 216 OFFCURVE",
"232 193 CURVE",
"248 208 LINE",
"235 250 OFFCURVE",
"211 287 OFFCURVE",
"162 287 CURVE SMOOTH",
"103 287 OFFCURVE",
"60 232 OFFCURVE",
"60 148 CURVE SMOOTH",
"60 56 OFFCURVE",
"109 -14 OFFCURVE",
"184 -14 CURVE SMOOTH"
);
}
);
width = 711;
}
);
unicode = 0CAB;
userData = {
public.markColor = "0.97,1,0,1";
};
},
{
color = 4;
glyphname = knBA;
lastChange = "2016-01-17 18:56:06 +0000";
layers = (
{
layerId = "034236B8-3FA8-43DA-9EDA-EFF269A687EC";
name = Regular;
paths = (
{
closed = 1;
nodes = (
"640 -14 OFFCURVE",
"685 99 OFFCURVE",
"685 222 CURVE SMOOTH",
"685 395 OFFCURVE",
"590 513 OFFCURVE",
"519 513 CURVE SMOOTH",
"488 513 OFFCURVE",
"471 493 OFFCURVE",
"471 470 CURVE SMOOTH",
"471 451 OFFCURVE",
"483 435 OFFCURVE",
"499 430 CURVE SMOOTH",
"522 423 OFFCURVE",
"543 428 OFFCURVE",
"567 420 CURVE SMOOTH",
"604 407 OFFCURVE",
"650 324 OFFCURVE",
"650 235 CURVE SMOOTH",
"650 129 OFFCURVE",
"597 71 OFFCURVE",
"525 71 CURVE",
"451 71 OFFCURVE",
"385 146 OFFCURVE",
"372 221 CURVE",
"363 221 LINE",
"349 145 OFFCURVE",
"284 71 OFFCURVE",
"212 71 CURVE SMOOTH",
"158 71 OFFCURVE",
"131 114 OFFCURVE",
"131 152 CURVE SMOOTH",
"131 187 OFFCURVE",
"155 223 OFFCURVE",
"189 257 CURVE SMOOTH",
"230 298 OFFCURVE",
"278 349 OFFCURVE",
"278 407 CURVE SMOOTH",
"278 465 OFFCURVE",
"230 519 OFFCURVE",
"154 519 CURVE SMOOTH",
"79 519 OFFCURVE",
"40 464 OFFCURVE",
"40 406 CURVE SMOOTH",
"40 380 OFFCURVE",
"48 352 OFFCURVE",
"69 330 CURVE",
"89 345 LINE",
"82 360 OFFCURVE",
"79 372 OFFCURVE",
"79 385 CURVE SMOOTH",
"79 421 OFFCURVE",
"102 452 OFFCURVE",
"149 452 CURVE SMOOTH",
"191 452 OFFCURVE",
"225 427 OFFCURVE",
"225 385 CURVE SMOOTH",
"225 344 OFFCURVE",
"194 311 OFFCURVE",
"162 278 CURVE SMOOTH",
"123 238 OFFCURVE",
"80 193 OFFCURVE",
"80 122 CURVE SMOOTH",
"80 38 OFFCURVE",
"141 -14 OFFCURVE",
"207 -14 CURVE SMOOTH",
"276 -14 OFFCURVE",
"344 43 OFFCURVE",
"367 126 CURVE",
"369 126 LINE",
"392 43 OFFCURVE",
"460 -14 OFFCURVE",
"527 -14 CURVE"
);
}
);
width = 724;
}
);
unicode = 0CAC;
userData = {
public.markColor = "0.97,1,0,1";
};
},
{
color = 4;
glyphname = knBHA;
lastChange = "2016-01-17 18:56:06 +0000";
layers = (
{
background = {
paths = (
{
closed = 1;
nodes = (
"640 -14 OFFCURVE",
"685 99 OFFCURVE",
"685 222 CURVE SMOOTH",
"685 395 OFFCURVE",
"590 513 OFFCURVE",
"519 513 CURVE SMOOTH",
"488 513 OFFCURVE",
"471 493 OFFCURVE",
"471 470 CURVE SMOOTH",
"471 451 OFFCURVE",
"483 435 OFFCURVE",
"499 430 CURVE SMOOTH",
"522 423 OFFCURVE",
"543 428 OFFCURVE",
"567 420 CURVE SMOOTH",
"604 407 OFFCURVE",
"650 324 OFFCURVE",
"650 235 CURVE SMOOTH",
"650 129 OFFCURVE",
"597 71 OFFCURVE",
"525 71 CURVE",
"451 71 OFFCURVE",
"385 146 OFFCURVE",
"372 221 CURVE",
"363 221 LINE",
"349 145 OFFCURVE",
"284 71 OFFCURVE",
"212 71 CURVE SMOOTH",
"158 71 OFFCURVE",
"131 114 OFFCURVE",
"131 152 CURVE SMOOTH",
"131 187 OFFCURVE",
"155 223 OFFCURVE",
"189 257 CURVE SMOOTH",
"230 298 OFFCURVE",
"278 349 OFFCURVE",
"278 407 CURVE SMOOTH",
"278 465 OFFCURVE",
"230 519 OFFCURVE",
"154 519 CURVE SMOOTH",
"79 519 OFFCURVE",
"40 464 OFFCURVE",
"40 406 CURVE SMOOTH",
"40 380 OFFCURVE",
"48 352 OFFCURVE",
"69 330 CURVE",
"89 345 LINE",
"82 360 OFFCURVE",
"79 372 OFFCURVE",
"79 385 CURVE SMOOTH",
"79 421 OFFCURVE",
"102 452 OFFCURVE",
"149 452 CURVE SMOOTH",
"191 452 OFFCURVE",
"225 427 OFFCURVE",
"225 385 CURVE SMOOTH",
"225 344 OFFCURVE",
"194 311 OFFCURVE",
"162 278 CURVE SMOOTH",
"123 238 OFFCURVE",
"80 193 OFFCURVE",
"80 122 CURVE SMOOTH",
"80 38 OFFCURVE",
"141 -14 OFFCURVE",
"207 -14 CURVE SMOOTH",
"276 -14 OFFCURVE",
"344 43 OFFCURVE",
"367 126 CURVE",
"369 126 LINE",
"392 43 OFFCURVE",
"460 -14 OFFCURVE",
"527 -14 CURVE"
);
}
);
};
layerId = "034236B8-3FA8-43DA-9EDA-EFF269A687EC";
name = Regular;
paths = (
{
closed = 1;
nodes = (
"395 -220 OFFCURVE",
"420 -201 OFFCURVE",
"420 -161 CURVE SMOOTH",
"420 -117 OFFCURVE",
"391 -104 OFFCURVE",
"377 16 CURVE",
"361 16 LINE",
"348 -104 OFFCURVE",
"317 -117 OFFCURVE",
"317 -161 CURVE SMOOTH",
"317 -197 OFFCURVE",
"342 -220 OFFCURVE",
"369 -220 CURVE SMOOTH"
);
},
{
closed = 1;
nodes = (
"552 434 LINE SMOOTH",
"633 434 OFFCURVE",
"687 480 OFFCURVE",
"687 552 CURVE SMOOTH",
"687 607 OFFCURVE",
"656 648 OFFCURVE",
"613 664 CURVE",
"598 644 LINE",
"622 635 OFFCURVE",
"644 610 OFFCURVE",
"644 576 CURVE SMOOTH",
"644 536 OFFCURVE",
"613 509 OFFCURVE",
"552 509 CURVE SMOOTH",
"361 509 LINE",
"361 434 LINE"
);
},
{
closed = 1;
nodes = (
"633 -14 OFFCURVE",
"687 84 OFFCURVE",
"687 171 CURVE SMOOTH",
"687 360 OFFCURVE",
"544 470 OFFCURVE",
"408 470 CURVE",
"398 434 LINE",
"550 424 OFFCURVE",
"649 301 OFFCURVE",
"649 203 CURVE SMOOTH",
"649 121 OFFCURVE",
"600 71 OFFCURVE",
"524 71 CURVE",
"451 71 OFFCURVE",
"385 146 OFFCURVE",
"372 221 CURVE",
"363 221 LINE",
"349 145 OFFCURVE",
"284 71 OFFCURVE",
"212 71 CURVE SMOOTH",
"158 71 OFFCURVE",
"131 114 OFFCURVE",
"131 152 CURVE SMOOTH",
"131 187 OFFCURVE",
"155 223 OFFCURVE",
"189 257 CURVE SMOOTH",
"230 298 OFFCURVE",
"278 349 OFFCURVE",
"278 407 CURVE SMOOTH",
"278 465 OFFCURVE",
"230 519 OFFCURVE",
"154 519 CURVE SMOOTH",
"79 519 OFFCURVE",
"40 464 OFFCURVE",
"40 406 CURVE SMOOTH",
"40 380 OFFCURVE",
"48 352 OFFCURVE",
"69 330 CURVE",
"89 345 LINE",
"82 360 OFFCURVE",
"79 372 OFFCURVE",
"79 385 CURVE SMOOTH",
"79 421 OFFCURVE",
"102 452 OFFCURVE",
"149 452 CURVE SMOOTH",
"191 452 OFFCURVE",
"225 427 OFFCURVE",
"225 385 CURVE SMOOTH",
"225 344 OFFCURVE",
"194 311 OFFCURVE",
"162 278 CURVE SMOOTH",
"123 238 OFFCURVE",
"80 193 OFFCURVE",
"80 122 CURVE SMOOTH",
"80 38 OFFCURVE",
"141 -14 OFFCURVE",
"207 -14 CURVE SMOOTH",
"276 -14 OFFCURVE",
"344 43 OFFCURVE",
"367 126 CURVE",
"369 126 LINE",
"392 43 OFFCURVE",
"460 -14 OFFCURVE",
"531 -14 CURVE"
);
}
);
width = 747;
}
);
unicode = 0CAD;
userData = {
public.markColor = "0.97,1,0,1";
};
},
{
color = 4;
glyphname = knMA;
lastChange = "2016-01-17 18:56:06 +0000";
layers = (
{
layerId = "034236B8-3FA8-43DA-9EDA-EFF269A687EC";
name = Regular;
paths = (
{
closed = 1;
nodes = (
"251 -14 OFFCURVE",
"321 43 OFFCURVE",
"344 126 CURVE",
"346 126 LINE",
"369 43 OFFCURVE",
"438 -14 OFFCURVE",
"508 -14 CURVE SMOOTH",
"598 -14 OFFCURVE",
"636 84 OFFCURVE",
"636 171 CURVE SMOOTH",
"636 360 OFFCURVE",
"493 474 OFFCURVE",
"357 474 CURVE",
"347 434 LINE",
"499 424 OFFCURVE",
"598 311 OFFCURVE",
"598 193 CURVE SMOOTH",
"598 121 OFFCURVE",
"559 71 OFFCURVE",
"500 71 CURVE SMOOTH",
"428 71 OFFCURVE",
"363 145 OFFCURVE",
"349 221 CURVE",
"340 221 LINE",
"326 145 OFFCURVE",
"261 71 OFFCURVE",
"186 71 CURVE SMOOTH",
"135 71 OFFCURVE",
"100 104 OFFCURVE",
"100 156 CURVE SMOOTH",
"100 201 OFFCURVE",
"129 227 OFFCURVE",
"170 227 CURVE SMOOTH",
"196 227 OFFCURVE",
"221 217 OFFCURVE",
"232 193 CURVE",
"248 208 LINE",
"235 250 OFFCURVE",
"211 287 OFFCURVE",
"163 287 CURVE SMOOTH",
"103 287 OFFCURVE",
"60 232 OFFCURVE",
"60 143 CURVE SMOOTH",
"60 56 OFFCURVE",
"109 -14 OFFCURVE",
"183 -14 CURVE SMOOTH"
);
},
{
closed = 1;
nodes = (
"495 434 LINE SMOOTH",
"576 434 OFFCURVE",
"630 480 OFFCURVE",
"630 552 CURVE SMOOTH",
"630 607 OFFCURVE",
"599 648 OFFCURVE",
"556 664 CURVE",
"541 644 LINE",
"565 635 OFFCURVE",
"587 610 OFFCURVE",
"587 576 CURVE SMOOTH",
"587 536 OFFCURVE",
"556 509 OFFCURVE",
"495 509 CURVE SMOOTH",
"60 509 LINE",
"60 434 LINE"
);
},
{
closed = 1;
nodes = (
"902 -14 OFFCURVE",
"982 95 OFFCURVE",
"982 242 CURVE SMOOTH",
"982 415 OFFCURVE",
"886 513 OFFCURVE",
"815 513 CURVE SMOOTH",
"784 513 OFFCURVE",
"767 493 OFFCURVE",
"767 470 CURVE SMOOTH",
"767 451 OFFCURVE",
"779 435 OFFCURVE",
"795 430 CURVE SMOOTH",
"818 423 OFFCURVE",
"842 428 OFFCURVE",
"863 420 CURVE SMOOTH",
"900 406 OFFCURVE",
"947 344 OFFCURVE",
"947 255 CURVE SMOOTH",
"947 137 OFFCURVE",
"877 71 OFFCURVE",
"791 71 CURVE SMOOTH",
"710 71 OFFCURVE",
"645 132 OFFCURVE",
"610 235 CURVE",
"614 129 LINE",
"650 45 OFFCURVE",
"716 -14 OFFCURVE",
"789 -14 CURVE SMOOTH"
);
}
);
width = 1042;
}
);
unicode = 0CAE;
userData = {
public.markColor = "0.97,1,0,1";
};
},
{
color = 4;
glyphname = knYA;
lastChange = "2016-01-17 18:56:06 +0000";
layers = (
{
layerId = "034236B8-3FA8-43DA-9EDA-EFF269A687EC";
name = Regular;
paths = (
{
closed = 1;
nodes = (
"424 -14 OFFCURVE",
"515 99 OFFCURVE",
"515 250 CURVE SMOOTH",
"515 402 OFFCURVE",
"425 519 OFFCURVE",
"286 519 CURVE SMOOTH",
"147 519 OFFCURVE",
"55 402 OFFCURVE",
"55 250 CURVE SMOOTH",
"55 99 OFFCURVE",
"146 -14 OFFCURVE",
"285 -14 CURVE SMOOTH"
);
},
{
closed = 1;
nodes = (
"184 71 OFFCURVE",
"95 144 OFFCURVE",
"95 259 CURVE SMOOTH",
"95 369 OFFCURVE",
"175 441 OFFCURVE",
"286 441 CURVE SMOOTH",
"397 441 OFFCURVE",
"477 369 OFFCURVE",
"477 254 CURVE SMOOTH",
"477 144 OFFCURVE",
"386 71 OFFCURVE",
"285 71 CURVE SMOOTH"
);
},
{
closed = 1;
nodes = (
"755 -14 OFFCURVE",
"835 95 OFFCURVE",
"835 242 CURVE SMOOTH",
"835 415 OFFCURVE",
"739 509 OFFCURVE",
"668 509 CURVE SMOOTH",
"637 509 OFFCURVE",
"620 493 OFFCURVE",
"620 470 CURVE",
"688 434 LINE",
"735 411 OFFCURVE",
"800 344 OFFCURVE",
"800 255 CURVE SMOOTH",
"800 137 OFFCURVE",
"730 71 OFFCURVE",
"639 71 CURVE SMOOTH",
"573 71 OFFCURVE",
"525 105 OFFCURVE",
"488 207 CURVE",
"468 188 LINE",
"486 61 OFFCURVE",
"556 -14 OFFCURVE",
"645 -14 CURVE SMOOTH"
);
},
{
closed = 1;
nodes = (
"1091 -14 OFFCURVE",
"1171 95 OFFCURVE",
"1171 242 CURVE SMOOTH",
"1171 415 OFFCURVE",
"1075 513 OFFCURVE",
"1004 513 CURVE SMOOTH",
"973 513 OFFCURVE",
"956 493 OFFCURVE",
"956 470 CURVE SMOOTH",
"956 451 OFFCURVE",
"968 435 OFFCURVE",
"987 429 CURVE SMOOTH",
"1007 423 OFFCURVE",
"1028 428 OFFCURVE",
"1052 420 CURVE SMOOTH",
"1089 407 OFFCURVE",
"1136 344 OFFCURVE",
"1136 255 CURVE SMOOTH",
"1136 137 OFFCURVE",
"1066 71 OFFCURVE",
"975 71 CURVE SMOOTH",
"909 71 OFFCURVE",
"856 105 OFFCURVE",
"819 207 CURVE",
"799 188 LINE",
"817 61 OFFCURVE",
"892 -14 OFFCURVE",
"981 -14 CURVE SMOOTH"
);
},
{
closed = 1;
nodes = (
"732 434 LINE SMOOTH",
"813 434 OFFCURVE",
"867 480 OFFCURVE",
"867 552 CURVE SMOOTH",
"867 607 OFFCURVE",
"836 648 OFFCURVE",
"793 664 CURVE",
"778 644 LINE",
"802 635 OFFCURVE",
"824 610 OFFCURVE",
"824 576 CURVE SMOOTH",
"824 536 OFFCURVE",
"793 509 OFFCURVE",
"732 509 CURVE SMOOTH",
"540 509 LINE",
"540 434 LINE"
);
}
);
width = 1231;
}
);
unicode = 0CAF;
userData = {
com.typemytype.robofont.layerData = {
bkgd = {
anchors = (
);
components = (
);
contours = (
);
lib = {
};
name = knYA;
unicodes = (
);
width = 1231;
};
};
public.markColor = "0.97,1,0,1";
};
},
{
color = 4;
glyphname = knRA;
lastChange = "2016-01-18 15:54:10 +0000";
layers = (
{
layerId = "034236B8-3FA8-43DA-9EDA-EFF269A687EC";
name = Regular;
paths = (
{
closed = 1;
nodes = (
"416 -14 OFFCURVE",
"510 86 OFFCURVE",
"510 226 CURVE SMOOTH",
"510 315 OFFCURVE",
"464 398 OFFCURVE",
"390 436 CURVE SMOOTH",
"358 453 OFFCURVE",
"321 461 OFFCURVE",
"280 461 CURVE SMOOTH",
"239 461 OFFCURVE",
"202 453 OFFCURVE",
"170 436 CURVE SMOOTH",
"96 398 OFFCURVE",
"50 315 OFFCURVE",
"50 226 CURVE SMOOTH",
"50 86 OFFCURVE",
"144 -14 OFFCURVE",
"280 -14 CURVE SMOOTH"
);
},
{
closed = 1;
nodes = (
"170 71 OFFCURVE",
"95 144 OFFCURVE",
"95 247 CURVE SMOOTH",
"95 348 OFFCURVE",
"179 433 OFFCURVE",
"280 433 CURVE SMOOTH",
"381 433 OFFCURVE",
"465 349 OFFCURVE",
"465 248 CURVE SMOOTH",
"465 145 OFFCURVE",
"389 71 OFFCURVE",
"280 71 CURVE SMOOTH"
);
},
{
closed = 1;
nodes = (
"213 434 LINE",
"279 451 LINE",
"343 434 LINE",
"375 434 LINE SMOOTH",
"456 434 OFFCURVE",
"510 480 OFFCURVE",
"510 552 CURVE SMOOTH",
"510 607 OFFCURVE",
"479 648 OFFCURVE",
"436 664 CURVE",
"421 644 LINE",
"445 635 OFFCURVE",
"467 610 OFFCURVE",
"467 576 CURVE SMOOTH",
"467 536 OFFCURVE",
"436 509 OFFCURVE",
"375 509 CURVE SMOOTH",
"50 509 LINE",
"50 434 LINE"
);
}
);
width = 560;
}
);
unicode = 0CB0;
userData = {
public.markColor = "0.97,1,0,1";
};
},
{
color = 4;
glyphname = knLA;
lastChange = "2016-01-17 18:56:06 +0000";
layers = (
{
layerId = "034236B8-3FA8-43DA-9EDA-EFF269A687EC";
name = Regular;
paths = (
{
closed = 1;
nodes = (
"552 -13 OFFCURVE",
"657 116 OFFCURVE",
"657 275 CURVE SMOOTH",
"657 416 OFFCURVE",
"572 514 OFFCURVE",
"504 514 CURVE SMOOTH",
"473 514 OFFCURVE",
"453 494 OFFCURVE",
"453 470 CURVE SMOOTH",
"453 452 OFFCURVE",
"465 436 OFFCURVE",
"481 431 CURVE SMOOTH",
"504 424 OFFCURVE",
"525 429 OFFCURVE",
"549 421 CURVE SMOOTH",
"586 408 OFFCURVE",
"622 365 OFFCURVE",
"622 287 CURVE SMOOTH",
"622 157 OFFCURVE",
"522 72 OFFCURVE",
"371 71 CURVE SMOOTH",
"200 70 OFFCURVE",
"100 171 OFFCURVE",
"100 301 CURVE SMOOTH",
"100 387 OFFCURVE",
"142 454 OFFCURVE",
"235 454 CURVE SMOOTH",
"273 454 OFFCURVE",
"307 440 OFFCURVE",
"307 401 CURVE SMOOTH",
"307 365 OFFCURVE",
"279 344 OFFCURVE",
"235 344 CURVE SMOOTH",
"190 344 OFFCURVE",
"159 365 OFFCURVE",
"159 408 CURVE SMOOTH",
"159 419 OFFCURVE",
"163 440 OFFCURVE",
"166 450 CURVE",
"135 429 LINE",
"132 407 OFFCURVE",
"131 394 OFFCURVE",
"131 381 CURVE SMOOTH",
"131 308 OFFCURVE",
"174 273 OFFCURVE",
"229 273 CURVE SMOOTH",
"295 273 OFFCURVE",
"337 325 OFFCURVE",
"337 394 CURVE SMOOTH",
"337 457 OFFCURVE",
"301 519 OFFCURVE",
"226 519 CURVE SMOOTH",
"128 519 OFFCURVE",
"60 414 OFFCURVE",
"60 283 CURVE SMOOTH",
"60 104 OFFCURVE",
"180 -14 OFFCURVE",
"357 -14 CURVE SMOOTH"
);
}
);
width = 717;
}
);
unicode = 0CB2;
userData = {
public.markColor = "0.97,1,0,1";
};
},
{
color = 4;
glyphname = knVA;
lastChange = "2016-01-17 18:56:06 +0000";
layers = (
{
layerId = "034236B8-3FA8-43DA-9EDA-EFF269A687EC";
name = Regular;
paths = (
{
closed = 1;
nodes = (
"251 -14 OFFCURVE",
"321 43 OFFCURVE",
"344 126 CURVE",
"346 126 LINE",
"369 43 OFFCURVE",
"438 -14 OFFCURVE",
"507 -14 CURVE SMOOTH",
"598 -14 OFFCURVE",
"636 84 OFFCURVE",
"636 178 CURVE SMOOTH",
"636 360 OFFCURVE",
"493 474 OFFCURVE",
"357 474 CURVE",
"347 434 LINE",
"499 424 OFFCURVE",
"598 311 OFFCURVE",
"598 195 CURVE SMOOTH",
"598 121 OFFCURVE",
"559 71 OFFCURVE",
"500 71 CURVE SMOOTH",
"428 71 OFFCURVE",
"363 145 OFFCURVE",
"349 221 CURVE",
"340 221 LINE",
"326 145 OFFCURVE",
"261 71 OFFCURVE",
"185 71 CURVE SMOOTH",
"135 71 OFFCURVE",
"100 104 OFFCURVE",
"100 155 CURVE SMOOTH",
"100 201 OFFCURVE",
"129 227 OFFCURVE",
"171 227 CURVE SMOOTH",
"196 227 OFFCURVE",
"221 217 OFFCURVE",
"232 193 CURVE",
"248 208 LINE",
"235 250 OFFCURVE",
"211 287 OFFCURVE",
"162 287 CURVE SMOOTH",
"103 287 OFFCURVE",
"60 232 OFFCURVE",
"60 147 CURVE SMOOTH",
"60 56 OFFCURVE",
"109 -14 OFFCURVE",
"184 -14 CURVE SMOOTH"
);
},
{
closed = 1;
nodes = (
"495 434 LINE SMOOTH",
"576 434 OFFCURVE",
"630 480 OFFCURVE",
"630 552 CURVE SMOOTH",
"630 607 OFFCURVE",
"599 648 OFFCURVE",
"556 664 CURVE",
"541 644 LINE",
"565 635 OFFCURVE",
"587 610 OFFCURVE",
"587 576 CURVE SMOOTH",
"587 536 OFFCURVE",
"556 509 OFFCURVE",
"495 509 CURVE SMOOTH",
"60 509 LINE",
"60 434 LINE"
);
}
);
width = 691;
}
);
unicode = 0CB5;
userData = {
public.markColor = "0.97,1,0,1";
};
},
{
color = 4;
glyphname = knSHA;
lastChange = "2016-01-17 18:56:06 +0000";
layers = (
{
layerId = "034236B8-3FA8-43DA-9EDA-EFF269A687EC";
name = Regular;
paths = (
{
closed = 1;
nodes = (
"418 -14 OFFCURVE",
"519 90 OFFCURVE",
"519 236 CURVE SMOOTH",
"519 379 OFFCURVE",
"418 469 OFFCURVE",
"275 470 CURVE SMOOTH",
"182 471 OFFCURVE",
"141 426 OFFCURVE",
"141 379 CURVE SMOOTH",
"141 342 OFFCURVE",
"167 308 OFFCURVE",
"212 308 CURVE SMOOTH",
"248 308 OFFCURVE",
"266 331 OFFCURVE",
"266 354 CURVE SMOOTH",
"266 375 OFFCURVE",
"250 393 OFFCURVE",
"228 393 CURVE SMOOTH",
"208 393 OFFCURVE",
"194 376 OFFCURVE",
"194 354 CURVE SMOOTH",
"194 351 OFFCURVE",
"193 347 OFFCURVE",
"189 347 CURVE SMOOTH",
"180 347 OFFCURVE",
"172 360 OFFCURVE",
"172 377 CURVE SMOOTH",
"172 412 OFFCURVE",
"206 439 OFFCURVE",
"245 439 CURVE SMOOTH",
"292 439 OFFCURVE",
"330 399 OFFCURVE",
"330 343 CURVE SMOOTH",
"330 273 OFFCURVE",
"271 261 OFFCURVE",
"209 261 CURVE SMOOTH",
"102 261 OFFCURVE",
"55 222 OFFCURVE",
"55 154 CURVE SMOOTH",
"55 66 OFFCURVE",
"133 -14 OFFCURVE",
"270 -14 CURVE SMOOTH"
);
},
{
closed = 1;
nodes = (
"165 71 OFFCURVE",
"102 126 OFFCURVE",
"102 178 CURVE SMOOTH",
"102 209 OFFCURVE",
"125 231 OFFCURVE",
"209 231 CURVE SMOOTH",
"322 231 OFFCURVE",
"362 274 OFFCURVE",
"362 340 CURVE SMOOTH",
"362 383 OFFCURVE",
"345 420 OFFCURVE",
"313 440 CURVE",
"394 435 OFFCURVE",
"469 373 OFFCURVE",
"469 257 CURVE SMOOTH",
"469 138 OFFCURVE",
"390 71 OFFCURVE",
"270 71 CURVE SMOOTH"
);
},
{
closed = 1;
nodes = (
"194 434 LINE",
"295 459 LINE",
"403 434 LINE",
"484 434 OFFCURVE",
"538 480 OFFCURVE",
"538 552 CURVE SMOOTH",
"538 607 OFFCURVE",
"507 648 OFFCURVE",
"464 664 CURVE",
"449 644 LINE",
"473 635 OFFCURVE",
"495 610 OFFCURVE",
"495 576 CURVE SMOOTH",
"495 536 OFFCURVE",
"464 509 OFFCURVE",
"403 509 CURVE SMOOTH",
"58 509 LINE",
"58 434 LINE"
);
}
);
width = 593;
}
);
unicode = 0CB6;
userData = {
public.markColor = "0.97,1,0,1";
};
},
{
color = 4;
glyphname = knSSA;
lastChange = "2016-01-17 18:56:06 +0000";
layers = (
{
layerId = "034236B8-3FA8-43DA-9EDA-EFF269A687EC";
name = Regular;
paths = (
{
closed = 1;
nodes = (
"251 -14 OFFCURVE",
"321 43 OFFCURVE",
"344 126 CURVE",
"346 126 LINE",
"369 43 OFFCURVE",
"438 -14 OFFCURVE",
"507 -14 CURVE SMOOTH",
"598 -14 OFFCURVE",
"635 84 OFFCURVE",
"635 189 CURVE SMOOTH",
"635 271 OFFCURVE",
"613 392 OFFCURVE",
"557 392 CURVE SMOOTH",
"536 392 OFFCURVE",
"519 375 OFFCURVE",
"519 353 CURVE SMOOTH",
"519 304 OFFCURVE",
"600 339 OFFCURVE",
"600 210 CURVE SMOOTH",
"600 131 OFFCURVE",
"569 71 OFFCURVE",
"503 71 CURVE SMOOTH",
"428 71 OFFCURVE",
"363 145 OFFCURVE",
"349 221 CURVE",
"340 221 LINE",
"326 145 OFFCURVE",
"261 71 OFFCURVE",
"186 71 CURVE SMOOTH",
"135 71 OFFCURVE",
"100 104 OFFCURVE",
"100 155 CURVE SMOOTH",
"100 201 OFFCURVE",
"129 227 OFFCURVE",
"170 227 CURVE SMOOTH",
"196 227 OFFCURVE",
"221 217 OFFCURVE",
"232 193 CURVE",
"248 208 LINE",
"235 250 OFFCURVE",
"211 287 OFFCURVE",
"162 287 CURVE SMOOTH",
"103 287 OFFCURVE",
"60 232 OFFCURVE",
"60 147 CURVE SMOOTH",
"60 56 OFFCURVE",
"109 -14 OFFCURVE",
"183 -14 CURVE SMOOTH"
);
},
{
closed = 1;
nodes = (
"693 -86 OFFCURVE",
"711 -67 OFFCURVE",
"711 -47 CURVE SMOOTH",
"711 -35 OFFCURVE",
"706 -25 OFFCURVE",
"697 -14 CURVE SMOOTH",
"676 11 OFFCURVE",
"631 41 OFFCURVE",
"591 87 CURVE SMOOTH",
"442 260 LINE",
"421 242 LINE",
"562 61 LINE SMOOTH",
"598 14 OFFCURVE",
"615 -38 OFFCURVE",
"636 -64 CURVE SMOOTH",
"647 -78 OFFCURVE",
"658 -86 OFFCURVE",
"673 -86 CURVE SMOOTH"
);
},
{
closed = 1;
nodes = (
"376 271 OFFCURVE",
"403 298 OFFCURVE",
"403 330 CURVE SMOOTH",
"403 363 OFFCURVE",
"376 390 OFFCURVE",
"343 390 CURVE SMOOTH",
"309 390 OFFCURVE",
"284 363 OFFCURVE",
"284 331 CURVE SMOOTH",
"284 298 OFFCURVE",
"309 271 OFFCURVE",
"343 271 CURVE SMOOTH"
);
},
{
closed = 1;
nodes = (
"521 434 LINE SMOOTH",
"602 434 OFFCURVE",
"656 480 OFFCURVE",
"656 552 CURVE SMOOTH",
"656 607 OFFCURVE",
"625 648 OFFCURVE",
"582 664 CURVE",
"567 644 LINE",
"591 635 OFFCURVE",
"613 610 OFFCURVE",
"613 576 CURVE SMOOTH",
"613 536 OFFCURVE",
"582 509 OFFCURVE",
"521 509 CURVE SMOOTH",
"60 509 LINE",
"60 434 LINE"
);
}
);
width = 711;
}
);
unicode = 0CB7;
userData = {
public.markColor = "0.97,1,0,1";
};
},
{
color = 4;
glyphname = knSA;
lastChange = "2016-01-17 18:56:06 +0000";
layers = (
{
layerId = "034236B8-3FA8-43DA-9EDA-EFF269A687EC";
name = Regular;
paths = (
{
closed = 1;
nodes = (
"110 120 OFFCURVE",
"162 170 OFFCURVE",
"228 170 CURVE SMOOTH",
"375 170 OFFCURVE",
"397 -14 OFFCURVE",
"508 -14 CURVE SMOOTH",
"587 -14 OFFCURVE",
"620 62 OFFCURVE",
"620 150 CURVE SMOOTH",
"620 237 OFFCURVE",
"591 319 OFFCURVE",
"531 377 CURVE",
"508 360 LINE",
"550 310 OFFCURVE",
"576 249 OFFCURVE",
"576 188 CURVE SMOOTH",
"576 114 OFFCURVE",
"546 71 OFFCURVE",
"492 71 CURVE SMOOTH",
"379 71 OFFCURVE",
"362 247 OFFCURVE",
"229 247 CURVE SMOOTH",
"134 247 OFFCURVE",
"74 144 OFFCURVE",
"74 -6 CURVE",
"103 -14 LINE"
);
},
{
closed = 1;
nodes = (
"355 288 OFFCURVE",
"377 314 OFFCURVE",
"377 347 CURVE SMOOTH",
"377 380 OFFCURVE",
"355 404 OFFCURVE",
"319 404 CURVE SMOOTH",
"283 404 OFFCURVE",
"261 380 OFFCURVE",
"261 347 CURVE SMOOTH",
"261 314 OFFCURVE",
"283 288 OFFCURVE",
"319 288 CURVE SMOOTH"
);
},
{
closed = 1;
nodes = (
"489 434 LINE SMOOTH",
"570 434 OFFCURVE",
"624 480 OFFCURVE",
"624 552 CURVE SMOOTH",
"624 607 OFFCURVE",
"593 648 OFFCURVE",
"550 664 CURVE",
"535 644 LINE",
"559 635 OFFCURVE",
"581 610 OFFCURVE",
"581 576 CURVE SMOOTH",
"581 536 OFFCURVE",
"550 509 OFFCURVE",
"489 509 CURVE SMOOTH",
"45 509 LINE",
"45 434 LINE"
);
}
);
width = 679;
}
);
unicode = 0CB8;
userData = {
public.markColor = "0.97,1,0,1";
};
},
{
color = 4;
glyphname = knHA;
lastChange = "2016-01-17 18:56:06 +0000";
layers = (
{
layerId = "034236B8-3FA8-43DA-9EDA-EFF269A687EC";
name = Regular;
paths = (
{
closed = 1;
nodes = (
"533 434 LINE SMOOTH",
"614 434 OFFCURVE",
"668 480 OFFCURVE",
"668 552 CURVE SMOOTH",
"668 607 OFFCURVE",
"637 648 OFFCURVE",
"594 664 CURVE",
"579 644 LINE",
"603 635 OFFCURVE",
"625 610 OFFCURVE",
"625 576 CURVE SMOOTH",
"625 536 OFFCURVE",
"594 509 OFFCURVE",
"533 509 CURVE SMOOTH",
"55 509 LINE",
"55 434 LINE"
);
},
{
closed = 1;
nodes = (
"292 -14 OFFCURVE",
"342 32 OFFCURVE",
"368 106 CURVE",
"365 247 LINE",
"338 302 OFFCURVE",
"296 340 OFFCURVE",
"221 340 CURVE SMOOTH",
"126 340 OFFCURVE",
"55 266 OFFCURVE",
"55 162 CURVE SMOOTH",
"55 64 OFFCURVE",
"126 -14 OFFCURVE",
"221 -14 CURVE SMOOTH"
);
},
{
closed = 1;
nodes = (
"159 71 OFFCURVE",
"105 113 OFFCURVE",
"105 187 CURVE SMOOTH",
"105 256 OFFCURVE",
"159 302 OFFCURVE",
"221 302 CURVE SMOOTH",
"289 302 OFFCURVE",
"341 259 OFFCURVE",
"341 187 CURVE SMOOTH",
"341 113 OFFCURVE",
"288 71 OFFCURVE",
"221 71 CURVE SMOOTH"
);
},
{
closed = 1;
nodes = (
"380 381 OFFCURVE",
"345 448 OFFCURVE",
"229 470 CURVE",
"229 435 LINE",
"311 427 OFFCURVE",
"340 363 OFFCURVE",
"340 269 CURVE",
"380 234 LINE"
);
},
{
closed = 1;
nodes = (
"598 -14 OFFCURVE",
"669 64 OFFCURVE",
"669 162 CURVE SMOOTH",
"669 266 OFFCURVE",
"598 340 OFFCURVE",
"503 340 CURVE SMOOTH",
"428 340 OFFCURVE",
"386 302 OFFCURVE",
"359 247 CURVE",
"356 106 LINE",
"382 32 OFFCURVE",
"431 -14 OFFCURVE",
"503 -14 CURVE SMOOTH"
);
},
{
closed = 1;
nodes = (
"435 71 OFFCURVE",
"383 113 OFFCURVE",
"383 187 CURVE SMOOTH",
"383 259 OFFCURVE",
"435 302 OFFCURVE",
"497 302 CURVE SMOOTH",
"565 302 OFFCURVE",
"619 256 OFFCURVE",
"619 187 CURVE SMOOTH",
"619 113 OFFCURVE",
"564 71 OFFCURVE",
"497 71 CURVE SMOOTH"
);
}
);
width = 724;
}
);
unicode = 0CB9;
userData = {
public.markColor = "0.97,1,0,1";
};
},
{
color = 4;
glyphname = knRRA;
lastChange = "2016-01-17 18:56:06 +0000";
layers = (
{
layerId = "034236B8-3FA8-43DA-9EDA-EFF269A687EC";
name = Regular;
paths = (
{
closed = 1;
nodes = (
"318 -14 OFFCURVE",
"382 43 OFFCURVE",
"405 126 CURVE",
"407 126 LINE",
"430 43 OFFCURVE",
"500 -14 OFFCURVE",
"577 -14 CURVE SMOOTH",
"676 -14 OFFCURVE",
"753 82 OFFCURVE",
"753 243 CURVE SMOOTH",
"753 392 OFFCURVE",
"685 519 OFFCURVE",
"583 519 CURVE SMOOTH",
"512 519 OFFCURVE",
"476 457 OFFCURVE",
"476 394 CURVE SMOOTH",
"476 325 OFFCURVE",
"518 273 OFFCURVE",
"581 273 CURVE",
"581 344 LINE",
"534 344 OFFCURVE",
"506 365 OFFCURVE",
"506 400 CURVE SMOOTH",
"506 439 OFFCURVE",
"540 454 OFFCURVE",
"578 454 CURVE SMOOTH",
"671 454 OFFCURVE",
"713 365 OFFCURVE",
"713 265 CURVE SMOOTH",
"713 149 OFFCURVE",
"656 71 OFFCURVE",
"572 71 CURVE SMOOTH",
"490 71 OFFCURVE",
"423 146 OFFCURVE",
"410 221 CURVE",
"401 221 LINE",
"387 145 OFFCURVE",
"323 71 OFFCURVE",
"241 71 CURVE SMOOTH",
"157 71 OFFCURVE",
"100 149 OFFCURVE",
"100 266 CURVE SMOOTH",
"100 365 OFFCURVE",
"142 454 OFFCURVE",
"235 454 CURVE SMOOTH",
"273 454 OFFCURVE",
"307 439 OFFCURVE",
"307 400 CURVE SMOOTH",
"307 365 OFFCURVE",
"279 344 OFFCURVE",
"232 344 CURVE",
"232 273 LINE",
"295 273 OFFCURVE",
"337 325 OFFCURVE",
"337 394 CURVE SMOOTH",
"337 457 OFFCURVE",
"301 519 OFFCURVE",
"230 519 CURVE SMOOTH",
"128 519 OFFCURVE",
"60 392 OFFCURVE",
"60 242 CURVE SMOOTH",
"60 82 OFFCURVE",
"137 -14 OFFCURVE",
"239 -14 CURVE SMOOTH"
);
},
{
closed = 1;
nodes = (
"631 273 LINE",
"631 344 LINE",
"183 344 LINE",
"183 273 LINE"
);
}
);
width = 813;
}
);
unicode = 0CB1;
userData = {
public.markColor = "0.97,1,0,1";
};
},
{
color = 4;
glyphname = knLLA;
lastChange = "2016-01-17 18:56:06 +0000";
layers = (
{
background = {
paths = (
{
closed = 1;
nodes = (
"408 -14 OFFCURVE",
"452 34 OFFCURVE",
"452 97 CURVE SMOOTH",
"452 203 OFFCURVE",
"354 224 OFFCURVE",
"257 245 CURVE SMOOTH",
"173 263 OFFCURVE",
"90 281 OFFCURVE",
"90 363 CURVE SMOOTH",
"90 422 OFFCURVE",
"156 454 OFFCURVE",
"224 454 CURVE SMOOTH",
"275 454 OFFCURVE",
"290 430 OFFCURVE",
"290 413 CURVE SMOOTH",
"290 390 OFFCURVE",
"270 373 OFFCURVE",
"231 373 CURVE SMOOTH",
"188 373 OFFCURVE",
"168 394 OFFCURVE",
"168 427 CURVE SMOOTH",
"168 450 OFFCURVE",
"173 471 OFFCURVE",
"180 477 CURVE",
"156 482 LINE",
"144 460 OFFCURVE",
"138 436 OFFCURVE",
"138 410 CURVE SMOOTH",
"138 350 OFFCURVE",
"174 310 OFFCURVE",
"230 310 CURVE SMOOTH",
"296 310 OFFCURVE",
"320 363 OFFCURVE",
"320 414 CURVE SMOOTH",
"320 467 OFFCURVE",
"287 519 OFFCURVE",
"217 519 CURVE SMOOTH",
"120 519 OFFCURVE",
"55 460 OFFCURVE",
"55 363 CURVE SMOOTH",
"55 205 OFFCURVE",
"193 183 OFFCURVE",
"298 166 CURVE SMOOTH",
"363 155 OFFCURVE",
"416 146 OFFCURVE",
"416 109 CURVE SMOOTH",
"416 83 OFFCURVE",
"383 71 OFFCURVE",
"346 71 CURVE SMOOTH",
"303 71 OFFCURVE",
"271 85 OFFCURVE",
"271 112 CURVE SMOOTH",
"271 203 OFFCURVE",
"589 186 OFFCURVE",
"589 363 CURVE SMOOTH",
"589 450 OFFCURVE",
"528 513 OFFCURVE",
"457 513 CURVE SMOOTH",
"426 513 OFFCURVE",
"409 493 OFFCURVE",
"409 470 CURVE SMOOTH",
"409 451 OFFCURVE",
"421 435 OFFCURVE",
"437 430 CURVE SMOOTH",
"448 427 OFFCURVE",
"458 426 OFFCURVE",
"469 425 CURVE SMOOTH",
"480 425 OFFCURVE",
"492 424 OFFCURVE",
"505 420 CURVE SMOOTH",
"535 410 OFFCURVE",
"552 387 OFFCURVE",
"552 355 CURVE SMOOTH",
"552 285 OFFCURVE",
"474 257 OFFCURVE",
"395 229 CURVE SMOOTH",
"311 199 OFFCURVE",
"225 168 OFFCURVE",
"225 86 CURVE SMOOTH",
"225 28 OFFCURVE",
"270 -14 OFFCURVE",
"341 -14 CURVE SMOOTH"
);
}
);
};
layerId = "034236B8-3FA8-43DA-9EDA-EFF269A687EC";
name = Regular;
paths = (
{
closed = 1;
nodes = (
"408 -14 OFFCURVE",
"452 34 OFFCURVE",
"452 103 CURVE SMOOTH",
"452 205 OFFCURVE",
"355 225 OFFCURVE",
"261 245 CURVE SMOOTH",
"174 263 OFFCURVE",
"90 280 OFFCURVE",
"90 356 CURVE SMOOTH",
"90 422 OFFCURVE",
"156 454 OFFCURVE",
"219 454 CURVE SMOOTH",
"275 454 OFFCURVE",
"290 431 OFFCURVE",
"290 412 CURVE SMOOTH",
"290 390 OFFCURVE",
"270 373 OFFCURVE",
"231 373 CURVE SMOOTH",
"188 373 OFFCURVE",
"168 394 OFFCURVE",
"168 427 CURVE SMOOTH",
"168 450 OFFCURVE",
"176 468 OFFCURVE",
"180 477 CURVE",
"156 482 LINE",
"144 460 OFFCURVE",
"138 436 OFFCURVE",
"138 410 CURVE SMOOTH",
"138 350 OFFCURVE",
"174 310 OFFCURVE",
"230 310 CURVE SMOOTH",
"296 310 OFFCURVE",
"320 363 OFFCURVE",
"320 411 CURVE SMOOTH",
"320 467 OFFCURVE",
"287 519 OFFCURVE",
"205 519 CURVE SMOOTH",
"120 519 OFFCURVE",
"55 460 OFFCURVE",
"55 363 CURVE SMOOTH",
"55 204 OFFCURVE",
"194 182 OFFCURVE",
"300 166 CURVE SMOOTH",
"364 156 OFFCURVE",
"416 148 OFFCURVE",
"416 112 CURVE SMOOTH",
"416 83 OFFCURVE",
"383 71 OFFCURVE",
"345 71 CURVE SMOOTH",
"303 71 OFFCURVE",
"274 85 OFFCURVE",
"274 113 CURVE SMOOTH",
"274 151 OFFCURVE",
"330 170 OFFCURVE",
"395 192 CURVE SMOOTH",
"483 222 OFFCURVE",
"588 257 OFFCURVE",
"588 354 CURVE SMOOTH",
"588 434 OFFCURVE",
"514 471 OFFCURVE",
"453 471 CURVE",
"444 434 LINE",
"514 434 OFFCURVE",
"551 400 OFFCURVE",
"551 353 CURVE SMOOTH",
"551 285 OFFCURVE",
"473 257 OFFCURVE",
"394 229 CURVE SMOOTH",
"311 199 OFFCURVE",
"225 168 OFFCURVE",
"225 87 CURVE SMOOTH",
"225 28 OFFCURVE",
"270 -14 OFFCURVE",
"336 -14 CURVE SMOOTH"
);
},
{
closed = 1;
nodes = (
"490 434 LINE SMOOTH",
"571 434 OFFCURVE",
"625 480 OFFCURVE",
"625 552 CURVE SMOOTH",
"625 607 OFFCURVE",
"594 648 OFFCURVE",
"551 664 CURVE",
"536 644 LINE",
"560 635 OFFCURVE",
"582 610 OFFCURVE",
"582 576 CURVE SMOOTH",
"582 536 OFFCURVE",
"551 509 OFFCURVE",
"490 509 CURVE SMOOTH",
"409 509 LINE",
"409 434 LINE"
);
}
);
width = 680;
}
);
unicode = 0CB3;
userData = {
public.markColor = "0.97,1,0,1";
};
},
{
color = 4;
glyphname = knLLLA;
lastChange = "2016-01-17 18:56:06 +0000";
layers = (
{
layerId = "034236B8-3FA8-43DA-9EDA-EFF269A687EC";
name = Regular;
paths = (
{
closed = 1;
nodes = (
"318 -14 OFFCURVE",
"382 43 OFFCURVE",
"405 126 CURVE",
"407 126 LINE",
"430 43 OFFCURVE",
"500 -14 OFFCURVE",
"576 -14 CURVE SMOOTH",
"676 -14 OFFCURVE",
"753 82 OFFCURVE",
"753 254 CURVE SMOOTH",
"753 392 OFFCURVE",
"685 519 OFFCURVE",
"583 519 CURVE SMOOTH",
"512 519 OFFCURVE",
"476 457 OFFCURVE",
"476 394 CURVE SMOOTH",
"476 325 OFFCURVE",
"518 273 OFFCURVE",
"585 273 CURVE SMOOTH",
"639 273 OFFCURVE",
"682 308 OFFCURVE",
"682 381 CURVE SMOOTH",
"682 394 OFFCURVE",
"681 407 OFFCURVE",
"678 429 CURVE",
"647 450 LINE",
"650 440 OFFCURVE",
"654 419 OFFCURVE",
"654 408 CURVE SMOOTH",
"654 365 OFFCURVE",
"623 344 OFFCURVE",
"579 344 CURVE SMOOTH",
"534 344 OFFCURVE",
"506 365 OFFCURVE",
"506 401 CURVE SMOOTH",
"506 440 OFFCURVE",
"540 454 OFFCURVE",
"577 454 CURVE SMOOTH",
"671 454 OFFCURVE",
"713 365 OFFCURVE",
"713 265 CURVE SMOOTH",
"713 149 OFFCURVE",
"656 71 OFFCURVE",
"572 71 CURVE SMOOTH",
"490 71 OFFCURVE",
"423 146 OFFCURVE",
"410 221 CURVE",
"401 221 LINE",
"387 145 OFFCURVE",
"323 71 OFFCURVE",
"241 71 CURVE SMOOTH",
"157 71 OFFCURVE",
"100 149 OFFCURVE",
"100 266 CURVE SMOOTH",
"100 365 OFFCURVE",
"142 454 OFFCURVE",
"235 454 CURVE SMOOTH",
"273 454 OFFCURVE",
"307 440 OFFCURVE",
"307 401 CURVE SMOOTH",
"307 365 OFFCURVE",
"279 344 OFFCURVE",
"235 344 CURVE SMOOTH",
"190 344 OFFCURVE",
"159 365 OFFCURVE",
"159 408 CURVE SMOOTH",
"159 419 OFFCURVE",
"163 440 OFFCURVE",
"166 450 CURVE",
"135 429 LINE",
"132 407 OFFCURVE",
"131 394 OFFCURVE",
"131 381 CURVE SMOOTH",
"131 308 OFFCURVE",
"174 273 OFFCURVE",
"229 273 CURVE SMOOTH",
"295 273 OFFCURVE",
"337 325 OFFCURVE",
"337 394 CURVE SMOOTH",
"337 457 OFFCURVE",
"301 519 OFFCURVE",
"230 519 CURVE SMOOTH",
"128 519 OFFCURVE",
"60 392 OFFCURVE",
"60 249 CURVE SMOOTH",
"60 82 OFFCURVE",
"137 -14 OFFCURVE",
"239 -14 CURVE SMOOTH"
);
}
);
width = 813;
}
);
unicode = 0CDE;
userData = {
public.markColor = "0.97,1,0,1";
};
},
{
color = 4;
glyphname = knAnusvara;
lastChange = "2016-01-17 18:56:06 +0000";
layers = (
{
layerId = "034236B8-3FA8-43DA-9EDA-EFF269A687EC";
name = Regular;
paths = (
{
closed = 1;
nodes = (
"378 -14 OFFCURVE",
"474 109 OFFCURVE",
"474 250 CURVE SMOOTH",
"474 392 OFFCURVE",
"379 519 OFFCURVE",
"263 519 CURVE SMOOTH",
"146 519 OFFCURVE",
"50 392 OFFCURVE",
"50 250 CURVE SMOOTH",
"50 109 OFFCURVE",
"146 -14 OFFCURVE",
"262 -14 CURVE SMOOTH"
);
},
{
closed = 1;
nodes = (
"177 71 OFFCURVE",
"87 144 OFFCURVE",
"87 259 CURVE SMOOTH",
"87 369 OFFCURVE",
"168 441 OFFCURVE",
"263 441 CURVE SMOOTH",
"357 441 OFFCURVE",
"438 369 OFFCURVE",
"438 254 CURVE SMOOTH",
"438 144 OFFCURVE",
"347 71 OFFCURVE",
"262 71 CURVE SMOOTH"
);
}
);
width = 524;
}
);
unicode = 0C82;
userData = {
public.markColor = "0.97,1,0,1";
};
},
{
color = 4;
glyphname = knCandrabindu;
lastChange = "2016-01-17 18:56:06 +0000";
layers = (
{
layerId = "034236B8-3FA8-43DA-9EDA-EFF269A687EC";
name = Regular;
paths = (
{
closed = 1;
nodes = (
"93 651 OFFCURVE",
"152 714 OFFCURVE",
"153 807 CURVE",
"123 807 LINE",
"113 747 OFFCURVE",
"75 709 OFFCURVE",
"1 709 CURVE SMOOTH",
"-72 709 OFFCURVE",
"-109 747 OFFCURVE",
"-120 807 CURVE",
"-150 807 LINE",
"-147 714 OFFCURVE",
"-89 651 OFFCURVE",
"1 651 CURVE SMOOTH"
);
},
{
closed = 1;
nodes = (
"27 819 OFFCURVE",
"47 839 OFFCURVE",
"47 866 CURVE SMOOTH",
"47 895 OFFCURVE",
"27 914 OFFCURVE",
"0 914 CURVE SMOOTH",
"-28 914 OFFCURVE",
"-48 895 OFFCURVE",
"-48 866 CURVE SMOOTH",
"-48 839 OFFCURVE",
"-28 819 OFFCURVE",
"0 819 CURVE SMOOTH"
);
}
);
width = 3;
}
);
unicode = 0C81;
userData = {
public.markColor = "0.97,1,0,1";
};
},
{
color = 4;
glyphname = knVisarga;
lastChange = "2016-01-17 18:56:06 +0000";
layers = (
{
layerId = "034236B8-3FA8-43DA-9EDA-EFF269A687EC";
name = Regular;
paths = (
{
closed = 1;
nodes = (
"237 -14 OFFCURVE",
"279 35 OFFCURVE",
"279 93 CURVE SMOOTH",
"279 151 OFFCURVE",
"237 200 OFFCURVE",
"184 200 CURVE SMOOTH",
"132 200 OFFCURVE",
"90 151 OFFCURVE",
"90 93 CURVE SMOOTH",
"90 35 OFFCURVE",
"132 -14 OFFCURVE",
"184 -14 CURVE SMOOTH"
);
},
{
closed = 1;
nodes = (
"152 34 OFFCURVE",
"125 59 OFFCURVE",
"125 93 CURVE SMOOTH",
"125 126 OFFCURVE",
"152 153 OFFCURVE",
"184 153 CURVE SMOOTH",
"217 153 OFFCURVE",
"244 126 OFFCURVE",
"244 93 CURVE SMOOTH",
"244 59 OFFCURVE",
"217 34 OFFCURVE",
"184 34 CURVE SMOOTH"
);
},
{
closed = 1;
nodes = (
"237 271 OFFCURVE",
"279 319 OFFCURVE",
"279 377 CURVE SMOOTH",
"279 436 OFFCURVE",
"237 484 OFFCURVE",
"184 484 CURVE SMOOTH",
"132 484 OFFCURVE",
"90 436 OFFCURVE",
"90 377 CURVE SMOOTH",
"90 319 OFFCURVE",
"132 271 OFFCURVE",
"184 271 CURVE SMOOTH"
);
},
{
closed = 1;
nodes = (
"152 318 OFFCURVE",
"125 344 OFFCURVE",
"125 377 CURVE SMOOTH",
"125 410 OFFCURVE",
"152 437 OFFCURVE",
"184 437 CURVE SMOOTH",
"217 437 OFFCURVE",
"244 410 OFFCURVE",
"244 377 CURVE SMOOTH",
"244 344 OFFCURVE",
"217 318 OFFCURVE",
"184 318 CURVE SMOOTH"
);
}
);
width = 369;
}
);
unicode = 0C83;
userData = {
public.markColor = "0.97,1,0,1";
};
},
{
color = 4;
glyphname = knNukta;
lastChange = "2016-01-17 18:56:06 +0000";
layers = (
{
layerId = "034236B8-3FA8-43DA-9EDA-EFF269A687EC";
name = Regular;
paths = (
{
closed = 1;
nodes = (
"372 -177 OFFCURVE",
"396 -152 OFFCURVE",
"396 -120 CURVE SMOOTH",
"396 -87 OFFCURVE",
"372 -63 OFFCURVE",
"339 -63 CURVE SMOOTH",
"307 -63 OFFCURVE",
"282 -87 OFFCURVE",
"282 -120 CURVE SMOOTH",
"282 -152 OFFCURVE",
"307 -177 OFFCURVE",
"339 -177 CURVE SMOOTH"
);
},
{
closed = 1;
nodes = (
"170 -177 OFFCURVE",
"194 -152 OFFCURVE",
"194 -120 CURVE SMOOTH",
"194 -87 OFFCURVE",
"170 -63 OFFCURVE",
"137 -63 CURVE SMOOTH",
"105 -63 OFFCURVE",
"80 -87 OFFCURVE",
"80 -120 CURVE SMOOTH",
"80 -152 OFFCURVE",
"105 -177 OFFCURVE",
"137 -177 CURVE SMOOTH"
);
}
);
width = 476;
}
);
unicode = 0CBC;
userData = {
public.markColor = "0.97,1,0,1";
};
},
{
color = 4;
glyphname = knAvagraha;
lastChange = "2016-01-17 18:56:06 +0000";
layers = (
{
layerId = "034236B8-3FA8-43DA-9EDA-EFF269A687EC";
name = Regular;
paths = (
{
closed = 1;
nodes = (
"289 -14 OFFCURVE",
"361 40 OFFCURVE",
"361 123 CURVE SMOOTH",
"361 284 OFFCURVE",
"90 288 OFFCURVE",
"90 384 CURVE SMOOTH",
"90 411 OFFCURVE",
"112 437 OFFCURVE",
"164 437 CURVE SMOOTH",
"356 437 LINE",
"356 519 LINE",
"161 519 LINE SMOOTH",
"83 519 OFFCURVE",
"38 467 OFFCURVE",
"38 404 CURVE SMOOTH",
"38 380 OFFCURVE",
"44 354 OFFCURVE",
"63 331 CURVE SMOOTH",
"126 258 OFFCURVE",
"311 229 OFFCURVE",
"311 150 CURVE SMOOTH",
"311 116 OFFCURVE",
"278 93 OFFCURVE",
"215 93 CURVE SMOOTH",
"138 93 OFFCURVE",
"85 126 OFFCURVE",
"59 178 CURVE",
"35 154 LINE",
"47 45 OFFCURVE",
"115 -14 OFFCURVE",
"206 -14 CURVE SMOOTH"
);
}
);
width = 406;
}
);
unicode = 0CBD;
userData = {
public.markColor = "0.97,1,0,1";
};
},
{
color = 4;
glyphname = knZero;
lastChange = "2016-01-17 18:56:06 +0000";
layers = (
{
layerId = "034236B8-3FA8-43DA-9EDA-EFF269A687EC";
name = Regular;
paths = (
{
closed = 1;
nodes = (
"365 71 OFFCURVE",
"439 117 OFFCURVE",
"439 251 CURVE SMOOTH",
"439 372 OFFCURVE",
"376 434 OFFCURVE",
"267 434 CURVE",
"158 434 OFFCURVE",
"95 372 OFFCURVE",
"95 251 CURVE SMOOTH",
"95 117 OFFCURVE",
"169 71 OFFCURVE",
"267 71 CURVE"
);
},
{
closed = 1;
nodes = (
"152 -14 OFFCURVE",
"55 85 OFFCURVE",
"55 251 CURVE SMOOTH",
"55 411 OFFCURVE",
"141 519 OFFCURVE",
"267 519 CURVE",
"393 519 OFFCURVE",
"479 411 OFFCURVE",
"479 251 CURVE SMOOTH",
"479 85 OFFCURVE",
"382 -14 OFFCURVE",
"267 -14 CURVE"
);
}
);
width = 534;
}
);
unicode = 0CE6;
userData = {
public.markColor = "0.97,1,0,1";
};
},
{
color = 4;
glyphname = knOne;
lastChange = "2016-01-17 18:56:06 +0000";
layers = (
{
background = {
paths = (
{
closed = 1;
nodes = (
"376 434 OFFCURVE",
"439 372 OFFCURVE",
"439 251 CURVE SMOOTH",
"439 137 OFFCURVE",
"387 106 OFFCURVE",
"314 57 CURVE",
"362 -14 LINE",
"445 65 OFFCURVE",
"479 138 OFFCURVE",
"479 249 CURVE SMOOTH",
"479 411 OFFCURVE",
"393 519 OFFCURVE",
"267 519 CURVE",
"141 519 OFFCURVE",
"55 411 OFFCURVE",
"55 249 CURVE SMOOTH",
"55 138 OFFCURVE",
"89 65 OFFCURVE",
"172 -14 CURVE",
"220 57 LINE",
"147 106 OFFCURVE",
"95 137 OFFCURVE",
"95 251 CURVE SMOOTH",
"95 372 OFFCURVE",
"158 434 OFFCURVE",
"267 434 CURVE"
);
}
);
};
layerId = "034236B8-3FA8-43DA-9EDA-EFF269A687EC";
name = Regular;
paths = (
{
closed = 1;
nodes = (
"376 434 OFFCURVE",
"439 372 OFFCURVE",
"439 251 CURVE SMOOTH",
"439 157 OFFCURVE",
"398 100 OFFCURVE",
"314 62 CURVE",
"362 -14 LINE",
"445 65 OFFCURVE",
"479 138 OFFCURVE",
"479 249 CURVE SMOOTH",
"479 411 OFFCURVE",
"393 519 OFFCURVE",
"267 519 CURVE",
"141 519 OFFCURVE",
"55 411 OFFCURVE",
"55 249 CURVE SMOOTH",
"55 138 OFFCURVE",
"89 65 OFFCURVE",
"172 -14 CURVE",
"220 62 LINE",
"136 100 OFFCURVE",
"95 157 OFFCURVE",
"95 251 CURVE SMOOTH",
"95 372 OFFCURVE",
"158 434 OFFCURVE",
"267 434 CURVE"
);
}
);
width = 534;
}
);
unicode = 0CE7;
userData = {
public.markColor = "0.97,1,0,1";
};
},
{
color = 4;
glyphname = knTwo;
lastChange = "2016-01-17 18:56:06 +0000";
layers = (
{
layerId = "034236B8-3FA8-43DA-9EDA-EFF269A687EC";
name = Regular;
paths = (
{
closed = 1;
nodes = (
"190 415 OFFCURVE",
"221 439 OFFCURVE",
"264 439 CURVE SMOOTH",
"332 439 OFFCURVE",
"403 380 OFFCURVE",
"403 265 CURVE SMOOTH",
"403 147 OFFCURVE",
"334 62 OFFCURVE",
"190 62 CURVE SMOOTH",
"25 62 LINE",
"25 -14 LINE",
"167 -14 LINE SMOOTH",
"356 -14 OFFCURVE",
"443 105 OFFCURVE",
"443 265 CURVE SMOOTH",
"443 423 OFFCURVE",
"369 519 OFFCURVE",
"275 519 CURVE SMOOTH",
"194 519 OFFCURVE",
"151 450 OFFCURVE",
"151 372 CURVE",
"151 301 OFFCURVE",
"189 243 OFFCURVE",
"247 243 CURVE SMOOTH",
"296 243 OFFCURVE",
"331 284 OFFCURVE",
"338 326 CURVE",
"322 346 LINE",
"309 331 OFFCURVE",
"289 323 OFFCURVE",
"263 323 CURVE SMOOTH",
"219 323 OFFCURVE",
"190 345 OFFCURVE",
"190 379 CURVE"
);
}
);
width = 498;
}
);
unicode = 0CE8;
userData = {
public.markColor = "0.97,1,0,1";
};
},
{
color = 4;
glyphname = knThree;
lastChange = "2016-01-17 18:56:06 +0000";
layers = (
{
layerId = "034236B8-3FA8-43DA-9EDA-EFF269A687EC";
name = Regular;
paths = (
{
closed = 1;
nodes = (
"295 -14 OFFCURVE",
"376 124 OFFCURVE",
"376 278 CURVE SMOOTH",
"376 423 OFFCURVE",
"298 519 OFFCURVE",
"199 519 CURVE SMOOTH",
"122 519 OFFCURVE",
"86 462 OFFCURVE",
"86 390 CURVE SMOOTH",
"86 319 OFFCURVE",
"122 274 OFFCURVE",
"174 274 CURVE SMOOTH",
"224 274 OFFCURVE",
"264 315 OFFCURVE",
"271 357 CURVE",
"255 377 LINE",
"242 362 OFFCURVE",
"218 354 OFFCURVE",
"188 354 CURVE SMOOTH",
"148 354 OFFCURVE",
"123 369 OFFCURVE",
"123 397 CURVE SMOOTH",
"123 423 OFFCURVE",
"145 439 OFFCURVE",
"188 439 CURVE SMOOTH",
"271 439 OFFCURVE",
"336 380 OFFCURVE",
"336 263 CURVE SMOOTH",
"336 134 OFFCURVE",
"259 71 OFFCURVE",
"174 71 CURVE SMOOTH",
"126 71 OFFCURVE",
"94 91 OFFCURVE",
"94 126 CURVE SMOOTH",
"94 158 OFFCURVE",
"121 177 OFFCURVE",
"166 177 CURVE SMOOTH",
"311 177 OFFCURVE",
"314 -14 OFFCURVE",
"459 -14 CURVE SMOOTH",
"540 -14 OFFCURVE",
"573 47 OFFCURVE",
"578 95 CURVE",
"562 109 LINE",
"540 82 OFFCURVE",
"511 71 OFFCURVE",
"479 71 CURVE SMOOTH",
"364 71 OFFCURVE",
"293 214 OFFCURVE",
"165 214 CURVE SMOOTH",
"93 214 OFFCURVE",
"50 169 OFFCURVE",
"50 104 CURVE SMOOTH",
"50 42 OFFCURVE",
"90 -14 OFFCURVE",
"170 -14 CURVE SMOOTH"
);
}
);
width = 598;
}
);
unicode = 0CE9;
userData = {
public.markColor = "0.97,1,0,1";
};
},
{
color = 4;
glyphname = knFour;
lastChange = "2016-01-17 18:56:06 +0000";
layers = (
{
layerId = "034236B8-3FA8-43DA-9EDA-EFF269A687EC";
name = Regular;
paths = (
{
closed = 1;
nodes = (
"408 -14 OFFCURVE",
"452 34 OFFCURVE",
"452 102 CURVE SMOOTH",
"452 203 OFFCURVE",
"354 224 OFFCURVE",
"257 245 CURVE SMOOTH",
"173 263 OFFCURVE",
"90 281 OFFCURVE",
"90 356 CURVE SMOOTH",
"90 422 OFFCURVE",
"156 454 OFFCURVE",
"220 454 CURVE SMOOTH",
"275 454 OFFCURVE",
"290 430 OFFCURVE",
"290 412 CURVE SMOOTH",
"290 391 OFFCURVE",
"270 373 OFFCURVE",
"231 373 CURVE SMOOTH",
"188 373 OFFCURVE",
"168 394 OFFCURVE",
"168 430 CURVE SMOOTH",
"168 450 OFFCURVE",
"174 465 OFFCURVE",
"180 477 CURVE",
"156 482 LINE",
"144 460 OFFCURVE",
"138 436 OFFCURVE",
"138 410 CURVE SMOOTH",
"138 350 OFFCURVE",
"174 310 OFFCURVE",
"231 310 CURVE SMOOTH",
"296 310 OFFCURVE",
"320 363 OFFCURVE",
"320 414 CURVE SMOOTH",
"320 467 OFFCURVE",
"287 519 OFFCURVE",
"206 519 CURVE SMOOTH",
"120 519 OFFCURVE",
"55 460 OFFCURVE",
"55 355 CURVE SMOOTH",
"55 205 OFFCURVE",
"193 183 OFFCURVE",
"298 166 CURVE SMOOTH",
"363 155 OFFCURVE",
"416 146 OFFCURVE",
"416 111 CURVE SMOOTH",
"416 83 OFFCURVE",
"383 71 OFFCURVE",
"344 71 CURVE SMOOTH",
"303 71 OFFCURVE",
"271 85 OFFCURVE",
"271 114 CURVE SMOOTH",
"271 203 OFFCURVE",
"589 186 OFFCURVE",
"589 370 CURVE SMOOTH",
"589 450 OFFCURVE",
"525 513 OFFCURVE",
"460 513 CURVE SMOOTH",
"424 513 OFFCURVE",
"409 493 OFFCURVE",
"409 471 CURVE SMOOTH",
"409 451 OFFCURVE",
"421 435 OFFCURVE",
"437 430 CURVE SMOOTH",
"448 427 OFFCURVE",
"458 426 OFFCURVE",
"469 425 CURVE SMOOTH",
"480 425 OFFCURVE",
"493 424 OFFCURVE",
"508 418 CURVE SMOOTH",
"535 408 OFFCURVE",
"552 387 OFFCURVE",
"552 354 CURVE SMOOTH",
"552 285 OFFCURVE",
"474 257 OFFCURVE",
"395 229 CURVE SMOOTH",
"311 199 OFFCURVE",
"225 168 OFFCURVE",
"225 87 CURVE SMOOTH",
"225 28 OFFCURVE",
"270 -14 OFFCURVE",
"337 -14 CURVE SMOOTH"
);
}
);
width = 637;
}
);
unicode = 0CEA;
userData = {
public.markColor = "0.97,1,0,1";
};
},
{
color = 4;
glyphname = knFive;
lastChange = "2016-01-17 18:56:06 +0000";
layers = (
{
layerId = "034236B8-3FA8-43DA-9EDA-EFF269A687EC";
name = Regular;
paths = (
{
closed = 1;
nodes = (
"244 439 OFFCURVE",
"298 380 OFFCURVE",
"298 262 CURVE SMOOTH",
"298 134 OFFCURVE",
"237 69 OFFCURVE",
"166 69 CURVE SMOOTH",
"131 69 OFFCURVE",
"108 85 OFFCURVE",
"108 117 CURVE SMOOTH",
"108 168 OFFCURVE",
"168 197 OFFCURVE",
"325 231 CURVE SMOOTH",
"512 271 OFFCURVE",
"579 325 OFFCURVE",
"579 416 CURVE SMOOTH",
"579 477 OFFCURVE",
"548 518 OFFCURVE",
"498 518 CURVE SMOOTH",
"443 518 OFFCURVE",
"406 471 OFFCURVE",
"406 402 CURVE SMOOTH",
"406 291 OFFCURVE",
"492 212 OFFCURVE",
"492 146 CURVE SMOOTH",
"492 106 OFFCURVE",
"461 79 OFFCURVE",
"416 67 CURVE",
"454 -7 LINE",
"502 19 OFFCURVE",
"531 67 OFFCURVE",
"531 121 CURVE SMOOTH",
"531 217 OFFCURVE",
"437 293 OFFCURVE",
"437 376 CURVE SMOOTH",
"437 421 OFFCURVE",
"465 439 OFFCURVE",
"495 439 CURVE SMOOTH",
"523 439 OFFCURVE",
"547 424 OFFCURVE",
"547 391 CURVE SMOOTH",
"547 340 OFFCURVE",
"488 299 OFFCURVE",
"316 262 CURVE SMOOTH",
"141 224 OFFCURVE",
"66 184 OFFCURVE",
"66 98 CURVE SMOOTH",
"66 35 OFFCURVE",
"106 -14 OFFCURVE",
"178 -14 CURVE SMOOTH",
"297 -14 OFFCURVE",
"330 124 OFFCURVE",
"330 260 CURVE SMOOTH",
"330 423 OFFCURVE",
"270 519 OFFCURVE",
"172 519 CURVE",
"97 519 OFFCURVE",
"61 462 OFFCURVE",
"61 391 CURVE SMOOTH",
"61 319 OFFCURVE",
"98 274 OFFCURVE",
"150 274 CURVE SMOOTH",
"199 274 OFFCURVE",
"239 315 OFFCURVE",
"245 358 CURVE",
"229 377 LINE",
"213 363 OFFCURVE",
"193 354 OFFCURVE",
"163 354 CURVE SMOOTH",
"123 354 OFFCURVE",
"98 369 OFFCURVE",
"98 397 CURVE SMOOTH",
"98 423 OFFCURVE",
"120 439 OFFCURVE",
"163 439 CURVE"
);
}
);
width = 660;
}
);
unicode = 0CEB;
userData = {
public.markColor = "0.97,1,0,1";
};
},
{
color = 4;
glyphname = knSix;
lastChange = "2016-01-17 18:56:06 +0000";
layers = (
{
layerId = "034236B8-3FA8-43DA-9EDA-EFF269A687EC";
name = Regular;
paths = (
{
closed = 1;
nodes = (
"68 543 OFFCURVE",
"107 597 OFFCURVE",
"169 597 CURVE SMOOTH",
"222 597 OFFCURVE",
"259 557 OFFCURVE",
"259 495 CURVE SMOOTH",
"259 400 OFFCURVE",
"173 374 OFFCURVE",
"173 318 CURVE SMOOTH",
"173 288 OFFCURVE",
"199 267 OFFCURVE",
"249 267 CURVE SMOOTH",
"301 267 OFFCURVE",
"329 289 OFFCURVE",
"329 320 CURVE SMOOTH",
"329 354 OFFCURVE",
"296 380 OFFCURVE",
"243 380 CURVE",
"157 380 OFFCURVE",
"90 310 OFFCURVE",
"90 219 CURVE",
"90 134 OFFCURVE",
"149 62 OFFCURVE",
"258 62 CURVE SMOOTH",
"448 62 LINE",
"448 -14 LINE",
"259 -14 LINE SMOOTH",
"129 -14 OFFCURVE",
"50 77 OFFCURVE",
"50 214 CURVE",
"50 352 OFFCURVE",
"129 442 OFFCURVE",
"236 442 CURVE SMOOTH",
"308 442 OFFCURVE",
"359 400 OFFCURVE",
"359 322 CURVE SMOOTH",
"359 253 OFFCURVE",
"319 204 OFFCURVE",
"251 204 CURVE SMOOTH",
"197 204 OFFCURVE",
"142 236 OFFCURVE",
"142 300 CURVE SMOOTH",
"142 377 OFFCURVE",
"220 412 OFFCURVE",
"220 464 CURVE",
"220 495 OFFCURVE",
"191 517 OFFCURVE",
"149 517 CURVE SMOOTH",
"118 517 OFFCURVE",
"95 505 OFFCURVE",
"80 479 CURVE",
"68 487 LINE"
);
}
);
width = 473;
}
);
unicode = 0CEC;
userData = {
public.markColor = "0.97,1,0,1";
};
},
{
color = 4;
glyphname = knSeven;
lastChange = "2016-01-17 18:56:06 +0000";
layers = (
{
layerId = "034236B8-3FA8-43DA-9EDA-EFF269A687EC";
name = Regular;
paths = (
{
closed = 1;
nodes = (
"89 88 OFFCURVE",
"119 62 OFFCURVE",
"188 62 CURVE SMOOTH",
"448 62 LINE",
"448 -14 LINE",
"199 -14 LINE SMOOTH",
"109 -14 OFFCURVE",
"50 32 OFFCURVE",
"50 114 CURVE SMOOTH",
"50 279 OFFCURVE",
"290 263 OFFCURVE",
"290 376 CURVE SMOOTH",
"290 417 OFFCURVE",
"259 440 OFFCURVE",
"219 440 CURVE SMOOTH",
"170 440 OFFCURVE",
"144 405 OFFCURVE",
"144 375 CURVE SMOOTH",
"144 364 OFFCURVE",
"148 353 OFFCURVE",
"154 345 CURVE",
"134 330 LINE",
"113 352 OFFCURVE",
"105 381 OFFCURVE",
"105 407 CURVE SMOOTH",
"105 465 OFFCURVE",
"144 519 OFFCURVE",
"224 519 CURVE SMOOTH",
"298 519 OFFCURVE",
"343 473 OFFCURVE",
"343 407 CURVE SMOOTH",
"343 250 OFFCURVE",
"89 234 OFFCURVE",
"89 125 CURVE SMOOTH"
);
},
{
closed = 0;
nodes = (
"188 62 LINE",
"448 62 LINE",
"448 -14 LINE",
"199 -14 LINE"
);
}
);
width = 485;
}
);
unicode = 0CED;
userData = {
public.markColor = "0.97,1,0,1";
};
},
{
color = 4;
glyphname = knEight;
lastChange = "2016-01-17 18:56:06 +0000";
layers = (
{
layerId = "034236B8-3FA8-43DA-9EDA-EFF269A687EC";
name = Regular;
paths = (
{
closed = 1;
nodes = (
"508 117 OFFCURVE",
"460 70 OFFCURVE",
"361 70 CURVE SMOOTH",
"210 70 OFFCURVE",
"100 171 OFFCURVE",
"100 304 CURVE SMOOTH",
"100 387 OFFCURVE",
"142 454 OFFCURVE",
"232 454 CURVE SMOOTH",
"273 454 OFFCURVE",
"307 440 OFFCURVE",
"307 401 CURVE SMOOTH",
"307 365 OFFCURVE",
"279 344 OFFCURVE",
"235 344 CURVE SMOOTH",
"190 344 OFFCURVE",
"159 365 OFFCURVE",
"159 408 CURVE SMOOTH",
"159 424 OFFCURVE",
"163 440 OFFCURVE",
"166 450 CURVE",
"135 429 LINE",
"132 415 OFFCURVE",
"131 398 OFFCURVE",
"131 384 CURVE SMOOTH",
"131 310 OFFCURVE",
"174 273 OFFCURVE",
"229 273 CURVE SMOOTH",
"295 273 OFFCURVE",
"337 325 OFFCURVE",
"337 391 CURVE SMOOTH",
"337 457 OFFCURVE",
"301 519 OFFCURVE",
"226 519 CURVE SMOOTH",
"128 519 OFFCURVE",
"60 414 OFFCURVE",
"60 283 CURVE SMOOTH",
"60 104 OFFCURVE",
"180 -14 OFFCURVE",
"351 -14 CURVE SMOOTH",
"475 -14 OFFCURVE",
"556 51 OFFCURVE",
"556 149 CURVE SMOOTH",
"556 209 OFFCURVE",
"527 250 OFFCURVE",
"500 288 CURVE SMOOTH",
"480 317 OFFCURVE",
"461 344 OFFCURVE",
"461 374 CURVE SMOOTH",
"461 410 OFFCURVE",
"488 434 OFFCURVE",
"542 434 CURVE SMOOTH",
"583 434 LINE",
"583 508 LINE",
"536 508 LINE SMOOTH",
"466 508 OFFCURVE",
"420 465 OFFCURVE",
"420 395 CURVE SMOOTH",
"420 345 OFFCURVE",
"444 310 OFFCURVE",
"467 276 CURVE SMOOTH",
"488 245 OFFCURVE",
"508 216 OFFCURVE",
"508 177 CURVE SMOOTH"
);
}
);
width = 628;
}
);
unicode = 0CEE;
userData = {
public.markColor = "0.97,1,0,1";
};
},
{
color = 4;
glyphname = knNine;
lastChange = "2016-01-17 18:56:06 +0000";
layers = (
{
layerId = "034236B8-3FA8-43DA-9EDA-EFF269A687EC";
name = Regular;
paths = (
{
closed = 1;
nodes = (
"352 -14 OFFCURVE",
"370 7 OFFCURVE",
"370 28 CURVE SMOOTH",
"370 43 OFFCURVE",
"361 57 OFFCURVE",
"347 63 CURVE SMOOTH",
"337 67 OFFCURVE",
"327 68 OFFCURVE",
"315 69 CURVE SMOOTH",
"304 69 OFFCURVE",
"291 70 OFFCURVE",
"276 73 CURVE SMOOTH",
"215 86 OFFCURVE",
"173 127 OFFCURVE",
"173 198 CURVE SMOOTH",
"173 271 OFFCURVE",
"218 318 OFFCURVE",
"279 318 CURVE SMOOTH",
"323 318 OFFCURVE",
"344 293 OFFCURVE",
"344 270 CURVE SMOOTH",
"344 244 OFFCURVE",
"316 221 OFFCURVE",
"252 221 CURVE SMOOTH",
"162 221 OFFCURVE",
"91 266 OFFCURVE",
"91 336 CURVE SMOOTH",
"91 395 OFFCURVE",
"142 434 OFFCURVE",
"225 434 CURVE SMOOTH",
"492 434 LINE",
"492 508 LINE",
"221 508 LINE SMOOTH",
"122 508 OFFCURVE",
"55 446 OFFCURVE",
"55 353 CURVE SMOOTH",
"55 239 OFFCURVE",
"153 151 OFFCURVE",
"261 151 CURVE SMOOTH",
"343 151 OFFCURVE",
"380 201 OFFCURVE",
"380 255 CURVE SMOOTH",
"380 308 OFFCURVE",
"344 350 OFFCURVE",
"279 350 CURVE SMOOTH",
"202 350 OFFCURVE",
"138 291 OFFCURVE",
"138 189 CURVE SMOOTH",
"138 68 OFFCURVE",
"230 -14 OFFCURVE",
"310 -14 CURVE SMOOTH"
);
}
);
width = 555;
}
);
unicode = 0CEF;
userData = {
public.markColor = "0.97,1,0,1";
};
},
{
color = 6;
glyphname = .notdef;
layers = (
{
layerId = "034236B8-3FA8-43DA-9EDA-EFF269A687EC";
name = Regular;
paths = (
{
closed = 1;
nodes = (
"570 0 LINE",
"570 701 LINE",
"180 701 LINE",
"180 0 LINE"
);
},
{
closed = 1;
nodes = (
"234 651 LINE",
"516 651 LINE",
"516 50 LINE",
"234 50 LINE"
);
}
);
width = 750;
}
);
userData = {
public.markColor = "0,0.67,0.91,1";
};
},
{
color = 6;
glyphname = indianrupee;
layers = (
{
layerId = "034236B8-3FA8-43DA-9EDA-EFF269A687EC";
name = Regular;
paths = (
{
closed = 1;
nodes = (
"166 264 LINE SMOOTH",
"306 264 OFFCURVE",
"394 343 OFFCURVE",
"394 458 CURVE SMOOTH",
"394 582 OFFCURVE",
"328 652 OFFCURVE",
"159 652 CURVE SMOOTH",
"67 652 LINE",
"67 617 LINE",
"166 617 LINE SMOOTH",
"280 617 OFFCURVE",
"332 554 OFFCURVE",
"332 458 CURVE SMOOTH",
"332 371 OFFCURVE",
"275 319 OFFCURVE",
"166 319 CURVE SMOOTH",
"65 319 LINE",
"65 264 LINE"
);
},
{
closed = 1;
nodes = (
"346 0 LINE",
"138 264 LINE",
"65 264 LINE",
"269 0 LINE"
);
},
{
closed = 1;
nodes = (
"486 445 LINE",
"486 502 LINE",
"65 502 LINE",
"65 445 LINE"
);
},
{
closed = 1;
nodes = (
"486 617 LINE",
"486 674 LINE",
"65 674 LINE",
"65 617 LINE"
);
}
);
width = 536;
}
);
userData = {
com.typemytype.robofont.layerData = {
bkgd = {
anchors = (
);
components = (
);
contours = (
);
lib = {
};
name = indianrupee;
unicodes = (
);
width = 536;
};
};
com.typemytype.robofont.mark = (
1,
0.725,
0.715,
1
);
public.markColor = "0,0.67,0.91,1";
};
},
{
color = 6;
glyphname = zerowidthnonjoiner;
layers = (
{
layerId = "034236B8-3FA8-43DA-9EDA-EFF269A687EC";
name = Regular;
paths = (
{
closed = 1;
nodes = (
"24 -230 LINE",
"24 811 LINE",
"-23 811 LINE",
"-23 -230 LINE"
);
}
);
width = 0;
}
);
unicode = 200C;
userData = {
public.markColor = "0,0.67,0.91,1";
};
},
{
color = 6;
glyphname = zerowidthjoiner;
layers = (
{
layerId = "034236B8-3FA8-43DA-9EDA-EFF269A687EC";
name = Regular;
paths = (
{
closed = 1;
nodes = (
"24 -230 LINE",
"24 635 LINE",
"96 560 LINE",
"129 593 LINE",
"33 688 LINE",
"129 784 LINE",
"97 816 LINE",
"1 721 LINE",
"-94 816 LINE",
"-127 783 LINE",
"-32 688 LINE",
"-125 595 LINE",
"-92 562 LINE",
"-23 635 LINE",
"-23 -230 LINE"
);
}
);
width = 0;
}
);
unicode = FEFF;
userData = {
public.markColor = "0,0.67,0.91,1";
};
},
{
color = 6;
glyphname = dottedcircle;
layers = (
{
layerId = "034236B8-3FA8-43DA-9EDA-EFF269A687EC";
name = Regular;
paths = (
{
closed = 1;
nodes = (
"267 44 OFFCURVE",
"286 64 OFFCURVE",
"286 90 CURVE SMOOTH",
"286 114 OFFCURVE",
"267 134 OFFCURVE",
"242 134 CURVE SMOOTH",
"216 134 OFFCURVE",
"197 114 OFFCURVE",
"197 90 CURVE SMOOTH",
"197 64 OFFCURVE",
"216 44 OFFCURVE",
"242 44 CURVE SMOOTH"
);
},
{
closed = 1;
nodes = (
"165 121 OFFCURVE",
"184 139 OFFCURVE",
"184 165 CURVE SMOOTH",
"184 190 OFFCURVE",
"165 209 OFFCURVE",
"140 209 CURVE SMOOTH",
"114 209 OFFCURVE",
"96 190 OFFCURVE",
"96 165 CURVE SMOOTH",
"96 139 OFFCURVE",
"114 121 OFFCURVE",
"140 121 CURVE SMOOTH"
);
},
{
closed = 1;
nodes = (
"114 238 OFFCURVE",
"132 256 OFFCURVE",
"132 281 CURVE SMOOTH",
"132 307 OFFCURVE",
"114 326 OFFCURVE",
"88 326 CURVE SMOOTH",
"63 326 OFFCURVE",
"44 307 OFFCURVE",
"44 281 CURVE SMOOTH",
"44 256 OFFCURVE",
"63 238 OFFCURVE",
"88 238 CURVE SMOOTH"
);
},
{
closed = 1;
nodes = (
"394 30 OFFCURVE",
"413 48 OFFCURVE",
"413 74 CURVE SMOOTH",
"413 100 OFFCURVE",
"394 118 OFFCURVE",
"368 118 CURVE SMOOTH",
"342 118 OFFCURVE",
"324 100 OFFCURVE",
"324 74 CURVE SMOOTH",
"324 48 OFFCURVE",
"342 30 OFFCURVE",
"368 30 CURVE SMOOTH"
);
},
{
closed = 1;
nodes = (
"127 363 OFFCURVE",
"147 382 OFFCURVE",
"147 407 CURVE SMOOTH",
"147 432 OFFCURVE",
"127 451 OFFCURVE",
"103 451 CURVE SMOOTH",
"77 451 OFFCURVE",
"57 432 OFFCURVE",
"57 407 CURVE SMOOTH",
"57 382 OFFCURVE",
"77 363 OFFCURVE",
"103 363 CURVE SMOOTH"
);
},
{
closed = 1;
nodes = (
"514 83 OFFCURVE",
"534 101 OFFCURVE",
"534 127 CURVE SMOOTH",
"534 152 OFFCURVE",
"514 171 OFFCURVE",
"489 171 CURVE SMOOTH",
"464 171 OFFCURVE",
"445 152 OFFCURVE",
"445 127 CURVE SMOOTH",
"445 101 OFFCURVE",
"464 83 OFFCURVE",
"489 83 CURVE SMOOTH"
);
},
{
closed = 1;
nodes = (
"209 472 OFFCURVE",
"227 491 OFFCURVE",
"227 517 CURVE SMOOTH",
"227 542 OFFCURVE",
"209 561 OFFCURVE",
"183 561 CURVE SMOOTH",
"157 561 OFFCURVE",
"139 542 OFFCURVE",
"139 517 CURVE SMOOTH",
"139 491 OFFCURVE",
"157 472 OFFCURVE",
"183 472 CURVE SMOOTH"
);
},
{
closed = 1;
nodes = (
"587 181 OFFCURVE",
"606 200 OFFCURVE",
"606 225 CURVE SMOOTH",
"606 251 OFFCURVE",
"587 270 OFFCURVE",
"563 270 CURVE SMOOTH",
"537 270 OFFCURVE",
"518 251 OFFCURVE",
"518 225 CURVE SMOOTH",
"518 200 OFFCURVE",
"537 181 OFFCURVE",
"563 181 CURVE SMOOTH"
);
},
{
closed = 1;
nodes = (
"327 516 OFFCURVE",
"345 534 OFFCURVE",
"345 560 CURVE SMOOTH",
"345 586 OFFCURVE",
"327 604 OFFCURVE",
"301 604 CURVE SMOOTH",
"275 604 OFFCURVE",
"257 586 OFFCURVE",
"257 560 CURVE SMOOTH",
"257 534 OFFCURVE",
"275 516 OFFCURVE",
"301 516 CURVE SMOOTH"
);
},
{
closed = 1;
nodes = (
"597 315 OFFCURVE",
"616 333 OFFCURVE",
"616 359 CURVE SMOOTH",
"616 385 OFFCURVE",
"597 403 OFFCURVE",
"572 403 CURVE SMOOTH",
"546 403 OFFCURVE",
"528 385 OFFCURVE",
"528 359 CURVE SMOOTH",
"528 333 OFFCURVE",
"546 315 OFFCURVE",
"572 315 CURVE SMOOTH"
);
},
{
closed = 1;
nodes = (
"453 501 OFFCURVE",
"471 521 OFFCURVE",
"471 545 CURVE SMOOTH",
"471 571 OFFCURVE",
"453 590 OFFCURVE",
"428 590 CURVE SMOOTH",
"402 590 OFFCURVE",
"383 571 OFFCURVE",
"383 545 CURVE SMOOTH",
"383 521 OFFCURVE",
"402 501 OFFCURVE",
"428 501 CURVE SMOOTH"
);
},
{
closed = 1;
nodes = (
"548 433 OFFCURVE",
"566 452 OFFCURVE",
"566 477 CURVE SMOOTH",
"566 503 OFFCURVE",
"548 522 OFFCURVE",
"522 522 CURVE SMOOTH",
"497 522 OFFCURVE",
"478 503 OFFCURVE",
"478 477 CURVE SMOOTH",
"478 452 OFFCURVE",
"497 433 OFFCURVE",
"522 433 CURVE SMOOTH"
);
}
);
width = 660;
}
);
unicode = 25CC;
userData = {
public.markColor = "0,0.67,0.91,1";
};
},
{
color = 10;
glyphname = knReph;
layers = (
{
layerId = "034236B8-3FA8-43DA-9EDA-EFF269A687EC";
name = Regular;
paths = (
{
closed = 1;
nodes = (
"361 293 LINE",
"339 293 OFFCURVE",
"250 292 OFFCURVE",
"212 293 CURVE SMOOTH",
"122 292 OFFCURVE",
"91 326 OFFCURVE",
"91 365 CURVE SMOOTH",
"91 403 OFFCURVE",
"120 434 OFFCURVE",
"223 434 CURVE SMOOTH",
"492 434 LINE",
"492 508 LINE",
"219 508 LINE SMOOTH",
"101 508 OFFCURVE",
"55 444 OFFCURVE",
"55 369 CURVE SMOOTH",
"55 286 OFFCURVE",
"119 220 OFFCURVE",
"216 220 CURVE SMOOTH",
"246 220 OFFCURVE",
"314 220 OFFCURVE",
"361 220 CURVE"
);
},
{
closed = 1;
nodes = (
"336 293 LINE",
"278 293 LINE",
"186 293 OFFCURVE",
"98 241 OFFCURVE",
"98 140 CURVE SMOOTH",
"98 46 OFFCURVE",
"166 -14 OFFCURVE",
"236 -14 CURVE SMOOTH",
"272 -14 OFFCURVE",
"290 7 OFFCURVE",
"290 27 CURVE SMOOTH",
"290 44 OFFCURVE",
"281 56 OFFCURVE",
"267 63 CURVE SMOOTH",
"252 71 OFFCURVE",
"228 65 OFFCURVE",
"197 73 CURVE SMOOTH",
"156 83 OFFCURVE",
"133 107 OFFCURVE",
"133 142 CURVE SMOOTH",
"133 178 OFFCURVE",
"158 220 OFFCURVE",
"249 220 CURVE",
"336 220 LINE"
);
}
);
width = 517;
}
);
userData = {
public.markColor = "0.75,0.75,0.75,1";
};
},
{
color = (255,215,172,1);
glyphname = knKAc2;
lastChange = "2016-01-16 23:07:48 +0000";
layers = (
{
layerId = "034236B8-3FA8-43DA-9EDA-EFF269A687EC";
name = Regular;
paths = (
{
closed = 1;
nodes = (
"84 -412 OFFCURVE",
"127 -364 OFFCURVE",
"127 -295 CURVE SMOOTH",
"127 -230 OFFCURVE",
"83 -179 OFFCURVE",
"14 -179 CURVE",
"-54 -179 OFFCURVE",
"-98 -230 OFFCURVE",
"-98 -295 CURVE SMOOTH",
"-98 -364 OFFCURVE",
"-55 -412 OFFCURVE",
"15 -412 CURVE"
);
},
{
closed = 1;
nodes = (
"-38 -359 OFFCURVE",
"-65 -332 OFFCURVE",
"-65 -280 CURVE SMOOTH",
"-65 -225 OFFCURVE",
"-30 -196 OFFCURVE",
"15 -196 CURVE",
"60 -196 OFFCURVE",
"94 -225 OFFCURVE",
"94 -280 CURVE SMOOTH",
"94 -332 OFFCURVE",
"67 -359 OFFCURVE",
"15 -359 CURVE"
);
},
{
closed = 1;
nodes = (
"-22 -201 LINE",
"14 -193 LINE",
"52 -201 LINE",
"150 -201 LINE",
"150 -159 LINE",
"-125 -159 LINE",
"-125 -201 LINE"
);
},
{
closed = 1;
nodes = (
"42 -129 OFFCURVE",
"51 -90 OFFCURVE",
"51 -41 CURVE SMOOTH",
"51 27 OFFCURVE",
"31 51 OFFCURVE",
"10 51 CURVE SMOOTH",
"-4 51 OFFCURVE",
"-13 41 OFFCURVE",
"-13 27 CURVE SMOOTH",
"-13 17 OFFCURVE",
"-10 9 OFFCURVE",
"3 -1 CURVE SMOOTH",
"13 -10 OFFCURVE",
"22 -31 OFFCURVE",
"22 -69 CURVE SMOOTH",
"22 -98 OFFCURVE",
"17 -135 OFFCURVE",
"3 -162 CURVE",
"20 -169 LINE"
);
}
);
width = 34;
}
);
userData = {
com.typemytype.robofont.layerData = {
bkgd = {
anchors = (
);
components = (
);
contours = (
);
lib = {
};
name = knKAc2;
unicodes = (
);
width = 34;
};
};
com.typemytype.robofont.mark = (
1,
0.842,
0.674,
1
);
};
},
{
color = (255,215,172,1);
glyphname = knKHAc2;
lastChange = "2016-01-17 19:28:56 +0000";
layers = (
{
layerId = "034236B8-3FA8-43DA-9EDA-EFF269A687EC";
name = Regular;
paths = (
{
closed = 1;
nodes = (
"118 -109 OFFCURVE",
"83 -24 OFFCURVE",
"48 25 CURVE SMOOTH",
"36 43 OFFCURVE",
"25 54 OFFCURVE",
"10 54 CURVE SMOOTH",
"-4 54 OFFCURVE",
"-13 44 OFFCURVE",
"-13 28 CURVE SMOOTH",
"-13 13 OFFCURVE",
"-4 -1 OFFCURVE",
"14 -14 CURVE SMOOTH",
"54 -44 OFFCURVE",
"93 -114 OFFCURVE",
"93 -216 CURVE",
"93 -326 OFFCURVE",
"48 -359 OFFCURVE",
"-1 -359 CURVE",
"-82 -359 OFFCURVE",
"-123 -267 OFFCURVE",
"-222 -267 CURVE SMOOTH",
"-273 -267 OFFCURVE",
"-296 -291 OFFCURVE",
"-296 -333 CURVE SMOOTH",
"-296 -387 OFFCURVE",
"-259 -412 OFFCURVE",
"-207 -412 CURVE SMOOTH",
"-121 -412 OFFCURVE",
"-56 -343 OFFCURVE",
"-56 -222 CURVE SMOOTH",
"-56 -118 OFFCURVE",
"-103 -75 OFFCURVE",
"-160 -75 CURVE SMOOTH",
"-210 -75 OFFCURVE",
"-243 -108 OFFCURVE",
"-243 -154 CURVE SMOOTH",
"-243 -191 OFFCURVE",
"-221 -215 OFFCURVE",
"-188 -215 CURVE SMOOTH",
"-159 -215 OFFCURVE",
"-142 -196 OFFCURVE",
"-142 -174 CURVE SMOOTH",
"-142 -155 OFFCURVE",
"-155 -146 OFFCURVE",
"-173 -146 CURVE SMOOTH",
"-192 -146 OFFCURVE",
"-202 -159 OFFCURVE",
"-202 -178 CURVE SMOOTH",
"-202 -181 OFFCURVE",
"-203 -181 OFFCURVE",
"-204 -181 CURVE SMOOTH",
"-211 -181 OFFCURVE",
"-217 -172 OFFCURVE",
"-217 -158 CURVE SMOOTH",
"-217 -136 OFFCURVE",
"-198 -116 OFFCURVE",
"-163 -116 CURVE SMOOTH",
"-128 -116 OFFCURVE",
"-86 -135 OFFCURVE",
"-86 -222 CURVE",
"-86 -313 OFFCURVE",
"-133 -359 OFFCURVE",
"-210 -359 CURVE SMOOTH",
"-247 -359 OFFCURVE",
"-265 -349 OFFCURVE",
"-265 -327 CURVE SMOOTH",
"-265 -305 OFFCURVE",
"-244 -295 OFFCURVE",
"-219 -295 CURVE SMOOTH",
"-136 -295 OFFCURVE",
"-82 -412 OFFCURVE",
"9 -412 CURVE",
"69 -412 OFFCURVE",
"118 -361 OFFCURVE",
"118 -224 CURVE"
);
}
);
width = 48;
}
);
userData = {
com.typemytype.robofont.layerData = {
bkgd = {
anchors = (
);
components = (
);
contours = (
);
lib = {
};
name = knKHAc2;
unicodes = (
);
width = 88;
};
};
com.typemytype.robofont.mark = (
1,
0.842,
0.674,
1
);
};
},
{
color = (255,215,172,1);
glyphname = knGAc2;
lastChange = "2016-01-17 19:29:00 +0000";
layers = (
{
layerId = "034236B8-3FA8-43DA-9EDA-EFF269A687EC";
name = Regular;
paths = (
{
closed = 1;
nodes = (
"3 -104 OFFCURVE",
"56 -169 OFFCURVE",
"56 -320 CURVE SMOOTH",
"56 -412 LINE",
"111 -412 LINE",
"111 -336 LINE SMOOTH",
"111 -192 OFFCURVE",
"33 -75 OFFCURVE",
"-39 -75 CURVE",
"-111 -75 OFFCURVE",
"-188 -192 OFFCURVE",
"-188 -336 CURVE SMOOTH",
"-188 -412 LINE",
"-134 -412 LINE",
"-134 -320 LINE SMOOTH",
"-134 -169 OFFCURVE",
"-79 -104 OFFCURVE",
"-39 -104 CURVE"
);
}
);
width = 0;
}
);
userData = {
com.typemytype.robofont.layerData = {
bkgd = {
anchors = (
);
components = (
);
contours = (
);
lib = {
};
name = knGAc2;
unicodes = (
);
width = 0;
};
};
com.typemytype.robofont.mark = (
1,
0.842,
0.674,
1
);
};
},
{
color = (255,215,172,1);
glyphname = knGHAc2;
lastChange = "2016-01-17 19:16:04 +0000";
layers = (
{
layerId = "034236B8-3FA8-43DA-9EDA-EFF269A687EC";
name = Regular;
paths = (
{
closed = 1;
nodes = (
"245 -244 OFFCURVE",
"271 -220 OFFCURVE",
"271 -173 CURVE SMOOTH",
"271 -131 OFFCURVE",
"251 -91 OFFCURVE",
"208 -68 CURVE",
"194 -85 LINE",
"223 -107 OFFCURVE",
"236 -128 OFFCURVE",
"236 -152 CURVE SMOOTH",
"236 -176 OFFCURVE",
"223 -192 OFFCURVE",
"195 -192 CURVE SMOOTH",
"170 -192 OFFCURVE",
"142 -180 OFFCURVE",
"118 -113 CURVE",
"114 -131 LINE",
"133 -232 OFFCURVE",
"172 -244 OFFCURVE",
"202 -244 CURVE SMOOTH"
);
},
{
closed = 1;
nodes = (
"-44 -469 OFFCURVE",
"-25 -475 OFFCURVE",
"-25 -503 CURVE SMOOTH",
"-25 -530 OFFCURVE",
"-43 -544 OFFCURVE",
"-61 -544 CURVE",
"-79 -544 OFFCURVE",
"-95 -530 OFFCURVE",
"-95 -503 CURVE SMOOTH",
"-95 -475 OFFCURVE",
"-78 -469 OFFCURVE",
"-70 -396 CURVE",
"-52 -396 LINE"
);
},
{
closed = 1;
nodes = (
"113 -306 OFFCURVE",
"97 -359 OFFCURVE",
"46 -359 CURVE SMOOTH",
"-6 -359 OFFCURVE",
"-45 -303 OFFCURVE",
"-55 -249 CURVE",
"-69 -249 LINE",
"-79 -303 OFFCURVE",
"-122 -359 OFFCURVE",
"-176 -359 CURVE SMOOTH",
"-209 -359 OFFCURVE",
"-232 -338 OFFCURVE",
"-232 -298 CURVE SMOOTH",
"-232 -261 OFFCURVE",
"-213 -244 OFFCURVE",
"-188 -244 CURVE SMOOTH",
"-166 -244 OFFCURVE",
"-153 -257 OFFCURVE",
"-144 -272 CURVE",
"-127 -260 LINE",
"-135 -230 OFFCURVE",
"-155 -204 OFFCURVE",
"-195 -204 CURVE SMOOTH",
"-238 -204 OFFCURVE",
"-260 -235 OFFCURVE",
"-260 -299 CURVE SMOOTH",
"-260 -368 OFFCURVE",
"-233 -412 OFFCURVE",
"-176 -412 CURVE SMOOTH",
"-128 -412 OFFCURVE",
"-79 -380 OFFCURVE",
"-65 -323 CURVE",
"-59 -323 LINE",
"-45 -380 OFFCURVE",
"4 -412 OFFCURVE",
"49 -412 CURVE SMOOTH",
"115 -412 OFFCURVE",
"138 -344 OFFCURVE",
"138 -257 CURVE SMOOTH",
"138 -109 OFFCURVE",
"83 -24 OFFCURVE",
"50 23 CURVE SMOOTH",
"36 43 OFFCURVE",
"25 54 OFFCURVE",
"10 54 CURVE SMOOTH",
"-4 54 OFFCURVE",
"-13 44 OFFCURVE",
"-13 29 CURVE SMOOTH",
"-13 13 OFFCURVE",
"-4 -1 OFFCURVE",
"14 -14 CURVE SMOOTH",
"54 -44 OFFCURVE",
"113 -124 OFFCURVE",
"113 -246 CURVE SMOOTH"
);
}
);
width = 50;
}
);
userData = {
com.typemytype.robofont.layerData = {
bkgd = {
anchors = (
);
components = (
);
contours = (
);
lib = {
};
name = knGHAc2;
unicodes = (
);
width = 103;
};
};
com.typemytype.robofont.mark = (
1,
0.842,
0.674,
1
);
};
},
{
color = (255,215,172,1);
glyphname = knNGAc2;
lastChange = "2016-01-17 19:29:06 +0000";
layers = (
{
layerId = "034236B8-3FA8-43DA-9EDA-EFF269A687EC";
name = Regular;
paths = (
{
closed = 1;
nodes = (
"-126 -412 OFFCURVE",
"-84 -376 OFFCURVE",
"-69 -323 CURVE",
"-65 -323 LINE",
"-51 -376 OFFCURVE",
"-9 -412 OFFCURVE",
"40 -412 CURVE SMOOTH",
"82 -412 OFFCURVE",
"115 -385 OFFCURVE",
"115 -333 CURVE SMOOTH",
"115 -295 OFFCURVE",
"97 -261 OFFCURVE",
"75 -243 CURVE",
"59 -257 LINE",
"75 -271 OFFCURVE",
"84 -289 OFFCURVE",
"84 -311 CURVE SMOOTH",
"84 -340 OFFCURVE",
"68 -359 OFFCURVE",
"36 -359 CURVE SMOOTH",
"-14 -359 OFFCURVE",
"-51 -312 OFFCURVE",
"-60 -263 CURVE",
"-75 -263 LINE",
"-83 -312 OFFCURVE",
"-120 -359 OFFCURVE",
"-168 -359 CURVE SMOOTH",
"-198 -359 OFFCURVE",
"-216 -340 OFFCURVE",
"-216 -317 CURVE SMOOTH",
"-216 -292 OFFCURVE",
"-196 -269 OFFCURVE",
"-175 -244 CURVE SMOOTH",
"-150 -215 OFFCURVE",
"-123 -184 OFFCURVE",
"-123 -144 CURVE SMOOTH",
"-123 -109 OFFCURVE",
"-145 -75 OFFCURVE",
"-197 -75 CURVE SMOOTH",
"-250 -75 OFFCURVE",
"-275 -109 OFFCURVE",
"-275 -149 CURVE SMOOTH",
"-275 -169 OFFCURVE",
"-269 -182 OFFCURVE",
"-256 -195 CURVE",
"-243 -186 LINE",
"-246 -181 OFFCURVE",
"-250 -172 OFFCURVE",
"-250 -160 CURVE SMOOTH",
"-250 -135 OFFCURVE",
"-234 -119 OFFCURVE",
"-202 -119 CURVE SMOOTH",
"-170 -119 OFFCURVE",
"-157 -135 OFFCURVE",
"-157 -160 CURVE SMOOTH",
"-157 -182 OFFCURVE",
"-174 -201 OFFCURVE",
"-194 -223 CURVE SMOOTH",
"-220 -251 OFFCURVE",
"-249 -284 OFFCURVE",
"-249 -331 CURVE SMOOTH",
"-249 -379 OFFCURVE",
"-219 -412 OFFCURVE",
"-174 -412 CURVE SMOOTH"
);
},
{
closed = 1;
nodes = (
"-27 -228 OFFCURVE",
"-13 -216 OFFCURVE",
"-13 -194 CURVE SMOOTH",
"-13 -172 OFFCURVE",
"-27 -160 OFFCURVE",
"-48 -160 CURVE SMOOTH",
"-69 -160 OFFCURVE",
"-82 -172 OFFCURVE",
"-82 -194 CURVE SMOOTH",
"-82 -216 OFFCURVE",
"-69 -228 OFFCURVE",
"-48 -228 CURVE SMOOTH"
);
},
{
closed = 1;
nodes = (
"-95 -141 OFFCURVE",
"-47 -109 OFFCURVE",
"10 -109 CURVE SMOOTH",
"52 -109 OFFCURVE",
"73 -127 OFFCURVE",
"73 -157 CURVE SMOOTH",
"73 -176 OFFCURVE",
"65 -189 OFFCURVE",
"56 -197 CURVE",
"69 -210 LINE",
"87 -195 OFFCURVE",
"99 -172 OFFCURVE",
"99 -142 CURVE SMOOTH",
"99 -100 OFFCURVE",
"77 -65 OFFCURVE",
"20 -65 CURVE SMOOTH",
"-55 -65 OFFCURVE",
"-118 -127 OFFCURVE",
"-151 -185 CURVE",
"-151 -215 LINE"
);
}
);
width = 0;
}
);
userData = {
com.typemytype.robofont.layerData = {
bkgd = {
anchors = (
);
components = (
);
contours = (
);
lib = {
};
name = knNGAc2;
unicodes = (
);
width = 0;
};
};
com.typemytype.robofont.mark = (
1,
0.842,
0.674,
1
);
};
},
{
color = (255,215,172,1);
glyphname = knCAc2;
lastChange = "2016-01-17 19:29:09 +0000";
layers = (
{
layerId = "034236B8-3FA8-43DA-9EDA-EFF269A687EC";
name = Regular;
paths = (
{
closed = 1;
nodes = (
"122 -218 LINE",
"122 -172 LINE",
"-52 -172 LINE",
"-52 -218 LINE"
);
},
{
closed = 1;
nodes = (
"-14 -359 OFFCURVE",
"-51 -312 OFFCURVE",
"-60 -263 CURVE",
"-75 -263 LINE",
"-83 -312 OFFCURVE",
"-120 -359 OFFCURVE",
"-168 -359 CURVE SMOOTH",
"-198 -359 OFFCURVE",
"-216 -340 OFFCURVE",
"-216 -317 CURVE SMOOTH",
"-216 -292 OFFCURVE",
"-196 -269 OFFCURVE",
"-175 -244 CURVE SMOOTH",
"-150 -215 OFFCURVE",
"-123 -184 OFFCURVE",
"-123 -144 CURVE SMOOTH",
"-123 -109 OFFCURVE",
"-145 -75 OFFCURVE",
"-197 -75 CURVE SMOOTH",
"-250 -75 OFFCURVE",
"-275 -109 OFFCURVE",
"-275 -149 CURVE SMOOTH",
"-275 -169 OFFCURVE",
"-269 -182 OFFCURVE",
"-256 -195 CURVE",
"-243 -186 LINE",
"-246 -181 OFFCURVE",
"-250 -172 OFFCURVE",
"-250 -160 CURVE SMOOTH",
"-250 -135 OFFCURVE",
"-234 -119 OFFCURVE",
"-202 -119 CURVE SMOOTH",
"-170 -119 OFFCURVE",
"-157 -135 OFFCURVE",
"-157 -160 CURVE SMOOTH",
"-157 -182 OFFCURVE",
"-174 -201 OFFCURVE",
"-194 -223 CURVE SMOOTH",
"-220 -251 OFFCURVE",
"-249 -284 OFFCURVE",
"-249 -331 CURVE SMOOTH",
"-249 -379 OFFCURVE",
"-219 -412 OFFCURVE",
"-174 -412 CURVE SMOOTH",
"-126 -412 OFFCURVE",
"-84 -376 OFFCURVE",
"-69 -323 CURVE",
"-65 -323 LINE",
"-51 -376 OFFCURVE",
"-9 -412 OFFCURVE",
"40 -412 CURVE",
"87 -412 OFFCURVE",
"118 -379 OFFCURVE",
"118 -320 CURVE SMOOTH",
"118 -272 OFFCURVE",
"98 -207 OFFCURVE",
"44 -197 CURVE",
"24 -207 LINE",
"62 -222 OFFCURVE",
"87 -263 OFFCURVE",
"87 -304 CURVE SMOOTH",
"87 -338 OFFCURVE",
"70 -359 OFFCURVE",
"36 -359 CURVE"
);
}
);
width = 0;
}
);
userData = {
com.typemytype.robofont.layerData = {
bkgd = {
anchors = (
);
components = (
);
contours = (
);
lib = {
};
name = knCAc2;
unicodes = (
);
width = 0;
};
};
com.typemytype.robofont.mark = (
1,
0.842,
0.674,
1
);
};
},
{
color = (255,215,172,1);
glyphname = knCHAc2;
lastChange = "2016-01-17 19:29:18 +0000";
layers = (
{
layerId = "034236B8-3FA8-43DA-9EDA-EFF269A687EC";
name = Regular;
paths = (
{
closed = 1;
nodes = (
"144 -136 OFFCURVE",
"95 -37 OFFCURVE",
"53 23 CURVE SMOOTH",
"39 43 OFFCURVE",
"25 53 OFFCURVE",
"11 53 CURVE SMOOTH",
"-3 53 OFFCURVE",
"-13 43 OFFCURVE",
"-13 27 CURVE SMOOTH",
"-13 12 OFFCURVE",
"-4 -2 OFFCURVE",
"13 -15 CURVE SMOOTH",
"55 -46 OFFCURVE",
"118 -141 OFFCURVE",
"117 -244 CURVE SMOOTH",
"116 -301 OFFCURVE",
"95 -360 OFFCURVE",
"36 -360 CURVE SMOOTH",
"-17 -360 OFFCURVE",
"-57 -313 OFFCURVE",
"-65 -264 CURVE",
"-80 -264 LINE",
"-89 -313 OFFCURVE",
"-128 -360 OFFCURVE",
"-182 -360 CURVE SMOOTH",
"-238 -360 OFFCURVE",
"-266 -310 OFFCURVE",
"-266 -239 CURVE SMOOTH",
"-266 -172 OFFCURVE",
"-242 -116 OFFCURVE",
"-183 -116 CURVE SMOOTH",
"-155 -116 OFFCURVE",
"-140 -125 OFFCURVE",
"-140 -150 CURVE SMOOTH",
"-140 -172 OFFCURVE",
"-151 -186 OFFCURVE",
"-184 -186 CURVE SMOOTH",
"-216 -186 OFFCURVE",
"-231 -172 OFFCURVE",
"-231 -146 CURVE SMOOTH",
"-231 -138 OFFCURVE",
"-230 -129 OFFCURVE",
"-226 -119 CURVE",
"-247 -132 LINE",
"-248 -147 OFFCURVE",
"-249 -156 OFFCURVE",
"-249 -162 CURVE SMOOTH",
"-249 -208 OFFCURVE",
"-221 -230 OFFCURVE",
"-181 -230 CURVE SMOOTH",
"-138 -230 OFFCURVE",
"-112 -204 OFFCURVE",
"-112 -149 CURVE SMOOTH",
"-112 -106 OFFCURVE",
"-128 -75 OFFCURVE",
"-175 -75 CURVE SMOOTH",
"-251 -75 OFFCURVE",
"-296 -156 OFFCURVE",
"-296 -256 CURVE SMOOTH",
"-296 -351 OFFCURVE",
"-253 -413 OFFCURVE",
"-184 -413 CURVE SMOOTH",
"-131 -413 OFFCURVE",
"-89 -377 OFFCURVE",
"-76 -325 CURVE",
"-69 -325 LINE",
"-56 -377 OFFCURVE",
"-14 -413 OFFCURVE",
"41 -413 CURVE SMOOTH",
"122 -413 OFFCURVE",
"144 -334 OFFCURVE",
"144 -256 CURVE SMOOTH"
);
},
{
closed = 1;
nodes = (
"-57 -469 OFFCURVE",
"-38 -475 OFFCURVE",
"-38 -506 CURVE SMOOTH",
"-38 -530 OFFCURVE",
"-56 -544 OFFCURVE",
"-74 -544 CURVE",
"-92 -544 OFFCURVE",
"-108 -530 OFFCURVE",
"-108 -505 CURVE SMOOTH",
"-108 -475 OFFCURVE",
"-91 -469 OFFCURVE",
"-83 -396 CURVE",
"-65 -396 LINE"
);
}
);
width = 50;
}
);
userData = {
com.typemytype.robofont.layerData = {
bkgd = {
anchors = (
);
components = (
);
contours = (
);
lib = {
};
name = knCHAc2;
unicodes = (
);
width = 65;
};
};
com.typemytype.robofont.mark = (
1,
0.842,
0.674,
1
);
};
},
{
color = (255,215,172,1);
glyphname = knJAc2;
lastChange = "2016-01-17 19:28:40 +0000";
layers = (
{
layerId = "034236B8-3FA8-43DA-9EDA-EFF269A687EC";
name = Regular;
paths = (
{
closed = 1;
nodes = (
"45 -222 OFFCURVE",
"79 -191 OFFCURVE",
"79 -142 CURVE SMOOTH",
"79 -114 OFFCURVE",
"68 -85 OFFCURVE",
"45 -64 CURVE",
"31 -75 LINE",
"45 -92 OFFCURVE",
"52 -107 OFFCURVE",
"52 -125 CURVE SMOOTH",
"52 -159 OFFCURVE",
"27 -177 OFFCURVE",
"-8 -177 CURVE SMOOTH",
"-49 -177 OFFCURVE",
"-87 -157 OFFCURVE",
"-137 -101 CURVE",
"-163 -103 LINE",
"-108 -179 OFFCURVE",
"-55 -222 OFFCURVE",
"-1 -222 CURVE SMOOTH"
);
},
{
closed = 1;
nodes = (
"-126 -412 OFFCURVE",
"-84 -376 OFFCURVE",
"-69 -323 CURVE",
"-65 -323 LINE",
"-51 -376 OFFCURVE",
"-9 -412 OFFCURVE",
"40 -412 CURVE SMOOTH",
"82 -412 OFFCURVE",
"115 -385 OFFCURVE",
"115 -333 CURVE SMOOTH",
"115 -295 OFFCURVE",
"97 -261 OFFCURVE",
"75 -243 CURVE",
"59 -257 LINE",
"75 -271 OFFCURVE",
"84 -289 OFFCURVE",
"84 -311 CURVE SMOOTH",
"84 -340 OFFCURVE",
"68 -359 OFFCURVE",
"36 -359 CURVE SMOOTH",
"-14 -359 OFFCURVE",
"-51 -312 OFFCURVE",
"-60 -263 CURVE",
"-75 -263 LINE",
"-83 -312 OFFCURVE",
"-120 -359 OFFCURVE",
"-168 -359 CURVE SMOOTH",
"-198 -359 OFFCURVE",
"-216 -340 OFFCURVE",
"-216 -317 CURVE SMOOTH",
"-216 -292 OFFCURVE",
"-196 -269 OFFCURVE",
"-175 -244 CURVE SMOOTH",
"-150 -215 OFFCURVE",
"-123 -184 OFFCURVE",
"-123 -144 CURVE SMOOTH",
"-123 -109 OFFCURVE",
"-145 -75 OFFCURVE",
"-197 -75 CURVE SMOOTH",
"-250 -75 OFFCURVE",
"-275 -109 OFFCURVE",
"-275 -149 CURVE SMOOTH",
"-275 -169 OFFCURVE",
"-269 -182 OFFCURVE",
"-256 -195 CURVE",
"-243 -186 LINE",
"-246 -181 OFFCURVE",
"-250 -172 OFFCURVE",
"-250 -160 CURVE SMOOTH",
"-250 -135 OFFCURVE",
"-234 -119 OFFCURVE",
"-202 -119 CURVE SMOOTH",
"-170 -119 OFFCURVE",
"-157 -135 OFFCURVE",
"-157 -160 CURVE SMOOTH",
"-157 -182 OFFCURVE",
"-174 -201 OFFCURVE",
"-194 -223 CURVE SMOOTH",
"-220 -251 OFFCURVE",
"-249 -284 OFFCURVE",
"-249 -331 CURVE SMOOTH",
"-249 -379 OFFCURVE",
"-219 -412 OFFCURVE",
"-174 -412 CURVE SMOOTH"
);
}
);
width = 0;
}
);
userData = {
com.typemytype.robofont.layerData = {
bkgd = {
anchors = (
);
components = (
);
contours = (
);
lib = {
};
name = knJAc2;
unicodes = (
);
width = 0;
};
};
com.typemytype.robofont.mark = (
1,
0.842,
0.674,
1
);
};
},
{
color = (255,215,172,1);
glyphname = knJHAc2;
lastChange = "2016-01-17 19:28:30 +0000";
layers = (
{
layerId = "034236B8-3FA8-43DA-9EDA-EFF269A687EC";
name = Regular;
paths = (
{
closed = 1;
nodes = (
"57 -412 OFFCURVE",
"112 -343 OFFCURVE",
"112 -250 CURVE SMOOTH",
"112 -137 OFFCURVE",
"47 -75 OFFCURVE",
"3 -75 CURVE SMOOTH",
"-18 -75 OFFCURVE",
"-29 -87 OFFCURVE",
"-29 -102 CURVE SMOOTH",
"-29 -114 OFFCURVE",
"-20 -125 OFFCURVE",
"-10 -127 CURVE SMOOTH",
"4 -131 OFFCURVE",
"18 -129 OFFCURVE",
"33 -134 CURVE SMOOTH",
"56 -142 OFFCURVE",
"87 -181 OFFCURVE",
"87 -243 CURVE SMOOTH",
"87 -316 OFFCURVE",
"41 -359 OFFCURVE",
"-19 -359 CURVE SMOOTH",
"-62 -359 OFFCURVE",
"-91 -337 OFFCURVE",
"-110 -273 CURVE",
"-128 -284 LINE",
"-116 -366 OFFCURVE",
"-69 -412 OFFCURVE",
"-12 -412 CURVE SMOOTH"
);
},
{
closed = 1;
nodes = (
"-141 -412 OFFCURVE",
"-85 -343 OFFCURVE",
"-85 -259 CURVE SMOOTH",
"-85 -166 OFFCURVE",
"-144 -101 OFFCURVE",
"-239 -101 CURVE SMOOTH",
"-332 -101 OFFCURVE",
"-391 -166 OFFCURVE",
"-391 -259 CURVE SMOOTH",
"-391 -343 OFFCURVE",
"-334 -412 OFFCURVE",
"-239 -412 CURVE SMOOTH"
);
},
{
closed = 1;
nodes = (
"-308 -359 OFFCURVE",
"-353 -310 OFFCURVE",
"-353 -245 CURVE SMOOTH",
"-353 -174 OFFCURVE",
"-305 -134 OFFCURVE",
"-239 -134 CURVE SMOOTH",
"-172 -134 OFFCURVE",
"-122 -174 OFFCURVE",
"-122 -245 CURVE SMOOTH",
"-122 -310 OFFCURVE",
"-169 -359 OFFCURVE",
"-239 -359 CURVE SMOOTH"
);
},
{
closed = 1;
nodes = (
"107 -469 OFFCURVE",
"126 -475 OFFCURVE",
"126 -506 CURVE SMOOTH",
"126 -530 OFFCURVE",
"108 -544 OFFCURVE",
"90 -544 CURVE",
"72 -544 OFFCURVE",
"56 -530 OFFCURVE",
"56 -505 CURVE SMOOTH",
"56 -475 OFFCURVE",
"73 -469 OFFCURVE",
"81 -396 CURVE",
"99 -396 LINE"
);
},
{
closed = 1;
nodes = (
"268 -412 OFFCURVE",
"323 -343 OFFCURVE",
"323 -245 CURVE SMOOTH",
"323 -137 OFFCURVE",
"258 -75 OFFCURVE",
"214 -75 CURVE SMOOTH",
"193 -75 OFFCURVE",
"182 -87 OFFCURVE",
"182 -102 CURVE SMOOTH",
"182 -114 OFFCURVE",
"191 -125 OFFCURVE",
"201 -127 CURVE SMOOTH",
"215 -131 OFFCURVE",
"229 -129 OFFCURVE",
"244 -134 CURVE SMOOTH",
"267 -142 OFFCURVE",
"298 -181 OFFCURVE",
"298 -241 CURVE SMOOTH",
"298 -316 OFFCURVE",
"252 -359 OFFCURVE",
"188 -359 CURVE SMOOTH",
"139 -359 OFFCURVE",
"110 -334 OFFCURVE",
"101 -288 CURVE",
"84 -329 LINE",
"103 -372 OFFCURVE",
"142 -412 OFFCURVE",
"197 -412 CURVE SMOOTH"
);
}
);
width = 0;
}
);
userData = {
com.typemytype.robofont.layerData = {
bkgd = {
anchors = (
);
components = (
);
contours = (
);
lib = {
};
name = knJHAc2;
unicodes = (
);
width = 0;
};
};
com.typemytype.robofont.mark = (
1,
0.842,
0.674,
1
);
};
},
{
color = (255,215,172,1);
glyphname = knNYAc2;
lastChange = "2016-01-17 19:32:35 +0000";
layers = (
{
background = {
paths = (
{
closed = 1;
nodes = (
"-294 -62 OFFCURVE",
"-326 -96 OFFCURVE",
"-326 -148 CURVE SMOOTH",
"-326 -169 OFFCURVE",
"-322 -190 OFFCURVE",
"-308 -209 CURVE",
"-286 -195 LINE",
"-292 -189 OFFCURVE",
"-295 -180 OFFCURVE",
"-295 -168 CURVE SMOOTH",
"-295 -139 OFFCURVE",
"-276 -112 OFFCURVE",
"-237 -112 CURVE SMOOTH",
"-178 -112 OFFCURVE",
"-145 -168 OFFCURVE",
"-136 -218 CURVE",
"-130 -218 LINE",
"-122 -169 OFFCURVE",
"-84 -113 OFFCURVE",
"-29 -113 CURVE SMOOTH",
"10 -113 OFFCURVE",
"45 -147 OFFCURVE",
"45 -206 CURVE SMOOTH",
"45 -295 OFFCURVE",
"-29 -357 OFFCURVE",
"-115 -357 CURVE SMOOTH",
"-154 -357 OFFCURVE",
"-188 -344 OFFCURVE",
"-188 -322 CURVE SMOOTH",
"-188 -301 OFFCURVE",
"-163 -283 OFFCURVE",
"-121 -283 CURVE SMOOTH",
"-20 -283 OFFCURVE",
"35 -373 OFFCURVE",
"35 -433 CURVE SMOOTH",
"35 -453 OFFCURVE",
"42 -467 OFFCURVE",
"55 -467 CURVE SMOOTH",
"66 -467 OFFCURVE",
"74 -458 OFFCURVE",
"74 -439 CURVE SMOOTH",
"74 -377 OFFCURVE",
"3 -260 OFFCURVE",
"-124 -260 CURVE SMOOTH",
"-186 -260 OFFCURVE",
"-223 -293 OFFCURVE",
"-223 -333 CURVE SMOOTH",
"-223 -378 OFFCURVE",
"-181 -412 OFFCURVE",
"-122 -412 CURVE SMOOTH",
"-19 -412 OFFCURVE",
"69 -306 OFFCURVE",
"69 -195 CURVE SMOOTH",
"69 -112 OFFCURVE",
"34 -62 OFFCURVE",
"-26 -62 CURVE SMOOTH",
"-73 -62 OFFCURVE",
"-116 -100 OFFCURVE",
"-132 -155 CURVE",
"-133 -155 LINE",
"-148 -100 OFFCURVE",
"-192 -62 OFFCURVE",
"-246 -62 CURVE SMOOTH"
);
}
);
};
layerId = "034236B8-3FA8-43DA-9EDA-EFF269A687EC";
name = Regular;
paths = (
{
closed = 1;
nodes = (
"66 -467 OFFCURVE",
"74 -457 OFFCURVE",
"74 -430 CURVE SMOOTH",
"74 -353 OFFCURVE",
"18 -262 OFFCURVE",
"-105 -262 CURVE SMOOTH",
"-167 -262 OFFCURVE",
"-202 -286 OFFCURVE",
"-202 -334 CURVE SMOOTH",
"-202 -383 OFFCURVE",
"-167 -412 OFFCURVE",
"-102 -412 CURVE SMOOTH",
"-8 -412 OFFCURVE",
"76 -355 OFFCURVE",
"76 -218 CURVE",
"76 -131 OFFCURVE",
"32 -75 OFFCURVE",
"-31 -75 CURVE SMOOTH",
"-83 -75 OFFCURVE",
"-117 -112 OFFCURVE",
"-132 -165 CURVE",
"-135 -165 LINE",
"-151 -112 OFFCURVE",
"-191 -75 OFFCURVE",
"-242 -75 CURVE SMOOTH",
"-294 -75 OFFCURVE",
"-321 -114 OFFCURVE",
"-321 -165 CURVE SMOOTH",
"-321 -182 OFFCURVE",
"-318 -201 OFFCURVE",
"-304 -219 CURVE",
"-282 -203 LINE",
"-287 -193 OFFCURVE",
"-290 -183 OFFCURVE",
"-290 -172 CURVE SMOOTH",
"-290 -139 OFFCURVE",
"-273 -123 OFFCURVE",
"-242 -123 CURVE SMOOTH",
"-186 -123 OFFCURVE",
"-149 -177 OFFCURVE",
"-140 -224 CURVE",
"-129 -224 LINE",
"-120 -177 OFFCURVE",
"-87 -123 OFFCURVE",
"-31 -123 CURVE SMOOTH",
"13 -123 OFFCURVE",
"45 -156 OFFCURVE",
"45 -225 CURVE",
"45 -322 OFFCURVE",
"-14 -359 OFFCURVE",
"-99 -359 CURVE",
"-147 -359 OFFCURVE",
"-169 -347 OFFCURVE",
"-169 -324 CURVE SMOOTH",
"-169 -304 OFFCURVE",
"-147 -292 OFFCURVE",
"-108 -292 CURVE SMOOTH",
"-13 -292 OFFCURVE",
"35 -366 OFFCURVE",
"35 -438 CURVE SMOOTH",
"35 -456 OFFCURVE",
"39 -467 OFFCURVE",
"53 -467 CURVE SMOOTH"
);
},
{
closed = 1;
nodes = (
"76 -178 OFFCURVE",
"111 -123 OFFCURVE",
"166 -123 CURVE SMOOTH",
"209 -123 OFFCURVE",
"220 -156 OFFCURVE",
"220 -174 CURVE SMOOTH",
"220 -188 OFFCURVE",
"216 -198 OFFCURVE",
"211 -203 CURVE",
"233 -218 LINE",
"246 -203 OFFCURVE",
"253 -185 OFFCURVE",
"253 -163 CURVE SMOOTH",
"253 -116 OFFCURVE",
"222 -75 OFFCURVE",
"169 -75 CURVE SMOOTH",
"111 -75 OFFCURVE",
"62 -125 OFFCURVE",
"61 -183 CURVE",
"75 -224 LINE"
);
}
);
width = 0;
}
);
userData = {
com.typemytype.robofont.layerData = {
bkgd = {
anchors = (
);
components = (
);
contours = (
);
lib = {
};
name = knNYAc2;
unicodes = (
);
width = 108;
};
};
com.typemytype.robofont.mark = (
1,
0.842,
0.674,
1
);
};
},
